%FSLAX25Y25*%
%MOIN*%
G70*
G01*
G75*
G04 Layer_Color=16711935*
G04:AMPARAMS|DCode=10|XSize=110.24mil|YSize=43.31mil|CornerRadius=2.17mil|HoleSize=0mil|Usage=FLASHONLY|Rotation=0.000|XOffset=0mil|YOffset=0mil|HoleType=Round|Shape=RoundedRectangle|*
%AMROUNDEDRECTD10*
21,1,0.11024,0.03898,0,0,0.0*
21,1,0.10591,0.04331,0,0,0.0*
1,1,0.00433,0.05295,-0.01949*
1,1,0.00433,-0.05295,-0.01949*
1,1,0.00433,-0.05295,0.01949*
1,1,0.00433,0.05295,0.01949*
%
%ADD10ROUNDEDRECTD10*%
G04:AMPARAMS|DCode=11|XSize=19.69mil|YSize=23.62mil|CornerRadius=8.86mil|HoleSize=0mil|Usage=FLASHONLY|Rotation=270.000|XOffset=0mil|YOffset=0mil|HoleType=Round|Shape=RoundedRectangle|*
%AMROUNDEDRECTD11*
21,1,0.01969,0.00591,0,0,270.0*
21,1,0.00197,0.02362,0,0,270.0*
1,1,0.01772,-0.00295,-0.00098*
1,1,0.01772,-0.00295,0.00098*
1,1,0.01772,0.00295,0.00098*
1,1,0.01772,0.00295,-0.00098*
%
%ADD11ROUNDEDRECTD11*%
G04:AMPARAMS|DCode=12|XSize=110.24mil|YSize=43.31mil|CornerRadius=2.17mil|HoleSize=0mil|Usage=FLASHONLY|Rotation=270.000|XOffset=0mil|YOffset=0mil|HoleType=Round|Shape=RoundedRectangle|*
%AMROUNDEDRECTD12*
21,1,0.11024,0.03898,0,0,270.0*
21,1,0.10591,0.04331,0,0,270.0*
1,1,0.00433,-0.01949,-0.05295*
1,1,0.00433,-0.01949,0.05295*
1,1,0.00433,0.01949,0.05295*
1,1,0.00433,0.01949,-0.05295*
%
%ADD12ROUNDEDRECTD12*%
G04:AMPARAMS|DCode=13|XSize=19.69mil|YSize=23.62mil|CornerRadius=8.86mil|HoleSize=0mil|Usage=FLASHONLY|Rotation=180.000|XOffset=0mil|YOffset=0mil|HoleType=Round|Shape=RoundedRectangle|*
%AMROUNDEDRECTD13*
21,1,0.01969,0.00591,0,0,180.0*
21,1,0.00197,0.02362,0,0,180.0*
1,1,0.01772,-0.00098,0.00295*
1,1,0.01772,0.00098,0.00295*
1,1,0.01772,0.00098,-0.00295*
1,1,0.01772,-0.00098,-0.00295*
%
%ADD13ROUNDEDRECTD13*%
G04:AMPARAMS|DCode=14|XSize=23.62mil|YSize=35.43mil|CornerRadius=5.91mil|HoleSize=0mil|Usage=FLASHONLY|Rotation=90.000|XOffset=0mil|YOffset=0mil|HoleType=Round|Shape=RoundedRectangle|*
%AMROUNDEDRECTD14*
21,1,0.02362,0.02362,0,0,90.0*
21,1,0.01181,0.03543,0,0,90.0*
1,1,0.01181,0.01181,0.00591*
1,1,0.01181,0.01181,-0.00591*
1,1,0.01181,-0.01181,-0.00591*
1,1,0.01181,-0.01181,0.00591*
%
%ADD14ROUNDEDRECTD14*%
%ADD15O,0.02165X0.06890*%
%ADD16O,0.06890X0.02165*%
G04:AMPARAMS|DCode=17|XSize=41.73mil|YSize=25.59mil|CornerRadius=6.4mil|HoleSize=0mil|Usage=FLASHONLY|Rotation=0.000|XOffset=0mil|YOffset=0mil|HoleType=Round|Shape=RoundedRectangle|*
%AMROUNDEDRECTD17*
21,1,0.04173,0.01280,0,0,0.0*
21,1,0.02894,0.02559,0,0,0.0*
1,1,0.01280,0.01447,-0.00640*
1,1,0.01280,-0.01447,-0.00640*
1,1,0.01280,-0.01447,0.00640*
1,1,0.01280,0.01447,0.00640*
%
%ADD17ROUNDEDRECTD17*%
G04:AMPARAMS|DCode=18|XSize=52mil|YSize=24mil|CornerRadius=6mil|HoleSize=0mil|Usage=FLASHONLY|Rotation=0.000|XOffset=0mil|YOffset=0mil|HoleType=Round|Shape=RoundedRectangle|*
%AMROUNDEDRECTD18*
21,1,0.05200,0.01200,0,0,0.0*
21,1,0.04000,0.02400,0,0,0.0*
1,1,0.01200,0.02000,-0.00600*
1,1,0.01200,-0.02000,-0.00600*
1,1,0.01200,-0.02000,0.00600*
1,1,0.01200,0.02000,0.00600*
%
%ADD18ROUNDEDRECTD18*%
%ADD19R,0.05000X0.02400*%
G04:AMPARAMS|DCode=20|XSize=25.59mil|YSize=39.37mil|CornerRadius=6.4mil|HoleSize=0mil|Usage=FLASHONLY|Rotation=180.000|XOffset=0mil|YOffset=0mil|HoleType=Round|Shape=RoundedRectangle|*
%AMROUNDEDRECTD20*
21,1,0.02559,0.02658,0,0,180.0*
21,1,0.01280,0.03937,0,0,180.0*
1,1,0.01280,-0.00640,0.01329*
1,1,0.01280,0.00640,0.01329*
1,1,0.01280,0.00640,-0.01329*
1,1,0.01280,-0.00640,-0.01329*
%
%ADD20ROUNDEDRECTD20*%
G04:AMPARAMS|DCode=21|XSize=21.65mil|YSize=39.37mil|CornerRadius=5.41mil|HoleSize=0mil|Usage=FLASHONLY|Rotation=180.000|XOffset=0mil|YOffset=0mil|HoleType=Round|Shape=RoundedRectangle|*
%AMROUNDEDRECTD21*
21,1,0.02165,0.02854,0,0,180.0*
21,1,0.01083,0.03937,0,0,180.0*
1,1,0.01083,-0.00541,0.01427*
1,1,0.01083,0.00541,0.01427*
1,1,0.01083,0.00541,-0.01427*
1,1,0.01083,-0.00541,-0.01427*
%
%ADD21ROUNDEDRECTD21*%
%ADD22C,0.00591*%
%ADD23C,0.01181*%
%ADD24C,0.03937*%
G04:AMPARAMS|DCode=25|XSize=59.06mil|YSize=59.06mil|CornerRadius=8.86mil|HoleSize=0mil|Usage=FLASHONLY|Rotation=270.000|XOffset=0mil|YOffset=0mil|HoleType=Round|Shape=RoundedRectangle|*
%AMROUNDEDRECTD25*
21,1,0.05906,0.04134,0,0,270.0*
21,1,0.04134,0.05906,0,0,270.0*
1,1,0.01772,-0.02067,-0.02067*
1,1,0.01772,-0.02067,0.02067*
1,1,0.01772,0.02067,0.02067*
1,1,0.01772,0.02067,-0.02067*
%
%ADD25ROUNDEDRECTD25*%
%ADD26C,0.05906*%
%ADD27C,0.05906*%
%ADD28R,0.05906X0.05906*%
G04:AMPARAMS|DCode=29|XSize=59.06mil|YSize=59.06mil|CornerRadius=14.76mil|HoleSize=0mil|Usage=FLASHONLY|Rotation=270.000|XOffset=0mil|YOffset=0mil|HoleType=Round|Shape=RoundedRectangle|*
%AMROUNDEDRECTD29*
21,1,0.05906,0.02953,0,0,270.0*
21,1,0.02953,0.05906,0,0,270.0*
1,1,0.02953,-0.01476,-0.01476*
1,1,0.02953,-0.01476,0.01476*
1,1,0.02953,0.01476,0.01476*
1,1,0.02953,0.01476,-0.01476*
%
%ADD29ROUNDEDRECTD29*%
%ADD30C,0.01575*%
G04:AMPARAMS|DCode=31|XSize=31.5mil|YSize=31.5mil|CornerRadius=3.15mil|HoleSize=0mil|Usage=FLASHONLY|Rotation=0.000|XOffset=0mil|YOffset=0mil|HoleType=Round|Shape=RoundedRectangle|*
%AMROUNDEDRECTD31*
21,1,0.03150,0.02520,0,0,0.0*
21,1,0.02520,0.03150,0,0,0.0*
1,1,0.00630,0.01260,-0.01260*
1,1,0.00630,-0.01260,-0.01260*
1,1,0.00630,-0.01260,0.01260*
1,1,0.00630,0.01260,0.01260*
%
%ADD31ROUNDEDRECTD31*%
G04:AMPARAMS|DCode=32|XSize=23.62mil|YSize=35.43mil|CornerRadius=5.91mil|HoleSize=0mil|Usage=FLASHONLY|Rotation=180.000|XOffset=0mil|YOffset=0mil|HoleType=Round|Shape=RoundedRectangle|*
%AMROUNDEDRECTD32*
21,1,0.02362,0.02362,0,0,180.0*
21,1,0.01181,0.03543,0,0,180.0*
1,1,0.01181,-0.00591,0.01181*
1,1,0.01181,0.00591,0.01181*
1,1,0.01181,0.00591,-0.01181*
1,1,0.01181,-0.00591,-0.01181*
%
%ADD32ROUNDEDRECTD32*%
%ADD33O,0.01181X0.07087*%
%ADD34O,0.07087X0.01181*%
%ADD35C,0.00984*%
%ADD36C,0.02362*%
%ADD37C,0.00400*%
%ADD38C,0.00394*%
%ADD39C,0.00787*%
%ADD40C,0.00800*%
%ADD41C,0.00500*%
G04:AMPARAMS|DCode=42|XSize=114.17mil|YSize=47.24mil|CornerRadius=2.36mil|HoleSize=0mil|Usage=FLASHONLY|Rotation=0.000|XOffset=0mil|YOffset=0mil|HoleType=Round|Shape=RoundedRectangle|*
%AMROUNDEDRECTD42*
21,1,0.11417,0.04252,0,0,0.0*
21,1,0.10945,0.04724,0,0,0.0*
1,1,0.00472,0.05472,-0.02126*
1,1,0.00472,-0.05472,-0.02126*
1,1,0.00472,-0.05472,0.02126*
1,1,0.00472,0.05472,0.02126*
%
%ADD42ROUNDEDRECTD42*%
G04:AMPARAMS|DCode=43|XSize=23.62mil|YSize=27.56mil|CornerRadius=10.63mil|HoleSize=0mil|Usage=FLASHONLY|Rotation=270.000|XOffset=0mil|YOffset=0mil|HoleType=Round|Shape=RoundedRectangle|*
%AMROUNDEDRECTD43*
21,1,0.02362,0.00630,0,0,270.0*
21,1,0.00236,0.02756,0,0,270.0*
1,1,0.02126,-0.00315,-0.00118*
1,1,0.02126,-0.00315,0.00118*
1,1,0.02126,0.00315,0.00118*
1,1,0.02126,0.00315,-0.00118*
%
%ADD43ROUNDEDRECTD43*%
G04:AMPARAMS|DCode=44|XSize=114.17mil|YSize=47.24mil|CornerRadius=2.36mil|HoleSize=0mil|Usage=FLASHONLY|Rotation=270.000|XOffset=0mil|YOffset=0mil|HoleType=Round|Shape=RoundedRectangle|*
%AMROUNDEDRECTD44*
21,1,0.11417,0.04252,0,0,270.0*
21,1,0.10945,0.04724,0,0,270.0*
1,1,0.00472,-0.02126,-0.05472*
1,1,0.00472,-0.02126,0.05472*
1,1,0.00472,0.02126,0.05472*
1,1,0.00472,0.02126,-0.05472*
%
%ADD44ROUNDEDRECTD44*%
G04:AMPARAMS|DCode=45|XSize=23.62mil|YSize=27.56mil|CornerRadius=10.63mil|HoleSize=0mil|Usage=FLASHONLY|Rotation=180.000|XOffset=0mil|YOffset=0mil|HoleType=Round|Shape=RoundedRectangle|*
%AMROUNDEDRECTD45*
21,1,0.02362,0.00630,0,0,180.0*
21,1,0.00236,0.02756,0,0,180.0*
1,1,0.02126,-0.00118,0.00315*
1,1,0.02126,0.00118,0.00315*
1,1,0.02126,0.00118,-0.00315*
1,1,0.02126,-0.00118,-0.00315*
%
%ADD45ROUNDEDRECTD45*%
G04:AMPARAMS|DCode=46|XSize=27.56mil|YSize=39.37mil|CornerRadius=6.89mil|HoleSize=0mil|Usage=FLASHONLY|Rotation=90.000|XOffset=0mil|YOffset=0mil|HoleType=Round|Shape=RoundedRectangle|*
%AMROUNDEDRECTD46*
21,1,0.02756,0.02559,0,0,90.0*
21,1,0.01378,0.03937,0,0,90.0*
1,1,0.01378,0.01280,0.00689*
1,1,0.01378,0.01280,-0.00689*
1,1,0.01378,-0.01280,-0.00689*
1,1,0.01378,-0.01280,0.00689*
%
%ADD46ROUNDEDRECTD46*%
%ADD47O,0.02559X0.07284*%
%ADD48O,0.07284X0.02559*%
G04:AMPARAMS|DCode=49|XSize=45.67mil|YSize=29.53mil|CornerRadius=7.38mil|HoleSize=0mil|Usage=FLASHONLY|Rotation=0.000|XOffset=0mil|YOffset=0mil|HoleType=Round|Shape=RoundedRectangle|*
%AMROUNDEDRECTD49*
21,1,0.04567,0.01476,0,0,0.0*
21,1,0.03091,0.02953,0,0,0.0*
1,1,0.01476,0.01545,-0.00738*
1,1,0.01476,-0.01545,-0.00738*
1,1,0.01476,-0.01545,0.00738*
1,1,0.01476,0.01545,0.00738*
%
%ADD49ROUNDEDRECTD49*%
G04:AMPARAMS|DCode=50|XSize=60mil|YSize=32mil|CornerRadius=8mil|HoleSize=0mil|Usage=FLASHONLY|Rotation=0.000|XOffset=0mil|YOffset=0mil|HoleType=Round|Shape=RoundedRectangle|*
%AMROUNDEDRECTD50*
21,1,0.06000,0.01600,0,0,0.0*
21,1,0.04400,0.03200,0,0,0.0*
1,1,0.01600,0.02200,-0.00800*
1,1,0.01600,-0.02200,-0.00800*
1,1,0.01600,-0.02200,0.00800*
1,1,0.01600,0.02200,0.00800*
%
%ADD50ROUNDEDRECTD50*%
%ADD51R,0.05800X0.03200*%
G04:AMPARAMS|DCode=52|XSize=29.53mil|YSize=43.31mil|CornerRadius=7.38mil|HoleSize=0mil|Usage=FLASHONLY|Rotation=180.000|XOffset=0mil|YOffset=0mil|HoleType=Round|Shape=RoundedRectangle|*
%AMROUNDEDRECTD52*
21,1,0.02953,0.02854,0,0,180.0*
21,1,0.01476,0.04331,0,0,180.0*
1,1,0.01476,-0.00738,0.01427*
1,1,0.01476,0.00738,0.01427*
1,1,0.01476,0.00738,-0.01427*
1,1,0.01476,-0.00738,-0.01427*
%
%ADD52ROUNDEDRECTD52*%
G04:AMPARAMS|DCode=53|XSize=25.59mil|YSize=43.31mil|CornerRadius=6.4mil|HoleSize=0mil|Usage=FLASHONLY|Rotation=180.000|XOffset=0mil|YOffset=0mil|HoleType=Round|Shape=RoundedRectangle|*
%AMROUNDEDRECTD53*
21,1,0.02559,0.03051,0,0,180.0*
21,1,0.01280,0.04331,0,0,180.0*
1,1,0.01280,-0.00640,0.01526*
1,1,0.01280,0.00640,0.01526*
1,1,0.01280,0.00640,-0.01526*
1,1,0.01280,-0.00640,-0.01526*
%
%ADD53ROUNDEDRECTD53*%
G04:AMPARAMS|DCode=54|XSize=62.99mil|YSize=62.99mil|CornerRadius=9.45mil|HoleSize=0mil|Usage=FLASHONLY|Rotation=270.000|XOffset=0mil|YOffset=0mil|HoleType=Round|Shape=RoundedRectangle|*
%AMROUNDEDRECTD54*
21,1,0.06299,0.04409,0,0,270.0*
21,1,0.04409,0.06299,0,0,270.0*
1,1,0.01890,-0.02205,-0.02205*
1,1,0.01890,-0.02205,0.02205*
1,1,0.01890,0.02205,0.02205*
1,1,0.01890,0.02205,-0.02205*
%
%ADD54ROUNDEDRECTD54*%
%ADD55C,0.06299*%
%ADD56C,0.06299*%
%ADD57R,0.06299X0.06299*%
G04:AMPARAMS|DCode=58|XSize=62.99mil|YSize=62.99mil|CornerRadius=15.75mil|HoleSize=0mil|Usage=FLASHONLY|Rotation=270.000|XOffset=0mil|YOffset=0mil|HoleType=Round|Shape=RoundedRectangle|*
%AMROUNDEDRECTD58*
21,1,0.06299,0.03150,0,0,270.0*
21,1,0.03150,0.06299,0,0,270.0*
1,1,0.03150,-0.01575,-0.01575*
1,1,0.03150,-0.01575,0.01575*
1,1,0.03150,0.01575,0.01575*
1,1,0.03150,0.01575,-0.01575*
%
%ADD58ROUNDEDRECTD58*%
G04:AMPARAMS|DCode=59|XSize=35.43mil|YSize=35.43mil|CornerRadius=3.54mil|HoleSize=0mil|Usage=FLASHONLY|Rotation=0.000|XOffset=0mil|YOffset=0mil|HoleType=Round|Shape=RoundedRectangle|*
%AMROUNDEDRECTD59*
21,1,0.03543,0.02835,0,0,0.0*
21,1,0.02835,0.03543,0,0,0.0*
1,1,0.00709,0.01417,-0.01417*
1,1,0.00709,-0.01417,-0.01417*
1,1,0.00709,-0.01417,0.01417*
1,1,0.00709,0.01417,0.01417*
%
%ADD59ROUNDEDRECTD59*%
G04:AMPARAMS|DCode=60|XSize=27.56mil|YSize=39.37mil|CornerRadius=6.89mil|HoleSize=0mil|Usage=FLASHONLY|Rotation=180.000|XOffset=0mil|YOffset=0mil|HoleType=Round|Shape=RoundedRectangle|*
%AMROUNDEDRECTD60*
21,1,0.02756,0.02559,0,0,180.0*
21,1,0.01378,0.03937,0,0,180.0*
1,1,0.01378,-0.00689,0.01280*
1,1,0.01378,0.00689,0.01280*
1,1,0.01378,0.00689,-0.01280*
1,1,0.01378,-0.00689,-0.01280*
%
%ADD60ROUNDEDRECTD60*%
%ADD61O,0.01575X0.07480*%
%ADD62O,0.07480X0.01575*%
D43*
X189500Y16000D02*
D03*
Y20035D02*
D03*
D45*
X148500Y58250D02*
D03*
X152535D02*
D03*
X144500D02*
D03*
X140465D02*
D03*
X32437Y39500D02*
D03*
X28402D02*
D03*
X32437Y44000D02*
D03*
X28402D02*
D03*
X32437Y49000D02*
D03*
X28402D02*
D03*
X7000Y32500D02*
D03*
X2965D02*
D03*
D46*
X140000Y27500D02*
D03*
Y21595D02*
D03*
Y42500D02*
D03*
Y48406D02*
D03*
D50*
X167500Y32500D02*
D03*
X167500Y27500D02*
D03*
Y22500D02*
D03*
Y47500D02*
D03*
X167500Y42500D02*
D03*
X146500Y27500D02*
D03*
X146500Y32500D02*
D03*
X146500Y22500D02*
D03*
Y47500D02*
D03*
Y52500D02*
D03*
X146500Y42500D02*
D03*
X167500Y37500D02*
D03*
X146500D02*
D03*
D51*
X167500Y52500D02*
D03*
D54*
X200000Y57500D02*
D03*
X128500Y52500D02*
D03*
X5000Y17500D02*
D03*
D55*
X200000Y47500D02*
D03*
Y37500D02*
D03*
Y27500D02*
D03*
Y17500D02*
D03*
X128500Y42500D02*
D03*
Y32500D02*
D03*
Y22500D02*
D03*
X5000Y67500D02*
D03*
Y57500D02*
D03*
Y47500D02*
D03*
Y37500D02*
D03*
Y27500D02*
D03*
X187500Y37500D02*
D03*
D56*
X130000Y67500D02*
D03*
X180000D02*
D03*
X140000D02*
D03*
X120000D02*
D03*
X110000D02*
D03*
X100000D02*
D03*
X90000D02*
D03*
X80000D02*
D03*
X70000D02*
D03*
X60000D02*
D03*
X50000D02*
D03*
X40000D02*
D03*
X30000D02*
D03*
X40000Y7500D02*
D03*
X30000D02*
D03*
X200000Y67500D02*
D03*
Y7500D02*
D03*
X50000D02*
D03*
X60000D02*
D03*
X70000D02*
D03*
X20000D02*
D03*
X80000D02*
D03*
X20000Y67500D02*
D03*
X90000Y7500D02*
D03*
X100000D02*
D03*
X110000D02*
D03*
X120000D02*
D03*
X130000D02*
D03*
X140000D02*
D03*
X150000D02*
D03*
X160000D02*
D03*
X170000D02*
D03*
X180000D02*
D03*
X190000D02*
D03*
X170000Y67500D02*
D03*
X150000D02*
D03*
D57*
X10000Y7500D02*
D03*
D58*
X187500Y47500D02*
D03*
D59*
X190500Y28000D02*
D03*
X184595D02*
D03*
D60*
X174000Y32500D02*
D03*
X179905D02*
D03*
X174000Y37500D02*
D03*
X179905D02*
D03*
X174000Y47500D02*
D03*
X179905D02*
D03*
D61*
X106327Y22555D02*
D03*
X104358D02*
D03*
X102390D02*
D03*
X100421D02*
D03*
X98453D02*
D03*
X96484D02*
D03*
X94516D02*
D03*
X92547D02*
D03*
X90579D02*
D03*
X88610D02*
D03*
X86642D02*
D03*
X84673D02*
D03*
X84673Y54445D02*
D03*
X86642D02*
D03*
X88610D02*
D03*
X90579Y54445D02*
D03*
X92547D02*
D03*
X94516D02*
D03*
X96484D02*
D03*
X98453D02*
D03*
X100421Y54445D02*
D03*
X102390D02*
D03*
X104358D02*
D03*
X106327D02*
D03*
D62*
X79555Y27673D02*
D03*
Y29642D02*
D03*
Y31610D02*
D03*
Y33579D02*
D03*
X79555Y35547D02*
D03*
Y37516D02*
D03*
Y39484D02*
D03*
Y41453D02*
D03*
Y43421D02*
D03*
X79555Y45390D02*
D03*
Y47358D02*
D03*
Y49327D02*
D03*
X111445Y49327D02*
D03*
X111445Y47358D02*
D03*
Y45390D02*
D03*
Y43421D02*
D03*
Y41453D02*
D03*
Y39484D02*
D03*
Y37516D02*
D03*
Y35547D02*
D03*
Y33579D02*
D03*
Y31610D02*
D03*
Y29642D02*
D03*
Y27673D02*
D03*
M02*
