M48
;Layer_Color=9474304
;FILE_FORMAT=2:5
INCH,LZ
;TYPE=PLATED
T1F00S00C0.00787
T2F00S00C0.03543
%
T01
X009425Y001325
X0105Y0015
X01135Y00115
X0125
X012325Y003
X011589Y003161
X010025Y0031
X0098453Y0035
X00945Y003275
X0094516Y002775
X008861Y0037
Y0049
X00905Y004725
X009575
X0098453Y00435
X01045Y0043421
X01065Y004539
X0121Y005425
X0126Y006175
X01345Y00635
X013575Y004975
X0134Y0047
X0135Y004
X013725Y00375
X0135Y00325
Y0025
X014Y002025
X014525Y001325
X014725Y0015
X01545Y001825
X016475Y00225
X016125Y002675
X0157Y00325
X01565Y00375
X01545Y00425
X015275Y0045
X014925Y00375
X0151Y003025
X01625Y004025
X016475Y00475
X01625Y004975
X0157Y00565
X01585Y006675
X015975Y006975
X016375
X01775Y0061
X01755Y005475
X01935Y00535
X019175Y00305
X018976Y002175
X01895Y0014
X018Y00285
X0179905Y0035
X01465Y005825
X01385Y00525
X0094516Y00595
X0144Y00035
X0085Y00055
X0082Y0021
X0075Y0017
X007275Y00245
X0072679Y0027931
X0065Y0027551
Y002975
Y0032
Y0024402
X00685Y00225
X00655Y0011431
X0045Y0003
X0042055Y00225
X0035756Y0019
X00325
X0026307
X0023157
X002475Y0021252
Y0024402
Y0027551
X0029457Y00265
X0028Y003385
X002425Y0037
X002175Y004015
X002Y0043299
X001725Y0046449
X00205Y00515
X002425Y0049598
X0028Y0046449
Y00545
X0032606
X003775Y00535
X0042055Y0054305
X0048354Y0055
X0055Y006
X0063Y00565
Y005275
Y0049598
X0063051Y0046449
X0062951Y0043299
X007125Y0035
X007325Y005425
X0084673Y006
X008575Y0049
X003525Y005
X0032606Y0037
X00395Y003385
X0051504Y00265
X001775Y003385
X000925Y0030701
X0015Y0014756
T02
X009Y00075
X01
X011
X012
X013
X014
X015
X016
X017
X018
X019
X02
Y00175
Y00275
Y00375
Y00475
Y00575
Y00675
X018
X017
X015
X014
X013
X012
X011
X01
X009
X01285Y00525
Y00425
Y00325
Y00225
X01875Y00375
Y00475
X008Y00675
X007
X006
X005
X004
X003
X002
X0005
Y00575
Y00475
Y00375
Y00275
Y00175
X001Y00075
X002
X003
X004
X005
X006
X007
X008
M30
