%FSLAX25Y25*%
%MOIN*%
G70*
G01*
G75*
G04 Layer_Color=65535*
G04:AMPARAMS|DCode=10|XSize=110.24mil|YSize=43.31mil|CornerRadius=2.17mil|HoleSize=0mil|Usage=FLASHONLY|Rotation=0.000|XOffset=0mil|YOffset=0mil|HoleType=Round|Shape=RoundedRectangle|*
%AMROUNDEDRECTD10*
21,1,0.11024,0.03898,0,0,0.0*
21,1,0.10591,0.04331,0,0,0.0*
1,1,0.00433,0.05295,-0.01949*
1,1,0.00433,-0.05295,-0.01949*
1,1,0.00433,-0.05295,0.01949*
1,1,0.00433,0.05295,0.01949*
%
%ADD10ROUNDEDRECTD10*%
G04:AMPARAMS|DCode=11|XSize=19.69mil|YSize=23.62mil|CornerRadius=8.86mil|HoleSize=0mil|Usage=FLASHONLY|Rotation=270.000|XOffset=0mil|YOffset=0mil|HoleType=Round|Shape=RoundedRectangle|*
%AMROUNDEDRECTD11*
21,1,0.01969,0.00591,0,0,270.0*
21,1,0.00197,0.02362,0,0,270.0*
1,1,0.01772,-0.00295,-0.00098*
1,1,0.01772,-0.00295,0.00098*
1,1,0.01772,0.00295,0.00098*
1,1,0.01772,0.00295,-0.00098*
%
%ADD11ROUNDEDRECTD11*%
G04:AMPARAMS|DCode=12|XSize=110.24mil|YSize=43.31mil|CornerRadius=2.17mil|HoleSize=0mil|Usage=FLASHONLY|Rotation=270.000|XOffset=0mil|YOffset=0mil|HoleType=Round|Shape=RoundedRectangle|*
%AMROUNDEDRECTD12*
21,1,0.11024,0.03898,0,0,270.0*
21,1,0.10591,0.04331,0,0,270.0*
1,1,0.00433,-0.01949,-0.05295*
1,1,0.00433,-0.01949,0.05295*
1,1,0.00433,0.01949,0.05295*
1,1,0.00433,0.01949,-0.05295*
%
%ADD12ROUNDEDRECTD12*%
G04:AMPARAMS|DCode=13|XSize=19.69mil|YSize=23.62mil|CornerRadius=8.86mil|HoleSize=0mil|Usage=FLASHONLY|Rotation=180.000|XOffset=0mil|YOffset=0mil|HoleType=Round|Shape=RoundedRectangle|*
%AMROUNDEDRECTD13*
21,1,0.01969,0.00591,0,0,180.0*
21,1,0.00197,0.02362,0,0,180.0*
1,1,0.01772,-0.00098,0.00295*
1,1,0.01772,0.00098,0.00295*
1,1,0.01772,0.00098,-0.00295*
1,1,0.01772,-0.00098,-0.00295*
%
%ADD13ROUNDEDRECTD13*%
G04:AMPARAMS|DCode=14|XSize=23.62mil|YSize=35.43mil|CornerRadius=5.91mil|HoleSize=0mil|Usage=FLASHONLY|Rotation=90.000|XOffset=0mil|YOffset=0mil|HoleType=Round|Shape=RoundedRectangle|*
%AMROUNDEDRECTD14*
21,1,0.02362,0.02362,0,0,90.0*
21,1,0.01181,0.03543,0,0,90.0*
1,1,0.01181,0.01181,0.00591*
1,1,0.01181,0.01181,-0.00591*
1,1,0.01181,-0.01181,-0.00591*
1,1,0.01181,-0.01181,0.00591*
%
%ADD14ROUNDEDRECTD14*%
%ADD15O,0.02165X0.06890*%
%ADD16O,0.06890X0.02165*%
G04:AMPARAMS|DCode=17|XSize=41.73mil|YSize=25.59mil|CornerRadius=6.4mil|HoleSize=0mil|Usage=FLASHONLY|Rotation=0.000|XOffset=0mil|YOffset=0mil|HoleType=Round|Shape=RoundedRectangle|*
%AMROUNDEDRECTD17*
21,1,0.04173,0.01280,0,0,0.0*
21,1,0.02894,0.02559,0,0,0.0*
1,1,0.01280,0.01447,-0.00640*
1,1,0.01280,-0.01447,-0.00640*
1,1,0.01280,-0.01447,0.00640*
1,1,0.01280,0.01447,0.00640*
%
%ADD17ROUNDEDRECTD17*%
G04:AMPARAMS|DCode=18|XSize=52mil|YSize=24mil|CornerRadius=6mil|HoleSize=0mil|Usage=FLASHONLY|Rotation=0.000|XOffset=0mil|YOffset=0mil|HoleType=Round|Shape=RoundedRectangle|*
%AMROUNDEDRECTD18*
21,1,0.05200,0.01200,0,0,0.0*
21,1,0.04000,0.02400,0,0,0.0*
1,1,0.01200,0.02000,-0.00600*
1,1,0.01200,-0.02000,-0.00600*
1,1,0.01200,-0.02000,0.00600*
1,1,0.01200,0.02000,0.00600*
%
%ADD18ROUNDEDRECTD18*%
%ADD19R,0.05000X0.02400*%
G04:AMPARAMS|DCode=20|XSize=25.59mil|YSize=39.37mil|CornerRadius=6.4mil|HoleSize=0mil|Usage=FLASHONLY|Rotation=180.000|XOffset=0mil|YOffset=0mil|HoleType=Round|Shape=RoundedRectangle|*
%AMROUNDEDRECTD20*
21,1,0.02559,0.02658,0,0,180.0*
21,1,0.01280,0.03937,0,0,180.0*
1,1,0.01280,-0.00640,0.01329*
1,1,0.01280,0.00640,0.01329*
1,1,0.01280,0.00640,-0.01329*
1,1,0.01280,-0.00640,-0.01329*
%
%ADD20ROUNDEDRECTD20*%
G04:AMPARAMS|DCode=21|XSize=21.65mil|YSize=39.37mil|CornerRadius=5.41mil|HoleSize=0mil|Usage=FLASHONLY|Rotation=180.000|XOffset=0mil|YOffset=0mil|HoleType=Round|Shape=RoundedRectangle|*
%AMROUNDEDRECTD21*
21,1,0.02165,0.02854,0,0,180.0*
21,1,0.01083,0.03937,0,0,180.0*
1,1,0.01083,-0.00541,0.01427*
1,1,0.01083,0.00541,0.01427*
1,1,0.01083,0.00541,-0.01427*
1,1,0.01083,-0.00541,-0.01427*
%
%ADD21ROUNDEDRECTD21*%
%ADD22C,0.00591*%
%ADD23C,0.01181*%
%ADD24C,0.03937*%
G04:AMPARAMS|DCode=25|XSize=59.06mil|YSize=59.06mil|CornerRadius=8.86mil|HoleSize=0mil|Usage=FLASHONLY|Rotation=270.000|XOffset=0mil|YOffset=0mil|HoleType=Round|Shape=RoundedRectangle|*
%AMROUNDEDRECTD25*
21,1,0.05906,0.04134,0,0,270.0*
21,1,0.04134,0.05906,0,0,270.0*
1,1,0.01772,-0.02067,-0.02067*
1,1,0.01772,-0.02067,0.02067*
1,1,0.01772,0.02067,0.02067*
1,1,0.01772,0.02067,-0.02067*
%
%ADD25ROUNDEDRECTD25*%
%ADD26C,0.05906*%
%ADD27C,0.05906*%
%ADD28R,0.05906X0.05906*%
G04:AMPARAMS|DCode=29|XSize=59.06mil|YSize=59.06mil|CornerRadius=14.76mil|HoleSize=0mil|Usage=FLASHONLY|Rotation=270.000|XOffset=0mil|YOffset=0mil|HoleType=Round|Shape=RoundedRectangle|*
%AMROUNDEDRECTD29*
21,1,0.05906,0.02953,0,0,270.0*
21,1,0.02953,0.05906,0,0,270.0*
1,1,0.02953,-0.01476,-0.01476*
1,1,0.02953,-0.01476,0.01476*
1,1,0.02953,0.01476,0.01476*
1,1,0.02953,0.01476,-0.01476*
%
%ADD29ROUNDEDRECTD29*%
%ADD30C,0.01575*%
G04:AMPARAMS|DCode=31|XSize=31.5mil|YSize=31.5mil|CornerRadius=3.15mil|HoleSize=0mil|Usage=FLASHONLY|Rotation=0.000|XOffset=0mil|YOffset=0mil|HoleType=Round|Shape=RoundedRectangle|*
%AMROUNDEDRECTD31*
21,1,0.03150,0.02520,0,0,0.0*
21,1,0.02520,0.03150,0,0,0.0*
1,1,0.00630,0.01260,-0.01260*
1,1,0.00630,-0.01260,-0.01260*
1,1,0.00630,-0.01260,0.01260*
1,1,0.00630,0.01260,0.01260*
%
%ADD31ROUNDEDRECTD31*%
G04:AMPARAMS|DCode=32|XSize=23.62mil|YSize=35.43mil|CornerRadius=5.91mil|HoleSize=0mil|Usage=FLASHONLY|Rotation=180.000|XOffset=0mil|YOffset=0mil|HoleType=Round|Shape=RoundedRectangle|*
%AMROUNDEDRECTD32*
21,1,0.02362,0.02362,0,0,180.0*
21,1,0.01181,0.03543,0,0,180.0*
1,1,0.01181,-0.00591,0.01181*
1,1,0.01181,0.00591,0.01181*
1,1,0.01181,0.00591,-0.01181*
1,1,0.01181,-0.00591,-0.01181*
%
%ADD32ROUNDEDRECTD32*%
%ADD33O,0.01181X0.07087*%
%ADD34O,0.07087X0.01181*%
%ADD35C,0.00984*%
%ADD36C,0.02362*%
%ADD37C,0.00400*%
%ADD38C,0.00394*%
%ADD39C,0.00787*%
%ADD40C,0.00800*%
%ADD41C,0.00500*%
D22*
X95350Y50110D02*
X110311D01*
Y63890D01*
X95350D02*
X110311D01*
X95350Y50110D02*
Y63890D01*
D35*
X17252Y14756D02*
G03*
X17252Y14756I-492J0D01*
G01*
X94563Y65465D02*
G03*
X94563Y65465I-394J0D01*
G01*
D36*
X23748Y23811D02*
G03*
X23748Y23811I-1181J0D01*
G01*
D37*
X166598Y67858D02*
G03*
X166598Y67858I-200J0D01*
G01*
D38*
X195862Y26752D02*
G03*
X195862Y26752I-197J0D01*
G01*
X176500Y54537D02*
X179500D01*
X156537Y14000D02*
Y17000D01*
Y19000D02*
Y22000D01*
X137600Y9295D02*
X142400D01*
Y18794D01*
X137600D02*
X142400D01*
X137600Y9295D02*
Y18794D01*
X117600Y9295D02*
X122400D01*
Y18794D01*
X117600D02*
X122400D01*
X117600Y9295D02*
Y18794D01*
X127600Y9295D02*
X132400D01*
Y18794D01*
X127600D02*
X132400D01*
X127600Y9295D02*
Y18794D01*
X107600Y9295D02*
X112400D01*
Y18794D01*
X107600D02*
X112400D01*
X107600Y9295D02*
Y18794D01*
X97600Y9295D02*
X102400D01*
Y18794D01*
X97600D02*
X102400D01*
X97600Y9295D02*
Y18794D01*
X87600Y9295D02*
X92400D01*
Y18794D01*
X87600D02*
X92400D01*
X87600Y9295D02*
Y18794D01*
X77600Y9295D02*
X82400D01*
Y18794D01*
X77600D02*
X82400D01*
X77600Y9295D02*
Y18794D01*
X67600Y9295D02*
X72400D01*
Y18794D01*
X67600D02*
X72400D01*
X67600Y9295D02*
Y18794D01*
X43500Y6963D02*
X46500D01*
X66500Y34963D02*
X69500D01*
X77963Y19500D02*
Y22500D01*
X102500Y34963D02*
X105500D01*
X88100Y51794D02*
X92900D01*
X92900Y61295D01*
X88100D02*
X92900D01*
X88100D02*
X88100Y51794D01*
X111000Y57463D02*
X114000D01*
X116000Y57463D02*
X119000D01*
X148537Y59000D02*
Y62000D01*
X172037Y58500D02*
Y61500D01*
X174812Y28390D02*
X174484Y28718D01*
X173828D01*
X173500Y28390D01*
Y27078D01*
X173828Y26750D01*
X174484D01*
X174812Y27078D01*
X175468Y26750D02*
X176124D01*
X175796D01*
Y28718D01*
X175468Y28390D01*
X87110Y32312D02*
X86782Y31984D01*
Y31328D01*
X87110Y31000D01*
X88422D01*
X88750Y31328D01*
Y31984D01*
X88422Y32312D01*
X88750Y34280D02*
Y32968D01*
X87438Y34280D01*
X87110D01*
X86782Y33952D01*
Y33296D01*
X87110Y32968D01*
X44812Y3140D02*
X44484Y3468D01*
X43828D01*
X43500Y3140D01*
Y1828D01*
X43828Y1500D01*
X44484D01*
X44812Y1828D01*
X46452Y1500D02*
Y3468D01*
X45468Y2484D01*
X46780D01*
X116860Y51562D02*
X116532Y51234D01*
Y50578D01*
X116860Y50250D01*
X118172D01*
X118500Y50578D01*
Y51234D01*
X118172Y51562D01*
X116532Y52218D02*
Y53530D01*
X116860D01*
X118172Y52218D01*
X118500D01*
X111860Y51562D02*
X111532Y51234D01*
Y50578D01*
X111860Y50250D01*
X113172D01*
X113500Y50578D01*
Y51234D01*
X113172Y51562D01*
Y52218D02*
X113500Y52546D01*
Y53202D01*
X113172Y53530D01*
X111860D01*
X111532Y53202D01*
Y52546D01*
X111860Y52218D01*
X112188D01*
X112516Y52546D01*
Y53530D01*
X177562Y60390D02*
X177234Y60718D01*
X176578D01*
X176250Y60390D01*
Y59078D01*
X176578Y58750D01*
X177234D01*
X177562Y59078D01*
X178218Y58750D02*
X178874D01*
X178546D01*
Y60718D01*
X178218Y60390D01*
X179858D02*
X180186Y60718D01*
X180842D01*
X181170Y60390D01*
Y59078D01*
X180842Y58750D01*
X180186D01*
X179858Y59078D01*
Y60390D01*
X140562Y61640D02*
X140234Y61968D01*
X139578D01*
X139250Y61640D01*
Y60328D01*
X139578Y60000D01*
X140234D01*
X140562Y60328D01*
X141218Y60000D02*
X141874D01*
X141546D01*
Y61968D01*
X141218Y61640D01*
X144170Y60000D02*
X142858D01*
X144170Y61312D01*
Y61640D01*
X143842Y61968D01*
X143186D01*
X142858Y61640D01*
X67110Y40312D02*
X66782Y39984D01*
Y39328D01*
X67110Y39000D01*
X68422D01*
X68750Y39328D01*
Y39984D01*
X68422Y40312D01*
X68750Y40968D02*
Y41624D01*
Y41296D01*
X66782D01*
X67110Y40968D01*
X68750Y43592D02*
X66782D01*
X67766Y42608D01*
Y43920D01*
X148812Y21140D02*
X148484Y21468D01*
X147828D01*
X147500Y21140D01*
Y19828D01*
X147828Y19500D01*
X148484D01*
X148812Y19828D01*
X149468Y19500D02*
X150124D01*
X149796D01*
Y21468D01*
X149468Y21140D01*
X152420Y21468D02*
X151108D01*
Y20484D01*
X151764Y20812D01*
X152092D01*
X152420Y20484D01*
Y19828D01*
X152092Y19500D01*
X151436D01*
X151108Y19828D01*
X148907Y16295D02*
X148579Y16623D01*
X147923D01*
X147595Y16295D01*
Y14983D01*
X147923Y14655D01*
X148579D01*
X148907Y14983D01*
X149562Y14655D02*
X150218D01*
X149890D01*
Y16623D01*
X149562Y16295D01*
X152514Y16623D02*
X151858Y16295D01*
X151202Y15639D01*
Y14983D01*
X151530Y14655D01*
X152186D01*
X152514Y14983D01*
Y15311D01*
X152186Y15639D01*
X151202D01*
X103360Y40062D02*
X103032Y39734D01*
Y39078D01*
X103360Y38750D01*
X104672D01*
X105000Y39078D01*
Y39734D01*
X104672Y40062D01*
X105000Y40718D02*
Y41374D01*
Y41046D01*
X103032D01*
X103360Y40718D01*
X103032Y42358D02*
Y43670D01*
X103360D01*
X104672Y42358D01*
X105000D01*
X192812Y72890D02*
X192484Y73218D01*
X191828D01*
X191500Y72890D01*
Y71578D01*
X191828Y71250D01*
X192484D01*
X192812Y71578D01*
X193468Y71250D02*
X194124D01*
X193796D01*
Y73218D01*
X193468Y72890D01*
X195108D02*
X195436Y73218D01*
X196092D01*
X196420Y72890D01*
Y72562D01*
X196092Y72234D01*
X196420Y71906D01*
Y71578D01*
X196092Y71250D01*
X195436D01*
X195108Y71578D01*
Y71906D01*
X195436Y72234D01*
X195108Y72562D01*
Y72890D01*
X195436Y72234D02*
X196092D01*
X177360Y46812D02*
X177032Y46484D01*
Y45828D01*
X177360Y45500D01*
X178672D01*
X179000Y45828D01*
Y46484D01*
X178672Y46812D01*
X179000Y47468D02*
Y48124D01*
Y47796D01*
X177032D01*
X177360Y47468D01*
X178672Y49108D02*
X179000Y49436D01*
Y50092D01*
X178672Y50420D01*
X177360D01*
X177032Y50092D01*
Y49436D01*
X177360Y49108D01*
X177688D01*
X178016Y49436D01*
Y50420D01*
X83562Y21890D02*
X83234Y22218D01*
X82578D01*
X82250Y21890D01*
Y20578D01*
X82578Y20250D01*
X83234D01*
X83562Y20578D01*
X85530Y20250D02*
X84218D01*
X85530Y21562D01*
Y21890D01*
X85202Y22218D01*
X84546D01*
X84218Y21890D01*
X86186D02*
X86514Y22218D01*
X87170D01*
X87498Y21890D01*
Y20578D01*
X87170Y20250D01*
X86514D01*
X86186Y20578D01*
Y21890D01*
X158750Y71468D02*
Y69500D01*
X159734D01*
X160062Y69828D01*
Y71140D01*
X159734Y71468D01*
X158750D01*
X160718Y69500D02*
X161374D01*
X161046D01*
Y71468D01*
X160718Y71140D01*
X179532Y36562D02*
Y35906D01*
Y36234D01*
X181172D01*
X181500Y35906D01*
Y35578D01*
X181172Y35250D01*
X181500Y37218D02*
Y37874D01*
Y37546D01*
X179532D01*
X179860Y37218D01*
X11000Y69250D02*
Y71218D01*
X11984D01*
X12312Y70890D01*
Y70234D01*
X11984Y69906D01*
X11000D01*
X12968Y69250D02*
X13624D01*
X13296D01*
Y71218D01*
X12968Y70890D01*
X127000Y58500D02*
Y60468D01*
X127984D01*
X128312Y60140D01*
Y59484D01*
X127984Y59156D01*
X127000D01*
X130280Y58500D02*
X128968D01*
X130280Y59812D01*
Y60140D01*
X129952Y60468D01*
X129296D01*
X128968Y60140D01*
X207250Y64500D02*
X205282D01*
Y65484D01*
X205610Y65812D01*
X206266D01*
X206594Y65484D01*
Y64500D01*
X205610Y66468D02*
X205282Y66796D01*
Y67452D01*
X205610Y67780D01*
X205938D01*
X206266Y67452D01*
Y67124D01*
Y67452D01*
X206594Y67780D01*
X206922D01*
X207250Y67452D01*
Y66796D01*
X206922Y66468D01*
X66403Y12889D02*
X64435D01*
Y13873D01*
X64763Y14201D01*
X65419D01*
X65747Y13873D01*
Y12889D01*
Y13545D02*
X66403Y14201D01*
Y14857D02*
Y15513D01*
Y15185D01*
X64435D01*
X64763Y14857D01*
X76403Y12537D02*
X74435D01*
Y13521D01*
X74763Y13848D01*
X75419D01*
X75747Y13521D01*
Y12537D01*
Y13193D02*
X76403Y13848D01*
Y15816D02*
Y14504D01*
X75091Y15816D01*
X74763D01*
X74435Y15488D01*
Y14832D01*
X74763Y14504D01*
X86500Y12500D02*
X84532D01*
Y13484D01*
X84860Y13812D01*
X85516D01*
X85844Y13484D01*
Y12500D01*
Y13156D02*
X86500Y13812D01*
X84860Y14468D02*
X84532Y14796D01*
Y15452D01*
X84860Y15780D01*
X85188D01*
X85516Y15452D01*
Y15124D01*
Y15452D01*
X85844Y15780D01*
X86172D01*
X86500Y15452D01*
Y14796D01*
X86172Y14468D01*
X96500Y12750D02*
X94532D01*
Y13734D01*
X94860Y14062D01*
X95516D01*
X95844Y13734D01*
Y12750D01*
Y13406D02*
X96500Y14062D01*
Y15702D02*
X94532D01*
X95516Y14718D01*
Y16030D01*
X106250Y12500D02*
X104282D01*
Y13484D01*
X104610Y13812D01*
X105266D01*
X105594Y13484D01*
Y12500D01*
Y13156D02*
X106250Y13812D01*
X104282Y15780D02*
Y14468D01*
X105266D01*
X104938Y15124D01*
Y15452D01*
X105266Y15780D01*
X105922D01*
X106250Y15452D01*
Y14796D01*
X105922Y14468D01*
X116000Y12750D02*
X114032D01*
Y13734D01*
X114360Y14062D01*
X115016D01*
X115344Y13734D01*
Y12750D01*
Y13406D02*
X116000Y14062D01*
X114032Y16030D02*
X114360Y15374D01*
X115016Y14718D01*
X115672D01*
X116000Y15046D01*
Y15702D01*
X115672Y16030D01*
X115344D01*
X115016Y15702D01*
Y14718D01*
X126750Y12750D02*
X124782D01*
Y13734D01*
X125110Y14062D01*
X125766D01*
X126094Y13734D01*
Y12750D01*
Y13406D02*
X126750Y14062D01*
X124782Y14718D02*
Y16030D01*
X125110D01*
X126422Y14718D01*
X126750D01*
X136750Y12500D02*
X134782D01*
Y13484D01*
X135110Y13812D01*
X135766D01*
X136094Y13484D01*
Y12500D01*
Y13156D02*
X136750Y13812D01*
X135110Y14468D02*
X134782Y14796D01*
Y15452D01*
X135110Y15780D01*
X135438D01*
X135766Y15452D01*
X136094Y15780D01*
X136422D01*
X136750Y15452D01*
Y14796D01*
X136422Y14468D01*
X136094D01*
X135766Y14796D01*
X135438Y14468D01*
X135110D01*
X135766Y14796D02*
Y15452D01*
X87000Y54500D02*
X85032D01*
Y55484D01*
X85360Y55812D01*
X86016D01*
X86344Y55484D01*
Y54500D01*
Y55156D02*
X87000Y55812D01*
Y56468D02*
Y57124D01*
Y56796D01*
X85032D01*
X85360Y56468D01*
Y58108D02*
X85032Y58436D01*
Y59092D01*
X85360Y59420D01*
X85688D01*
X86016Y59092D01*
Y58764D01*
Y59092D01*
X86344Y59420D01*
X86672D01*
X87000Y59092D01*
Y58436D01*
X86672Y58108D01*
X57500Y60968D02*
Y59328D01*
X57828Y59000D01*
X58484D01*
X58812Y59328D01*
Y60968D01*
X59468Y59000D02*
X60124D01*
X59796D01*
Y60968D01*
X59468Y60640D01*
X3032Y6000D02*
X4672D01*
X5000Y6328D01*
Y6984D01*
X4672Y7312D01*
X3032D01*
Y9280D02*
Y7968D01*
X4016D01*
X3688Y8624D01*
Y8952D01*
X4016Y9280D01*
X4672D01*
X5000Y8952D01*
Y8296D01*
X4672Y7968D01*
X100750Y49218D02*
Y47578D01*
X101078Y47250D01*
X101734D01*
X102062Y47578D01*
Y49218D01*
X102718D02*
X104030D01*
Y48890D01*
X102718Y47578D01*
Y47250D01*
X186750Y30718D02*
Y29078D01*
X187078Y28750D01*
X187734D01*
X188062Y29078D01*
Y30718D01*
X188718Y30390D02*
X189046Y30718D01*
X189702D01*
X190030Y30390D01*
Y30062D01*
X189702Y29734D01*
X190030Y29406D01*
Y29078D01*
X189702Y28750D01*
X189046D01*
X188718Y29078D01*
Y29406D01*
X189046Y29734D01*
X188718Y30062D01*
Y30390D01*
X189046Y29734D02*
X189702D01*
X149750Y57218D02*
Y55578D01*
X150078Y55250D01*
X150734D01*
X151062Y55578D01*
Y57218D01*
X151718Y56890D02*
X152046Y57218D01*
X152702D01*
X153030Y56890D01*
Y56562D01*
X152702Y56234D01*
X152374D01*
X152702D01*
X153030Y55906D01*
Y55578D01*
X152702Y55250D01*
X152046D01*
X151718Y55578D01*
X189234Y72250D02*
Y70938D01*
X189890Y71594D02*
X188578D01*
X177500Y20516D02*
X176188D01*
X176844Y19860D02*
Y21172D01*
X80734Y42500D02*
Y41188D01*
X81390Y41844D02*
X80078D01*
D39*
X194724Y60425D02*
Y63575D01*
X185276Y60425D02*
Y63575D01*
X195000Y12500D02*
X205000D01*
X195000D02*
Y62500D01*
X205000Y12500D02*
Y62500D01*
X195000D02*
X205000D01*
X173020Y15276D02*
X176169Y15276D01*
X173020Y24724D02*
X176169D01*
X123500Y17500D02*
X133500D01*
X123500D02*
X123500Y57500D01*
X133500D02*
X133500Y17500D01*
X123500Y57500D02*
X133500D01*
X18630Y19874D02*
X52882D01*
X18630Y54126D02*
X52882D01*
X18630Y19874D02*
Y54126D01*
X52882Y19874D02*
Y54126D01*
X10000Y12500D02*
Y72500D01*
X0Y12500D02*
Y72500D01*
Y12500D02*
X10000D01*
X0Y72500D02*
X10000D01*
X85224Y31020D02*
X85224Y34169D01*
X75776Y31020D02*
Y34169D01*
X182500Y32300D02*
Y45000D01*
X192900Y32300D02*
Y52500D01*
X182500D02*
X192900D01*
X182500Y45000D02*
Y52500D01*
Y32300D02*
X192900D01*
D40*
X148600Y54500D02*
X167800D01*
X146600Y35500D02*
X167800D01*
Y54500D01*
X146600Y35500D02*
Y52500D01*
X148600Y54500D01*
D41*
X163937Y59984D02*
X165905D01*
X154095D02*
X156063D01*
X154095D02*
X154095Y65890D01*
X165905Y59984D02*
Y65890D01*
X183658Y25374D02*
X195862D01*
X183658Y18287D02*
X195862D01*
X183658D02*
Y25374D01*
X195862Y18287D02*
Y25374D01*
M02*
