%FSLAX25Y25*%
%MOIN*%
G70*
G01*
G75*
G04 Layer_Physical_Order=4*
G04 Layer_Color=16711680*
G04:AMPARAMS|DCode=10|XSize=110.24mil|YSize=43.31mil|CornerRadius=2.17mil|HoleSize=0mil|Usage=FLASHONLY|Rotation=0.000|XOffset=0mil|YOffset=0mil|HoleType=Round|Shape=RoundedRectangle|*
%AMROUNDEDRECTD10*
21,1,0.11024,0.03898,0,0,0.0*
21,1,0.10591,0.04331,0,0,0.0*
1,1,0.00433,0.05295,-0.01949*
1,1,0.00433,-0.05295,-0.01949*
1,1,0.00433,-0.05295,0.01949*
1,1,0.00433,0.05295,0.01949*
%
%ADD10ROUNDEDRECTD10*%
G04:AMPARAMS|DCode=11|XSize=19.69mil|YSize=23.62mil|CornerRadius=8.86mil|HoleSize=0mil|Usage=FLASHONLY|Rotation=270.000|XOffset=0mil|YOffset=0mil|HoleType=Round|Shape=RoundedRectangle|*
%AMROUNDEDRECTD11*
21,1,0.01969,0.00591,0,0,270.0*
21,1,0.00197,0.02362,0,0,270.0*
1,1,0.01772,-0.00295,-0.00098*
1,1,0.01772,-0.00295,0.00098*
1,1,0.01772,0.00295,0.00098*
1,1,0.01772,0.00295,-0.00098*
%
%ADD11ROUNDEDRECTD11*%
G04:AMPARAMS|DCode=12|XSize=110.24mil|YSize=43.31mil|CornerRadius=2.17mil|HoleSize=0mil|Usage=FLASHONLY|Rotation=270.000|XOffset=0mil|YOffset=0mil|HoleType=Round|Shape=RoundedRectangle|*
%AMROUNDEDRECTD12*
21,1,0.11024,0.03898,0,0,270.0*
21,1,0.10591,0.04331,0,0,270.0*
1,1,0.00433,-0.01949,-0.05295*
1,1,0.00433,-0.01949,0.05295*
1,1,0.00433,0.01949,0.05295*
1,1,0.00433,0.01949,-0.05295*
%
%ADD12ROUNDEDRECTD12*%
G04:AMPARAMS|DCode=13|XSize=19.69mil|YSize=23.62mil|CornerRadius=8.86mil|HoleSize=0mil|Usage=FLASHONLY|Rotation=180.000|XOffset=0mil|YOffset=0mil|HoleType=Round|Shape=RoundedRectangle|*
%AMROUNDEDRECTD13*
21,1,0.01969,0.00591,0,0,180.0*
21,1,0.00197,0.02362,0,0,180.0*
1,1,0.01772,-0.00098,0.00295*
1,1,0.01772,0.00098,0.00295*
1,1,0.01772,0.00098,-0.00295*
1,1,0.01772,-0.00098,-0.00295*
%
%ADD13ROUNDEDRECTD13*%
G04:AMPARAMS|DCode=14|XSize=23.62mil|YSize=35.43mil|CornerRadius=5.91mil|HoleSize=0mil|Usage=FLASHONLY|Rotation=90.000|XOffset=0mil|YOffset=0mil|HoleType=Round|Shape=RoundedRectangle|*
%AMROUNDEDRECTD14*
21,1,0.02362,0.02362,0,0,90.0*
21,1,0.01181,0.03543,0,0,90.0*
1,1,0.01181,0.01181,0.00591*
1,1,0.01181,0.01181,-0.00591*
1,1,0.01181,-0.01181,-0.00591*
1,1,0.01181,-0.01181,0.00591*
%
%ADD14ROUNDEDRECTD14*%
%ADD15O,0.02165X0.06890*%
%ADD16O,0.06890X0.02165*%
G04:AMPARAMS|DCode=17|XSize=41.73mil|YSize=25.59mil|CornerRadius=6.4mil|HoleSize=0mil|Usage=FLASHONLY|Rotation=0.000|XOffset=0mil|YOffset=0mil|HoleType=Round|Shape=RoundedRectangle|*
%AMROUNDEDRECTD17*
21,1,0.04173,0.01280,0,0,0.0*
21,1,0.02894,0.02559,0,0,0.0*
1,1,0.01280,0.01447,-0.00640*
1,1,0.01280,-0.01447,-0.00640*
1,1,0.01280,-0.01447,0.00640*
1,1,0.01280,0.01447,0.00640*
%
%ADD17ROUNDEDRECTD17*%
G04:AMPARAMS|DCode=18|XSize=52mil|YSize=24mil|CornerRadius=6mil|HoleSize=0mil|Usage=FLASHONLY|Rotation=0.000|XOffset=0mil|YOffset=0mil|HoleType=Round|Shape=RoundedRectangle|*
%AMROUNDEDRECTD18*
21,1,0.05200,0.01200,0,0,0.0*
21,1,0.04000,0.02400,0,0,0.0*
1,1,0.01200,0.02000,-0.00600*
1,1,0.01200,-0.02000,-0.00600*
1,1,0.01200,-0.02000,0.00600*
1,1,0.01200,0.02000,0.00600*
%
%ADD18ROUNDEDRECTD18*%
%ADD19R,0.05000X0.02400*%
G04:AMPARAMS|DCode=20|XSize=25.59mil|YSize=39.37mil|CornerRadius=6.4mil|HoleSize=0mil|Usage=FLASHONLY|Rotation=180.000|XOffset=0mil|YOffset=0mil|HoleType=Round|Shape=RoundedRectangle|*
%AMROUNDEDRECTD20*
21,1,0.02559,0.02658,0,0,180.0*
21,1,0.01280,0.03937,0,0,180.0*
1,1,0.01280,-0.00640,0.01329*
1,1,0.01280,0.00640,0.01329*
1,1,0.01280,0.00640,-0.01329*
1,1,0.01280,-0.00640,-0.01329*
%
%ADD20ROUNDEDRECTD20*%
G04:AMPARAMS|DCode=21|XSize=21.65mil|YSize=39.37mil|CornerRadius=5.41mil|HoleSize=0mil|Usage=FLASHONLY|Rotation=180.000|XOffset=0mil|YOffset=0mil|HoleType=Round|Shape=RoundedRectangle|*
%AMROUNDEDRECTD21*
21,1,0.02165,0.02854,0,0,180.0*
21,1,0.01083,0.03937,0,0,180.0*
1,1,0.01083,-0.00541,0.01427*
1,1,0.01083,0.00541,0.01427*
1,1,0.01083,0.00541,-0.01427*
1,1,0.01083,-0.00541,-0.01427*
%
%ADD21ROUNDEDRECTD21*%
%ADD22C,0.00591*%
%ADD23C,0.01181*%
%ADD24C,0.03937*%
G04:AMPARAMS|DCode=25|XSize=59.06mil|YSize=59.06mil|CornerRadius=8.86mil|HoleSize=0mil|Usage=FLASHONLY|Rotation=270.000|XOffset=0mil|YOffset=0mil|HoleType=Round|Shape=RoundedRectangle|*
%AMROUNDEDRECTD25*
21,1,0.05906,0.04134,0,0,270.0*
21,1,0.04134,0.05906,0,0,270.0*
1,1,0.01772,-0.02067,-0.02067*
1,1,0.01772,-0.02067,0.02067*
1,1,0.01772,0.02067,0.02067*
1,1,0.01772,0.02067,-0.02067*
%
%ADD25ROUNDEDRECTD25*%
%ADD26C,0.05906*%
%ADD27C,0.05906*%
%ADD28R,0.05906X0.05906*%
G04:AMPARAMS|DCode=29|XSize=59.06mil|YSize=59.06mil|CornerRadius=14.76mil|HoleSize=0mil|Usage=FLASHONLY|Rotation=270.000|XOffset=0mil|YOffset=0mil|HoleType=Round|Shape=RoundedRectangle|*
%AMROUNDEDRECTD29*
21,1,0.05906,0.02953,0,0,270.0*
21,1,0.02953,0.05906,0,0,270.0*
1,1,0.02953,-0.01476,-0.01476*
1,1,0.02953,-0.01476,0.01476*
1,1,0.02953,0.01476,0.01476*
1,1,0.02953,0.01476,-0.01476*
%
%ADD29ROUNDEDRECTD29*%
%ADD30C,0.01575*%
G04:AMPARAMS|DCode=31|XSize=31.5mil|YSize=31.5mil|CornerRadius=3.15mil|HoleSize=0mil|Usage=FLASHONLY|Rotation=0.000|XOffset=0mil|YOffset=0mil|HoleType=Round|Shape=RoundedRectangle|*
%AMROUNDEDRECTD31*
21,1,0.03150,0.02520,0,0,0.0*
21,1,0.02520,0.03150,0,0,0.0*
1,1,0.00630,0.01260,-0.01260*
1,1,0.00630,-0.01260,-0.01260*
1,1,0.00630,-0.01260,0.01260*
1,1,0.00630,0.01260,0.01260*
%
%ADD31ROUNDEDRECTD31*%
G04:AMPARAMS|DCode=32|XSize=23.62mil|YSize=35.43mil|CornerRadius=5.91mil|HoleSize=0mil|Usage=FLASHONLY|Rotation=180.000|XOffset=0mil|YOffset=0mil|HoleType=Round|Shape=RoundedRectangle|*
%AMROUNDEDRECTD32*
21,1,0.02362,0.02362,0,0,180.0*
21,1,0.01181,0.03543,0,0,180.0*
1,1,0.01181,-0.00591,0.01181*
1,1,0.01181,0.00591,0.01181*
1,1,0.01181,0.00591,-0.01181*
1,1,0.01181,-0.00591,-0.01181*
%
%ADD32ROUNDEDRECTD32*%
%ADD33O,0.01181X0.07087*%
%ADD34O,0.07087X0.01181*%
G36*
X208661Y0D02*
X0D01*
Y74803D01*
X208661D01*
Y0D01*
D02*
G37*
%LPC*%
G36*
X184102Y30183D02*
X183335D01*
X182981Y30113D01*
X182682Y29913D01*
X182482Y29613D01*
X182411Y29260D01*
Y28492D01*
X184102D01*
Y30183D01*
D02*
G37*
G36*
X186778Y27508D02*
X185087D01*
Y25817D01*
X185854D01*
X186208Y25887D01*
X186507Y26087D01*
X186707Y26387D01*
X186778Y26740D01*
Y27508D01*
D02*
G37*
G36*
X185854Y30183D02*
X185087D01*
Y28492D01*
X186778D01*
Y29260D01*
X186707Y29613D01*
X186507Y29913D01*
X186208Y30113D01*
X185854Y30183D01*
D02*
G37*
G36*
X2472Y32008D02*
X1400D01*
X1475Y31629D01*
X1802Y31140D01*
X2290Y30814D01*
X2472Y30778D01*
Y32008D01*
D02*
G37*
G36*
X5000Y41074D02*
X4075Y40952D01*
X3213Y40595D01*
X2473Y40027D01*
X1905Y39287D01*
X1548Y38425D01*
X1426Y37500D01*
X1548Y36575D01*
X1905Y35713D01*
X2473Y34973D01*
X2769Y34746D01*
X2656Y34259D01*
X2866Y34301D01*
X3063D01*
X3457Y34222D01*
Y32499D01*
Y30777D01*
X3063Y30699D01*
X2866D01*
X2656Y30741D01*
X2769Y30254D01*
X2473Y30027D01*
X1905Y29287D01*
X1548Y28425D01*
X1426Y27500D01*
X1548Y26575D01*
X1905Y25713D01*
X2473Y24973D01*
X3213Y24405D01*
X4075Y24048D01*
X5000Y23926D01*
X5925Y24048D01*
X6787Y24405D01*
X7527Y24973D01*
X7572Y25032D01*
X8046Y24871D01*
Y22249D01*
X6869Y21072D01*
X2933D01*
X2357Y20958D01*
X1869Y20631D01*
X1542Y20143D01*
X1428Y19567D01*
Y15433D01*
X1542Y14857D01*
X1869Y14369D01*
X2357Y14042D01*
X2933Y13928D01*
X7067D01*
X7643Y14042D01*
X8131Y14369D01*
X8458Y14857D01*
X8572Y15433D01*
Y19369D01*
X10102Y20898D01*
X10102Y20898D01*
X10363Y21289D01*
X10454Y21750D01*
X10454Y21750D01*
Y30023D01*
X10548Y30163D01*
X10655Y30701D01*
X10548Y31238D01*
X10243Y31694D01*
X9788Y31999D01*
X9622Y32032D01*
X8540Y33113D01*
X8489Y33371D01*
X8163Y33860D01*
X7675Y34186D01*
X7337Y34253D01*
X7224Y34740D01*
X7527Y34973D01*
X8095Y35713D01*
X8452Y36575D01*
X8574Y37500D01*
X8452Y38425D01*
X8095Y39287D01*
X7527Y40027D01*
X6787Y40595D01*
X5925Y40952D01*
X5000Y41074D01*
D02*
G37*
G36*
X189268Y23057D02*
X189222Y23048D01*
X188766Y22743D01*
X188462Y22288D01*
X188453Y22242D01*
X189268D01*
Y23057D01*
D02*
G37*
G36*
X188426Y21389D02*
X188140Y21198D01*
X187814Y20710D01*
X187778Y20527D01*
X191222D01*
X191186Y20710D01*
X190954Y21057D01*
X191058Y21212D01*
X191067Y21258D01*
X188453D01*
X188426Y21389D01*
D02*
G37*
G36*
X190252Y23057D02*
Y22242D01*
X191067D01*
X191058Y22288D01*
X190753Y22743D01*
X190297Y23048D01*
X190252Y23057D01*
D02*
G37*
G36*
X184102Y27508D02*
X182411D01*
Y26740D01*
X182482Y26387D01*
X182682Y26087D01*
X182981Y25887D01*
X183335Y25817D01*
X184102D01*
Y27508D01*
D02*
G37*
G36*
X200000Y31074D02*
X199075Y30952D01*
X198213Y30595D01*
X197473Y30027D01*
X196905Y29287D01*
X196548Y28425D01*
X196426Y27500D01*
X196548Y26575D01*
X196905Y25713D01*
X197473Y24973D01*
X198213Y24405D01*
X199075Y24048D01*
X200000Y23926D01*
X200925Y24048D01*
X201787Y24405D01*
X202527Y24973D01*
X203095Y25713D01*
X203452Y26575D01*
X203574Y27500D01*
X203452Y28425D01*
X203095Y29287D01*
X202527Y30027D01*
X201787Y30595D01*
X200925Y30952D01*
X200000Y31074D01*
D02*
G37*
G36*
X27508Y33358D02*
X26693D01*
X26702Y33313D01*
X27007Y32857D01*
X27462Y32552D01*
X27508Y32543D01*
Y33358D01*
D02*
G37*
G36*
X27909Y39008D02*
X26837D01*
X26912Y38629D01*
X27239Y38140D01*
X27727Y37814D01*
X27909Y37778D01*
Y39008D01*
D02*
G37*
G36*
X39992Y35157D02*
Y34343D01*
X40807D01*
X40798Y34388D01*
X40494Y34844D01*
X40038Y35148D01*
X39992Y35157D01*
D02*
G37*
G36*
X29966Y39008D02*
X28894D01*
Y37778D01*
X29076Y37814D01*
X29564Y38140D01*
X29891Y38629D01*
X29966Y39008D01*
D02*
G37*
G36*
X27909Y41222D02*
X27727Y41186D01*
X27239Y40860D01*
X26912Y40371D01*
X26837Y39992D01*
X27909D01*
Y41222D01*
D02*
G37*
G36*
X180496Y39885D02*
X180398D01*
Y37992D01*
X181700D01*
Y38681D01*
X181609Y39142D01*
X181348Y39533D01*
X180957Y39794D01*
X180496Y39885D01*
D02*
G37*
G36*
X2472Y34222D02*
X2290Y34186D01*
X1802Y33860D01*
X1475Y33371D01*
X1400Y32992D01*
X2472D01*
Y34222D01*
D02*
G37*
G36*
X29307Y33358D02*
X28492D01*
Y32543D01*
X28538Y32552D01*
X28993Y32857D01*
X29298Y33313D01*
X29307Y33358D01*
D02*
G37*
G36*
X200000Y41074D02*
X199075Y40952D01*
X198213Y40595D01*
X197473Y40027D01*
X196905Y39287D01*
X196548Y38425D01*
X196426Y37500D01*
X196548Y36575D01*
X196905Y35713D01*
X197473Y34973D01*
X198213Y34405D01*
X199075Y34048D01*
X200000Y33926D01*
X200925Y34048D01*
X201787Y34405D01*
X202527Y34973D01*
X203095Y35713D01*
X203452Y36575D01*
X203574Y37500D01*
X203452Y38425D01*
X203095Y39287D01*
X202527Y40027D01*
X201787Y40595D01*
X200925Y40952D01*
X200000Y41074D01*
D02*
G37*
G36*
X28492Y35157D02*
Y34343D01*
X29307D01*
X29298Y34388D01*
X28993Y34844D01*
X28538Y35148D01*
X28492Y35157D01*
D02*
G37*
G36*
X27508D02*
X27462Y35148D01*
X27007Y34844D01*
X26702Y34388D01*
X26693Y34343D01*
X27508D01*
Y35157D01*
D02*
G37*
G36*
X200984Y20928D02*
Y18484D01*
X203428D01*
X203095Y19287D01*
X202527Y20027D01*
X201787Y20595D01*
X200984Y20928D01*
D02*
G37*
G36*
X130000Y11074D02*
X129075Y10952D01*
X128213Y10595D01*
X127473Y10027D01*
X126905Y9287D01*
X126548Y8425D01*
X126426Y7500D01*
X126548Y6575D01*
X126905Y5713D01*
X127473Y4973D01*
X128213Y4405D01*
X129075Y4048D01*
X130000Y3926D01*
X130925Y4048D01*
X131787Y4405D01*
X132527Y4973D01*
X133095Y5713D01*
X133452Y6575D01*
X133574Y7500D01*
X133452Y8425D01*
X133095Y9287D01*
X132527Y10027D01*
X131787Y10595D01*
X130925Y10952D01*
X130000Y11074D01*
D02*
G37*
G36*
X45492Y4307D02*
Y3492D01*
X46307D01*
X46298Y3538D01*
X45994Y3993D01*
X45538Y4298D01*
X45492Y4307D01*
D02*
G37*
G36*
X140000Y11074D02*
X139075Y10952D01*
X138213Y10595D01*
X137473Y10027D01*
X136905Y9287D01*
X136548Y8425D01*
X136426Y7500D01*
X136548Y6575D01*
X136905Y5713D01*
X137473Y4973D01*
X138213Y4405D01*
X139075Y4048D01*
X140000Y3926D01*
X140925Y4048D01*
X141787Y4405D01*
X142527Y4973D01*
X143095Y5713D01*
X143452Y6575D01*
X143574Y7500D01*
X143452Y8425D01*
X143095Y9287D01*
X142527Y10027D01*
X141787Y10595D01*
X140925Y10952D01*
X140000Y11074D01*
D02*
G37*
G36*
X143508Y4807D02*
X143462Y4798D01*
X143007Y4493D01*
X142702Y4038D01*
X142693Y3992D01*
X143508D01*
Y4807D01*
D02*
G37*
G36*
X13543Y11043D02*
X6457D01*
Y3957D01*
X13543D01*
Y11043D01*
D02*
G37*
G36*
X46307Y2508D02*
X45492D01*
Y1693D01*
X45538Y1702D01*
X45994Y2007D01*
X46298Y2462D01*
X46307Y2508D01*
D02*
G37*
G36*
X44508D02*
X43693D01*
X43702Y2462D01*
X44006Y2007D01*
X44462Y1702D01*
X44508Y1693D01*
Y2508D01*
D02*
G37*
G36*
X143508Y3008D02*
X142693D01*
X142702Y2962D01*
X143007Y2507D01*
X143462Y2202D01*
X143508Y2193D01*
Y3008D01*
D02*
G37*
G36*
X44508Y4307D02*
X44462Y4298D01*
X44006Y3993D01*
X43702Y3538D01*
X43693Y3492D01*
X44508D01*
Y4307D01*
D02*
G37*
G36*
X145307Y3008D02*
X144492D01*
Y2193D01*
X144538Y2202D01*
X144993Y2507D01*
X145298Y2962D01*
X145307Y3008D01*
D02*
G37*
G36*
X144492Y4807D02*
Y3992D01*
X145307D01*
X145298Y4038D01*
X144993Y4493D01*
X144538Y4798D01*
X144492Y4807D01*
D02*
G37*
G36*
X203428Y16516D02*
X200984D01*
Y14073D01*
X201787Y14405D01*
X202527Y14973D01*
X203095Y15713D01*
X203428Y16516D01*
D02*
G37*
G36*
X199016D02*
X196572D01*
X196905Y15713D01*
X197473Y14973D01*
X198213Y14405D01*
X199016Y14073D01*
Y16516D01*
D02*
G37*
G36*
X189008Y19543D02*
X187778D01*
X187814Y19361D01*
X188140Y18873D01*
X188629Y18546D01*
X189008Y18471D01*
Y19543D01*
D02*
G37*
G36*
X199016Y20928D02*
X198213Y20595D01*
X197473Y20027D01*
X196905Y19287D01*
X196572Y18484D01*
X199016D01*
Y20928D01*
D02*
G37*
G36*
X191222Y19543D02*
X189992D01*
Y18471D01*
X190371Y18546D01*
X190860Y18873D01*
X191186Y19361D01*
X191222Y19543D01*
D02*
G37*
G36*
X203428Y6516D02*
X200984D01*
Y4073D01*
X201787Y4405D01*
X202527Y4973D01*
X203095Y5713D01*
X203428Y6516D01*
D02*
G37*
G36*
X199016D02*
X196572D01*
X196905Y5713D01*
X197473Y4973D01*
X198213Y4405D01*
X199016Y4073D01*
Y6516D01*
D02*
G37*
G36*
Y10927D02*
X198213Y10595D01*
X197473Y10027D01*
X196905Y9287D01*
X196572Y8484D01*
X199016D01*
Y10927D01*
D02*
G37*
G36*
X189795Y17604D02*
X189205D01*
X188629Y17489D01*
X188140Y17163D01*
X187814Y16675D01*
X187699Y16098D01*
Y15902D01*
X187814Y15326D01*
X188140Y14837D01*
X188296Y14733D01*
X188296Y14733D01*
X188202Y14538D01*
X188202Y14538D01*
X188202Y14538D01*
X188095Y14000D01*
X188202Y13462D01*
X188506Y13006D01*
X188962Y12702D01*
X189500Y12595D01*
X190038Y12702D01*
X190494Y13006D01*
X190798Y13462D01*
X190905Y14000D01*
X190798Y14538D01*
X190704Y14678D01*
Y14733D01*
X190860Y14837D01*
X191186Y15326D01*
X191301Y15902D01*
Y16098D01*
X191186Y16675D01*
X190860Y17163D01*
X190371Y17489D01*
X189795Y17604D01*
D02*
G37*
G36*
X200984Y10927D02*
Y8484D01*
X203428D01*
X203095Y9287D01*
X202527Y10027D01*
X201787Y10595D01*
X200984Y10927D01*
D02*
G37*
G36*
X28894Y41222D02*
Y39992D01*
X29966D01*
X29891Y40371D01*
X29564Y40860D01*
X29076Y41186D01*
X28894Y41222D01*
D02*
G37*
G36*
X49661Y54508D02*
X48846D01*
Y53693D01*
X48892Y53702D01*
X49348Y54007D01*
X49652Y54462D01*
X49661Y54508D01*
D02*
G37*
G36*
X47862D02*
X47047D01*
X47056Y54462D01*
X47361Y54007D01*
X47817Y53702D01*
X47862Y53693D01*
Y54508D01*
D02*
G37*
G36*
X202067Y61072D02*
X197933D01*
X197357Y60958D01*
X196869Y60631D01*
X196542Y60143D01*
X196428Y59567D01*
Y55433D01*
X196542Y54857D01*
X196869Y54369D01*
X197357Y54042D01*
X197933Y53928D01*
X202067D01*
X202643Y54042D01*
X203131Y54369D01*
X203458Y54857D01*
X203572Y55433D01*
Y59567D01*
X203458Y60143D01*
X203131Y60631D01*
X202643Y60958D01*
X202067Y61072D01*
D02*
G37*
G36*
X193992Y54807D02*
Y53992D01*
X194807D01*
X194798Y54038D01*
X194493Y54493D01*
X194038Y54798D01*
X193992Y54807D01*
D02*
G37*
G36*
X193008D02*
X192962Y54798D01*
X192507Y54493D01*
X192202Y54038D01*
X192193Y53992D01*
X193008D01*
Y54807D01*
D02*
G37*
G36*
Y53008D02*
X192193D01*
X192202Y52962D01*
X192507Y52507D01*
X192962Y52202D01*
X193008Y52193D01*
Y53008D01*
D02*
G37*
G36*
X28894Y50722D02*
Y49492D01*
X29966D01*
X29891Y49871D01*
X29564Y50360D01*
X29076Y50686D01*
X28894Y50722D01*
D02*
G37*
G36*
X194807Y53008D02*
X193992D01*
Y52193D01*
X194038Y52202D01*
X194493Y52507D01*
X194798Y52962D01*
X194807Y53008D01*
D02*
G37*
G36*
X29307Y54008D02*
X28492D01*
Y53193D01*
X28538Y53202D01*
X28993Y53507D01*
X29298Y53962D01*
X29307Y54008D01*
D02*
G37*
G36*
X27508D02*
X26693D01*
X26702Y53962D01*
X27007Y53507D01*
X27462Y53202D01*
X27508Y53193D01*
Y54008D01*
D02*
G37*
G36*
X4016Y66516D02*
X1572D01*
X1905Y65713D01*
X2473Y64973D01*
X3213Y64405D01*
X4016Y64073D01*
Y66516D01*
D02*
G37*
G36*
X15750Y72403D02*
X15462Y72346D01*
X15404Y72334D01*
X15111Y72139D01*
X13861Y70889D01*
X13666Y70596D01*
X13597Y70250D01*
Y65500D01*
X13597Y65500D01*
X13597D01*
X13666Y65154D01*
X13861Y64861D01*
X19597Y59126D01*
Y52554D01*
X19507Y52493D01*
X19202Y52038D01*
X19095Y51500D01*
X19202Y50962D01*
X19507Y50507D01*
X19962Y50202D01*
X20500Y50095D01*
X21038Y50202D01*
X21494Y50507D01*
X21798Y50962D01*
X21905Y51500D01*
X21798Y52038D01*
X21494Y52493D01*
X21403Y52554D01*
Y59500D01*
X21334Y59846D01*
X21139Y60139D01*
X15403Y65874D01*
Y69876D01*
X16124Y70597D01*
X17438D01*
X17598Y70123D01*
X17473Y70027D01*
X16905Y69287D01*
X16548Y68425D01*
X16426Y67500D01*
X16548Y66575D01*
X16905Y65713D01*
X17473Y64973D01*
X18213Y64405D01*
X19075Y64048D01*
X20000Y63926D01*
X20925Y64048D01*
X21787Y64405D01*
X22527Y64973D01*
X23095Y65713D01*
X23452Y66575D01*
X23574Y67500D01*
X23452Y68425D01*
X23095Y69287D01*
X22527Y70027D01*
X21787Y70595D01*
D01*
X21787D01*
X21787Y70597D01*
X27438D01*
X27598Y70123D01*
X27473Y70027D01*
X26905Y69287D01*
X26548Y68425D01*
X26426Y67500D01*
X26548Y66575D01*
X26905Y65713D01*
X26918Y65696D01*
X23611Y62389D01*
X23416Y62096D01*
X23347Y61750D01*
Y50652D01*
X23257Y50592D01*
X22952Y50136D01*
X22845Y49598D01*
X22952Y49061D01*
X23257Y48605D01*
X23712Y48300D01*
X24250Y48193D01*
X24788Y48300D01*
X25243Y48605D01*
X25548Y49061D01*
X25655Y49598D01*
X25548Y50136D01*
X25243Y50592D01*
X25153Y50652D01*
Y61376D01*
X28196Y64418D01*
X28213Y64405D01*
X29075Y64048D01*
X30000Y63926D01*
X30925Y64048D01*
X31787Y64405D01*
X32527Y64973D01*
X33095Y65713D01*
X33452Y66575D01*
X33574Y67500D01*
X33452Y68425D01*
X33095Y69287D01*
X32527Y70027D01*
X31787Y70595D01*
D01*
X31787D01*
X31787Y70597D01*
X37438D01*
X37598Y70123D01*
X37473Y70027D01*
X36905Y69287D01*
X36548Y68425D01*
X36426Y67500D01*
X36548Y66575D01*
X36905Y65713D01*
X37473Y64973D01*
X38213Y64405D01*
X39075Y64048D01*
X40000Y63926D01*
X40925Y64048D01*
X41787Y64405D01*
X41804Y64418D01*
X46861Y59361D01*
X47154Y59166D01*
X47500Y59097D01*
X53946D01*
X54007Y59007D01*
X54462Y58702D01*
X55000Y58595D01*
X55538Y58702D01*
X55993Y59007D01*
X56298Y59462D01*
X56405Y60000D01*
X56298Y60538D01*
X55993Y60993D01*
X55538Y61298D01*
X55538Y61298D01*
X55538D01*
Y61298D01*
X55542Y61347D01*
X61876D01*
X74535Y48688D01*
X74535D01*
X74535Y48688D01*
X74535D01*
X74535Y48688D01*
Y48688D01*
X74535Y48688D01*
Y48688D01*
X74828Y48492D01*
X75173Y48424D01*
X75363D01*
X75599Y47983D01*
X75490Y47819D01*
X75398Y47358D01*
X75490Y46897D01*
X75599Y46734D01*
X75363Y46293D01*
X74484D01*
X64384Y56393D01*
X64405Y56500D01*
X64298Y57038D01*
X63993Y57493D01*
X63538Y57798D01*
X63000Y57905D01*
X62462Y57798D01*
X62007Y57493D01*
X61702Y57038D01*
X61595Y56500D01*
X61702Y55962D01*
X62007Y55507D01*
X62462Y55202D01*
X63000Y55095D01*
X63107Y55116D01*
X63724Y54499D01*
X63488Y54058D01*
X63000Y54155D01*
X62462Y54048D01*
X62007Y53743D01*
X61702Y53288D01*
X61595Y52750D01*
X61702Y52212D01*
X62007Y51757D01*
X62462Y51452D01*
X62602Y51424D01*
Y50924D01*
X62462Y50896D01*
X62007Y50592D01*
X61702Y50136D01*
X61595Y49598D01*
X61702Y49061D01*
X62007Y48605D01*
X62462Y48300D01*
X62623Y48268D01*
Y47769D01*
X62514Y47747D01*
X62058Y47442D01*
X61753Y46986D01*
X61646Y46449D01*
X61753Y45911D01*
X62058Y45455D01*
X62514Y45151D01*
X62598Y45134D01*
Y44634D01*
X62413Y44597D01*
X61957Y44293D01*
X61653Y43837D01*
X61546Y43299D01*
X61653Y42762D01*
X61957Y42306D01*
X62413Y42001D01*
X62951Y41894D01*
X63057Y41916D01*
X68096Y36877D01*
X68096Y36877D01*
X68389Y36681D01*
X68446Y36670D01*
X68734Y36613D01*
X68734Y36613D01*
X70322D01*
X70415Y36305D01*
X70117Y35903D01*
X45250D01*
X44904Y35834D01*
X44611Y35639D01*
X41876Y32903D01*
X41017D01*
X40798Y33313D01*
X40807Y33358D01*
X39499D01*
Y33849D01*
X39008D01*
Y35158D01*
X39039Y35164D01*
X38653Y35481D01*
Y52446D01*
X38743Y52507D01*
X39048Y52962D01*
X39155Y53500D01*
X39048Y54038D01*
X38959Y54170D01*
X39237Y54586D01*
X40650Y54305D01*
X40757Y53768D01*
X41062Y53312D01*
X41517Y53007D01*
X42055Y52900D01*
X42593Y53007D01*
X43049Y53312D01*
X43353Y53768D01*
X43460Y54305D01*
X43353Y54843D01*
X43049Y55299D01*
X42593Y55603D01*
X42055Y55710D01*
X41949Y55689D01*
X41499Y56139D01*
X41206Y56334D01*
X40860Y56403D01*
X36000D01*
X35654Y56334D01*
X35361Y56139D01*
X34611Y55389D01*
X34416Y55096D01*
X34347Y54750D01*
D01*
X33904Y55038D01*
X33600Y55493D01*
X33144Y55798D01*
X32606Y55905D01*
X32069Y55798D01*
X31613Y55493D01*
X31308Y55038D01*
X31201Y54500D01*
X31308Y53962D01*
X31402Y53822D01*
Y50445D01*
X31274Y50360D01*
X30948Y49871D01*
X30833Y49295D01*
Y48705D01*
X30948Y48129D01*
X31274Y47640D01*
X31402Y47555D01*
Y45445D01*
X31274Y45360D01*
X30948Y44871D01*
X30833Y44295D01*
Y43705D01*
X30948Y43129D01*
X31274Y42640D01*
X31402Y42555D01*
Y40945D01*
X31274Y40860D01*
X30948Y40371D01*
X30833Y39795D01*
Y39205D01*
X30948Y38629D01*
X31274Y38140D01*
X31402Y38055D01*
Y37678D01*
X31308Y37538D01*
X31201Y37000D01*
X31308Y36462D01*
X31613Y36007D01*
X32069Y35702D01*
X32606Y35595D01*
X33144Y35702D01*
X33600Y36007D01*
X33904Y36462D01*
X34011Y37000D01*
X33904Y37538D01*
X33810Y37678D01*
Y38456D01*
X33926Y38629D01*
X34041Y39205D01*
Y39795D01*
X33926Y40371D01*
X33810Y40544D01*
Y42956D01*
X33926Y43129D01*
X34041Y43705D01*
Y44295D01*
X33926Y44871D01*
X33810Y45044D01*
Y47956D01*
X33926Y48129D01*
X34031Y48657D01*
X34146Y48705D01*
X34708Y48705D01*
X34712Y48702D01*
X35250Y48595D01*
X35788Y48702D01*
X36244Y49007D01*
X36368Y49194D01*
X36847Y49048D01*
Y33234D01*
X36847Y33234D01*
X36847D01*
X36916Y32888D01*
X37111Y32595D01*
X38345Y31361D01*
X38345D01*
X38345Y31361D01*
X38346Y31361D01*
Y31361D01*
X38638Y31166D01*
X38696Y31154D01*
X38713Y31151D01*
X38664Y30653D01*
X27874D01*
X25153Y33374D01*
Y35946D01*
X25243Y36007D01*
X25548Y36462D01*
X25655Y37000D01*
X25548Y37538D01*
X25243Y37993D01*
X24788Y38298D01*
X24250Y38405D01*
X23712Y38298D01*
X23257Y37993D01*
X23132Y37806D01*
X22653Y37952D01*
Y39096D01*
X22743Y39156D01*
X23048Y39612D01*
X23155Y40150D01*
X23048Y40687D01*
X22743Y41143D01*
X22288Y41448D01*
X21750Y41555D01*
X21290Y41463D01*
X20903Y41780D01*
Y42245D01*
X20993Y42306D01*
X21298Y42762D01*
X21405Y43299D01*
X21298Y43837D01*
X20993Y44293D01*
X20538Y44597D01*
X20000Y44704D01*
X19462Y44597D01*
X19006Y44293D01*
X18702Y43837D01*
X18595Y43299D01*
X18702Y42762D01*
X19006Y42306D01*
X19097Y42245D01*
Y35138D01*
X18656Y34902D01*
X18288Y35148D01*
X17750Y35255D01*
X17212Y35148D01*
X16757Y34844D01*
X16452Y34388D01*
X16401Y34130D01*
X15903Y34179D01*
Y45161D01*
X16344Y45397D01*
X16712Y45151D01*
X16758Y45142D01*
Y46448D01*
Y47756D01*
X16712Y47747D01*
X16344Y47501D01*
X15903Y47736D01*
Y55500D01*
X15903Y55500D01*
X15846Y55788D01*
X15834Y55846D01*
X15639Y56139D01*
X13639Y58139D01*
X13346Y58334D01*
X13000Y58403D01*
X8455D01*
X8452Y58425D01*
X8095Y59287D01*
X7527Y60027D01*
X6787Y60595D01*
X5925Y60952D01*
X5000Y61074D01*
X4075Y60952D01*
X3213Y60595D01*
X2473Y60027D01*
X1905Y59287D01*
X1548Y58425D01*
X1426Y57500D01*
X1548Y56575D01*
X1905Y55713D01*
X2473Y54973D01*
X3213Y54405D01*
X4075Y54048D01*
X5000Y53926D01*
X5925Y54048D01*
X6787Y54405D01*
X7527Y54973D01*
X8095Y55713D01*
X8452Y56575D01*
X8455Y56597D01*
X12626D01*
X14097Y55126D01*
Y15810D01*
X14006Y15749D01*
X13702Y15294D01*
X13595Y14756D01*
X13702Y14218D01*
X14006Y13762D01*
X14462Y13458D01*
X15000Y13351D01*
X15538Y13458D01*
X15993Y13762D01*
X16298Y14218D01*
X16349Y14476D01*
X16847Y14427D01*
Y13124D01*
X14861Y11139D01*
X14666Y10846D01*
X14597Y10500D01*
Y5000D01*
X14597Y5000D01*
X14597D01*
X14666Y4654D01*
X14861Y4361D01*
X16361Y2861D01*
X16654Y2666D01*
X17000Y2597D01*
X36000D01*
X36346Y2666D01*
X36639Y2861D01*
X36639Y2861D01*
X36639Y2861D01*
X38196Y4418D01*
X38213Y4405D01*
X39075Y4048D01*
X40000Y3926D01*
X40925Y4048D01*
X41787Y4405D01*
X42527Y4973D01*
X43095Y5713D01*
X43452Y6575D01*
X43574Y7500D01*
X43452Y8425D01*
X43095Y9287D01*
X42527Y10027D01*
X41787Y10595D01*
D01*
X41787D01*
X41787Y10597D01*
X47438D01*
X47598Y10123D01*
X47473Y10027D01*
X46905Y9287D01*
X46548Y8425D01*
X46426Y7500D01*
X46548Y6575D01*
X46905Y5713D01*
X47473Y4973D01*
X48213Y4405D01*
X49075Y4048D01*
X50000Y3926D01*
X50925Y4048D01*
X51787Y4405D01*
X52527Y4973D01*
X53095Y5713D01*
X53452Y6575D01*
X53574Y7500D01*
X53452Y8425D01*
X53095Y9287D01*
X52527Y10027D01*
X51787Y10595D01*
D01*
X51787D01*
X51787Y10597D01*
X53626D01*
X54097Y10126D01*
Y4500D01*
X54097Y4500D01*
X54097D01*
X54166Y4154D01*
X54361Y3861D01*
X55361Y2861D01*
X55654Y2666D01*
X56000Y2597D01*
X83000D01*
X83346Y2666D01*
X83639Y2861D01*
X83639Y2861D01*
X83639Y2861D01*
X84894Y4116D01*
X85000Y4095D01*
X85538Y4202D01*
X85993Y4507D01*
X86298Y4962D01*
X86405Y5500D01*
X86359Y5731D01*
X86838Y5876D01*
X86905Y5713D01*
X87473Y4973D01*
X88213Y4405D01*
X89075Y4048D01*
X90000Y3926D01*
X90925Y4048D01*
X91787Y4405D01*
X92527Y4973D01*
X93095Y5713D01*
X93452Y6575D01*
X93574Y7500D01*
X93452Y8425D01*
X93095Y9287D01*
X92527Y10027D01*
X91787Y10595D01*
D01*
X91787D01*
X91787Y10597D01*
X97438D01*
X97598Y10123D01*
X97473Y10027D01*
X96905Y9287D01*
X96548Y8425D01*
X96426Y7500D01*
X96548Y6575D01*
X96905Y5713D01*
X97473Y4973D01*
X98213Y4405D01*
X99075Y4048D01*
X100000Y3926D01*
X100925Y4048D01*
X101787Y4405D01*
X102527Y4973D01*
X103095Y5713D01*
X103452Y6575D01*
X103574Y7500D01*
X103452Y8425D01*
X103095Y9287D01*
X102527Y10027D01*
X101787Y10595D01*
D01*
X101787D01*
X101787Y10597D01*
X107438D01*
X107598Y10123D01*
X107473Y10027D01*
X106905Y9287D01*
X106548Y8425D01*
X106426Y7500D01*
X106548Y6575D01*
X106905Y5713D01*
X107473Y4973D01*
X108213Y4405D01*
X109075Y4048D01*
X110000Y3926D01*
X110925Y4048D01*
X111787Y4405D01*
X112527Y4973D01*
X113095Y5713D01*
X113452Y6575D01*
X113574Y7500D01*
X113452Y8425D01*
X113095Y9287D01*
X112722Y9773D01*
X112986Y10197D01*
X113500Y10095D01*
X114038Y10202D01*
X114494Y10507D01*
X114798Y10962D01*
X114905Y11500D01*
X114798Y12038D01*
X114909Y12246D01*
X115404Y12319D01*
X116861Y10861D01*
X116861Y10861D01*
X117154Y10666D01*
X117474Y10602D01*
X117500Y10490D01*
X117500Y10048D01*
X117473Y10027D01*
X116905Y9287D01*
X116548Y8425D01*
X116426Y7500D01*
X116548Y6575D01*
X116905Y5713D01*
X117473Y4973D01*
X118213Y4405D01*
X119075Y4048D01*
X120000Y3926D01*
X120925Y4048D01*
X121787Y4405D01*
X122527Y4973D01*
X123095Y5713D01*
X123452Y6575D01*
X123574Y7500D01*
X123452Y8425D01*
X123095Y9287D01*
X122527Y10027D01*
X121787Y10595D01*
D01*
X121787D01*
X121787Y10597D01*
X123946D01*
X124006Y10507D01*
X124462Y10202D01*
X125000Y10095D01*
X125538Y10202D01*
X125994Y10507D01*
X126298Y10962D01*
X126405Y11500D01*
X126298Y12038D01*
X126463Y12347D01*
X144196D01*
X144256Y12257D01*
X144712Y11952D01*
X145250Y11845D01*
X145788Y11952D01*
X146244Y12257D01*
X146548Y12712D01*
X146655Y13250D01*
X146647Y13291D01*
X147000Y13645D01*
X147250Y13595D01*
X147788Y13702D01*
X148243Y14006D01*
X148548Y14462D01*
X148599Y14720D01*
X149097Y14671D01*
Y10955D01*
X149075Y10952D01*
X148213Y10595D01*
X147473Y10027D01*
X146905Y9287D01*
X146548Y8425D01*
X146426Y7500D01*
X146548Y6575D01*
X146905Y5713D01*
X147473Y4973D01*
X148213Y4405D01*
X149075Y4048D01*
X150000Y3926D01*
X150925Y4048D01*
X151787Y4405D01*
X152527Y4973D01*
X153095Y5713D01*
X153452Y6575D01*
X153574Y7500D01*
X153452Y8425D01*
X153095Y9287D01*
X152527Y10027D01*
X151787Y10595D01*
X150925Y10952D01*
X150903Y10955D01*
Y22000D01*
X150903Y22000D01*
X150846Y22288D01*
X150834Y22346D01*
X150639Y22639D01*
X150139Y23139D01*
X149846Y23334D01*
X149660Y23371D01*
X149621Y23564D01*
X149358Y23958D01*
X149400Y24097D01*
X149500D01*
X149846Y24166D01*
X150139Y24361D01*
X150139Y24361D01*
X150139Y24361D01*
X151639Y25861D01*
X151834Y26154D01*
X151903Y26500D01*
X151903Y26500D01*
X151903Y26500D01*
Y26500D01*
Y29196D01*
X151994Y29256D01*
X152298Y29712D01*
X152405Y30250D01*
X152298Y30788D01*
X151994Y31244D01*
X151538Y31548D01*
X151021Y31651D01*
D01*
X151021Y31651D01*
D01*
X151012Y31673D01*
X151639Y32611D01*
X151639Y32611D01*
X151639D01*
X151834Y32904D01*
X151903Y33250D01*
Y43369D01*
X152290Y43687D01*
X152750Y43595D01*
X153060Y43657D01*
X153338Y43241D01*
X153202Y43038D01*
X153095Y42500D01*
X153202Y41962D01*
X153296Y41822D01*
Y18928D01*
X153202Y18788D01*
X153095Y18250D01*
X153202Y17712D01*
X153507Y17256D01*
X153962Y16952D01*
X154500Y16845D01*
X155038Y16952D01*
X155493Y17256D01*
X155618Y17444D01*
X156097Y17298D01*
Y12874D01*
X154361Y11139D01*
X154166Y10846D01*
X154097Y10500D01*
Y5000D01*
X154097Y5000D01*
X154097D01*
X154166Y4654D01*
X154361Y4361D01*
X155861Y2861D01*
X156154Y2666D01*
X156500Y2597D01*
X186000D01*
X186346Y2666D01*
X186639Y2861D01*
X186639Y2861D01*
X186639Y2861D01*
X188196Y4418D01*
X188213Y4405D01*
X189075Y4048D01*
X190000Y3926D01*
X190925Y4048D01*
X191787Y4405D01*
X192527Y4973D01*
X193095Y5713D01*
X193452Y6575D01*
X193574Y7500D01*
X193452Y8425D01*
X193095Y9287D01*
X192527Y10027D01*
X191787Y10595D01*
X190925Y10952D01*
X190000Y11074D01*
X189075Y10952D01*
X188213Y10595D01*
X187473Y10027D01*
X186905Y9287D01*
X186548Y8425D01*
X186426Y7500D01*
X186548Y6575D01*
X186905Y5713D01*
X186918Y5696D01*
X185626Y4403D01*
X182562D01*
X182402Y4877D01*
X182527Y4973D01*
X183095Y5713D01*
X183452Y6575D01*
X183574Y7500D01*
X183452Y8425D01*
X183095Y9287D01*
X182527Y10027D01*
X181787Y10595D01*
X180925Y10952D01*
X180903Y10955D01*
Y27446D01*
X180993Y27507D01*
X181298Y27962D01*
X181405Y28500D01*
X181298Y29038D01*
X180993Y29493D01*
X180706Y29685D01*
X180804Y30176D01*
X180957Y30206D01*
X181348Y30467D01*
X181609Y30858D01*
X181700Y31319D01*
Y32008D01*
X179904D01*
Y32992D01*
X181700D01*
Y33681D01*
X181609Y34142D01*
X181348Y34533D01*
X181233Y34609D01*
X181213Y34508D01*
X179904D01*
Y35492D01*
X181213D01*
X181233Y35391D01*
X181348Y35467D01*
X181609Y35858D01*
X181700Y36319D01*
Y37008D01*
X179904D01*
Y37499D01*
X179413D01*
Y39885D01*
X179315D01*
X179040Y39831D01*
X178653Y40148D01*
Y44852D01*
X179040Y45169D01*
X179315Y45115D01*
X179413D01*
Y47499D01*
Y49885D01*
X179315D01*
X179040Y49831D01*
X178653Y50148D01*
Y57250D01*
X178584Y57596D01*
X178389Y57889D01*
X177088Y59189D01*
X177324Y59630D01*
X177008Y59693D01*
Y61001D01*
X177499D01*
Y61492D01*
X178480D01*
X178888Y61084D01*
X178905Y61000D01*
X178813Y60536D01*
X179291Y60681D01*
X181847Y58126D01*
Y49647D01*
X181368Y49502D01*
X181348Y49533D01*
X180957Y49794D01*
X180496Y49885D01*
X180398D01*
Y47499D01*
Y45115D01*
X180496D01*
X180957Y45206D01*
X181348Y45467D01*
X181368Y45498D01*
X181847Y45353D01*
Y42250D01*
X181916Y41904D01*
X182111Y41611D01*
X184418Y39304D01*
X184405Y39287D01*
X184048Y38425D01*
X183926Y37500D01*
X184048Y36575D01*
X184405Y35713D01*
X184973Y34973D01*
X185713Y34405D01*
X186575Y34048D01*
X187500Y33926D01*
X188425Y34048D01*
X189287Y34405D01*
X190027Y34973D01*
X190072Y35032D01*
X190546Y34871D01*
Y31178D01*
X190452Y31038D01*
X190345Y30500D01*
X190085Y30183D01*
X189240D01*
X188887Y30113D01*
X188587Y29913D01*
X188387Y29613D01*
X188317Y29260D01*
Y26740D01*
X188387Y26387D01*
X188587Y26087D01*
X188887Y25887D01*
X189240Y25817D01*
X191760D01*
X192113Y25887D01*
X192413Y26087D01*
X192613Y26387D01*
X192683Y26740D01*
Y28521D01*
X192863Y28789D01*
X192954Y29250D01*
X192954Y29250D01*
Y29822D01*
X193048Y29962D01*
X193155Y30500D01*
X193048Y31038D01*
X192954Y31178D01*
Y43250D01*
X192954Y43250D01*
X192863Y43711D01*
X192602Y44102D01*
X192602Y44102D01*
X191017Y45686D01*
X191084Y46024D01*
Y48976D01*
X190923Y49783D01*
X190466Y50467D01*
X190081Y50724D01*
Y62931D01*
X192069Y64919D01*
X197543D01*
X198213Y64405D01*
X199075Y64048D01*
X200000Y63926D01*
X200925Y64048D01*
X201787Y64405D01*
X202527Y64973D01*
X203095Y65713D01*
X203452Y66575D01*
X203574Y67500D01*
X203452Y68425D01*
X203095Y69287D01*
X202527Y70027D01*
X201787Y70595D01*
X200925Y70952D01*
X200000Y71074D01*
X199075Y70952D01*
X198213Y70595D01*
X197543Y70081D01*
X191000D01*
X190332Y69993D01*
X190074Y69886D01*
X189709Y69735D01*
X189175Y69325D01*
X185675Y65825D01*
X185265Y65291D01*
X185114Y64926D01*
X185007Y64668D01*
X184919Y64000D01*
Y50724D01*
X184534Y50467D01*
X184132Y49865D01*
X183653Y50010D01*
Y58500D01*
X183584Y58846D01*
X183389Y59139D01*
X178939Y63588D01*
X179160Y64037D01*
X180000Y63926D01*
X180925Y64048D01*
X181787Y64405D01*
X182527Y64973D01*
X183095Y65713D01*
X183452Y66575D01*
X183574Y67500D01*
X183452Y68425D01*
X183095Y69287D01*
X182527Y70027D01*
X181787Y70595D01*
X180925Y70952D01*
X180000Y71074D01*
X179075Y70952D01*
X178213Y70595D01*
X177473Y70027D01*
X176905Y69287D01*
X176548Y68425D01*
X176426Y67500D01*
X176548Y66575D01*
X176905Y65713D01*
X177473Y64973D01*
X177598Y64877D01*
X177438Y64403D01*
X172562D01*
X172402Y64877D01*
X172527Y64973D01*
X173095Y65713D01*
X173452Y66575D01*
X173574Y67500D01*
X173452Y68425D01*
X173095Y69287D01*
X172527Y70027D01*
X171787Y70595D01*
X170925Y70952D01*
X170000Y71074D01*
X169075Y70952D01*
X168213Y70595D01*
X167473Y70027D01*
X166905Y69287D01*
X166548Y68425D01*
X166426Y67500D01*
X166499Y66948D01*
X166050Y66727D01*
X164653Y68124D01*
Y68696D01*
X164743Y68757D01*
X165048Y69212D01*
X165155Y69750D01*
X165048Y70288D01*
X164743Y70743D01*
X164288Y71048D01*
X163750Y71155D01*
X163212Y71048D01*
X162757Y70743D01*
X162452Y70288D01*
X162345Y69750D01*
X162452Y69212D01*
X162648Y68920D01*
X162503Y68441D01*
X162385Y68392D01*
X161134Y69643D01*
X161155Y69750D01*
X161048Y70288D01*
X160743Y70743D01*
X160288Y71048D01*
X159750Y71155D01*
X159212Y71048D01*
X158756Y70743D01*
X158452Y70288D01*
X158345Y69750D01*
X158452Y69212D01*
X158756Y68757D01*
X159082Y68539D01*
X159081Y68538D01*
D01*
D01*
D01*
X159081Y68538D01*
X158897Y68092D01*
X158874Y68081D01*
X158500Y68155D01*
X157962Y68048D01*
X157507Y67743D01*
X157202Y67288D01*
X157095Y66750D01*
X157202Y66212D01*
X157507Y65757D01*
X157962Y65452D01*
X158500Y65345D01*
X158607Y65366D01*
X165361Y58611D01*
X165654Y58416D01*
X165729Y58401D01*
X165680Y57903D01*
X164124D01*
X157889Y64139D01*
X157596Y64334D01*
X157250Y64403D01*
X152562D01*
X152402Y64877D01*
X152527Y64973D01*
X153095Y65713D01*
X153452Y66575D01*
X153574Y67500D01*
X153452Y68425D01*
X153095Y69287D01*
X152527Y70027D01*
X151787Y70595D01*
X150925Y70952D01*
X150000Y71074D01*
X149075Y70952D01*
X148213Y70595D01*
X147473Y70027D01*
X146905Y69287D01*
X146548Y68425D01*
X146426Y67500D01*
X146548Y66575D01*
X146905Y65713D01*
X147473Y64973D01*
X147598Y64877D01*
X147438Y64403D01*
X142562D01*
X142402Y64877D01*
X142527Y64973D01*
X143095Y65713D01*
X143452Y66575D01*
X143574Y67500D01*
X143452Y68425D01*
X143095Y69287D01*
X142527Y70027D01*
X141787Y70595D01*
X140925Y70952D01*
X140000Y71074D01*
X139075Y70952D01*
X138213Y70595D01*
X138196Y70582D01*
X136639Y72139D01*
X136346Y72334D01*
X136000Y72403D01*
X15750D01*
X15750Y72403D01*
D02*
G37*
G36*
X8427Y66516D02*
X5984D01*
Y64073D01*
X6787Y64405D01*
X7527Y64973D01*
X8095Y65713D01*
X8427Y66516D01*
D02*
G37*
G36*
X5984Y70928D02*
Y68484D01*
X8427D01*
X8095Y69287D01*
X7527Y70027D01*
X6787Y70595D01*
X5984Y70928D01*
D02*
G37*
G36*
X4016D02*
X3213Y70595D01*
X2473Y70027D01*
X1905Y69287D01*
X1572Y68484D01*
X4016D01*
Y70928D01*
D02*
G37*
G36*
X28492Y55807D02*
Y54992D01*
X29307D01*
X29298Y55038D01*
X28993Y55493D01*
X28538Y55798D01*
X28492Y55807D01*
D02*
G37*
G36*
X27508D02*
X27462Y55798D01*
X27007Y55493D01*
X26702Y55038D01*
X26693Y54992D01*
X27508D01*
Y55807D01*
D02*
G37*
G36*
X47862Y56307D02*
X47817Y56298D01*
X47361Y55993D01*
X47056Y55538D01*
X47047Y55492D01*
X47862D01*
Y56307D01*
D02*
G37*
G36*
X178807Y60508D02*
X177992D01*
Y59693D01*
X178038Y59702D01*
X178493Y60007D01*
X178798Y60462D01*
X178807Y60508D01*
D02*
G37*
G36*
X48846Y56307D02*
Y55492D01*
X49661D01*
X49652Y55538D01*
X49348Y55993D01*
X48892Y56298D01*
X48846Y56307D01*
D02*
G37*
G36*
X5000Y51074D02*
X4075Y50952D01*
X3213Y50595D01*
X2473Y50027D01*
X1905Y49287D01*
X1548Y48425D01*
X1426Y47500D01*
X1548Y46575D01*
X1905Y45713D01*
X2473Y44973D01*
X3213Y44405D01*
X4075Y44048D01*
X5000Y43926D01*
X5925Y44048D01*
X6787Y44405D01*
X7527Y44973D01*
X8095Y45713D01*
X8452Y46575D01*
X8574Y47500D01*
X8452Y48425D01*
X8095Y49287D01*
X7527Y50027D01*
X6787Y50595D01*
X5925Y50952D01*
X5000Y51074D01*
D02*
G37*
G36*
X17742Y47756D02*
Y46941D01*
X18557D01*
X18548Y46986D01*
X18244Y47442D01*
X17788Y47747D01*
X17742Y47756D01*
D02*
G37*
G36*
X29966Y48508D02*
X26837D01*
X26912Y48129D01*
X27239Y47640D01*
X27239Y47640D01*
X27007Y47442D01*
X27007Y47442D01*
X27007D01*
X26702Y46986D01*
X26693Y46941D01*
X29307D01*
X29298Y46986D01*
X29078Y47315D01*
X29564Y47640D01*
X29891Y48129D01*
X29966Y48508D01*
D02*
G37*
G36*
X200000Y51074D02*
X199075Y50952D01*
X198213Y50595D01*
X197473Y50027D01*
X196905Y49287D01*
X196548Y48425D01*
X196426Y47500D01*
X196548Y46575D01*
X196905Y45713D01*
X197473Y44973D01*
X198213Y44405D01*
X199075Y44048D01*
X200000Y43926D01*
X200925Y44048D01*
X201787Y44405D01*
X202527Y44973D01*
X203095Y45713D01*
X203452Y46575D01*
X203574Y47500D01*
X203452Y48425D01*
X203095Y49287D01*
X202527Y50027D01*
X201787Y50595D01*
X200925Y50952D01*
X200000Y51074D01*
D02*
G37*
G36*
X29307Y45957D02*
X26693D01*
X26702Y45911D01*
X27007Y45455D01*
Y45455D01*
X27007D01*
X27075Y45114D01*
X26912Y44871D01*
X26837Y44492D01*
X29966D01*
X29891Y44871D01*
X29564Y45360D01*
X29125Y45653D01*
X29298Y45911D01*
X29307Y45957D01*
D02*
G37*
G36*
X18557D02*
X17742D01*
Y45142D01*
X17788Y45151D01*
X18244Y45455D01*
X18548Y45911D01*
X18557Y45957D01*
D02*
G37*
G36*
X27909Y50722D02*
X27727Y50686D01*
X27239Y50360D01*
X26912Y49871D01*
X26837Y49492D01*
X27909D01*
Y50722D01*
D02*
G37*
G36*
X29966Y43508D02*
X28894D01*
Y42278D01*
X29076Y42314D01*
X29564Y42640D01*
X29891Y43129D01*
X29966Y43508D01*
D02*
G37*
G36*
X27909D02*
X26837D01*
X26912Y43129D01*
X27239Y42640D01*
X27727Y42314D01*
X27909Y42278D01*
Y43508D01*
D02*
G37*
%LPD*%
G36*
X86242Y47693D02*
X86288Y47702D01*
X86743Y48006D01*
X86930Y48286D01*
X87430D01*
X87617Y48006D01*
X88073Y47702D01*
X88610Y47595D01*
X88745Y47622D01*
X89099Y47268D01*
X89095Y47250D01*
X89202Y46712D01*
X89507Y46257D01*
X89962Y45952D01*
X90500Y45845D01*
X90606Y45866D01*
X95581Y40892D01*
Y34215D01*
X95140Y33979D01*
X95038Y34048D01*
X94992Y34057D01*
Y32749D01*
Y31443D01*
X95038Y31452D01*
X95140Y31521D01*
X95581Y31285D01*
Y29226D01*
X95140Y28990D01*
X95053Y29048D01*
X95008Y29057D01*
Y27749D01*
X94517D01*
Y27258D01*
X93209D01*
X93218Y27212D01*
X93389Y26955D01*
X93036Y26602D01*
X93008Y26620D01*
X92547Y26712D01*
X92086Y26620D01*
X91696Y26359D01*
X91430D01*
X91040Y26620D01*
X90579Y26712D01*
X90201Y26637D01*
X89815Y26954D01*
Y36322D01*
X89908Y36462D01*
X90015Y37000D01*
X89908Y37538D01*
X89604Y37993D01*
X89148Y38298D01*
X88610Y38405D01*
X88073Y38298D01*
X87617Y37993D01*
X87312Y37538D01*
X87205Y37000D01*
X87312Y36462D01*
X87406Y36322D01*
Y26954D01*
X87019Y26637D01*
X86642Y26712D01*
X86181Y26620D01*
X85790Y26359D01*
X85525D01*
X85134Y26620D01*
X84673Y26712D01*
X84212Y26620D01*
X83822Y26359D01*
X83561Y25969D01*
X83469Y25508D01*
Y22311D01*
X82993Y21993D01*
X82538Y22298D01*
X82000Y22405D01*
X81462Y22298D01*
X81007Y21993D01*
X80702Y21538D01*
X80595Y21000D01*
X80702Y20462D01*
X81007Y20007D01*
X81109Y19938D01*
X81166Y19654D01*
X81361Y19361D01*
X82956Y17766D01*
X82907Y17269D01*
X82734Y17153D01*
X79124D01*
X74889Y21389D01*
X74596Y21584D01*
X74250Y21653D01*
X70131D01*
X69813Y22040D01*
X69905Y22500D01*
X69798Y23038D01*
X69493Y23494D01*
X69038Y23798D01*
X68500Y23905D01*
X68012Y23808D01*
X67776Y24249D01*
X70918Y27391D01*
X71416Y27342D01*
X71686Y26938D01*
X72141Y26633D01*
X72679Y26526D01*
X72858Y26562D01*
X72874Y26531D01*
X72750Y25905D01*
X72212Y25798D01*
X71757Y25493D01*
X71452Y25038D01*
X71345Y24500D01*
X71452Y23962D01*
X71757Y23506D01*
X72212Y23202D01*
X72750Y23095D01*
X73288Y23202D01*
X73743Y23506D01*
X74048Y23962D01*
X74155Y24500D01*
X74134Y24607D01*
X76109Y26582D01*
X76142Y26561D01*
X76602Y26469D01*
X82508D01*
X82969Y26561D01*
X83359Y26822D01*
X83620Y27212D01*
X83712Y27673D01*
X83620Y28134D01*
X83359Y28525D01*
Y28790D01*
X83620Y29181D01*
X83712Y29642D01*
X83620Y30103D01*
X83359Y30493D01*
Y30759D01*
X83620Y31149D01*
X83712Y31610D01*
X83620Y32071D01*
X83359Y32462D01*
Y32727D01*
X83620Y33118D01*
X83712Y33579D01*
X83620Y34040D01*
X83359Y34430D01*
Y34696D01*
X83359D01*
X83620Y35086D01*
X83712Y35547D01*
X83620Y36008D01*
X83359Y36399D01*
Y36664D01*
X83620Y37055D01*
X83712Y37516D01*
X83620Y37977D01*
X83359Y38367D01*
Y38633D01*
X83620Y39023D01*
X83712Y39484D01*
X83620Y39945D01*
X83359Y40336D01*
Y40601D01*
X83620Y40992D01*
X83712Y41453D01*
X83620Y41914D01*
X83359Y42304D01*
Y42570D01*
X83620Y42960D01*
X83712Y43421D01*
X83620Y43882D01*
X83359Y44273D01*
X83359D01*
Y44538D01*
X83620Y44929D01*
X83712Y45390D01*
X83620Y45851D01*
X83359Y46241D01*
X83282Y46293D01*
X83444Y46455D01*
X83608D01*
X83954Y46524D01*
X84247Y46720D01*
X84247Y46720D01*
X84247Y46720D01*
X84639Y47111D01*
X84639Y47111D01*
X84834Y47404D01*
X84846Y47462D01*
X85212Y47702D01*
D01*
D01*
X85212D01*
Y47702D01*
X85258Y47693D01*
Y49001D01*
X86242D01*
Y47693D01*
D02*
G37*
G36*
X163361Y31861D02*
X163361D01*
X163361Y31861D01*
X163361D01*
X163361Y31861D01*
Y31861D01*
X163361Y31861D01*
Y31861D01*
X163654Y31666D01*
X164000Y31597D01*
X164346D01*
X164378Y31435D01*
X164642Y31042D01*
X165035Y30779D01*
X165500Y30686D01*
X169500D01*
X169965Y30779D01*
X170358Y31042D01*
X170622Y31435D01*
X170654Y31597D01*
X172205D01*
Y31319D01*
X172297Y30858D01*
X172558Y30467D01*
X172949Y30206D01*
X173409Y30115D01*
X174591D01*
X174990Y30194D01*
X175226Y29753D01*
X173876Y28403D01*
X170654D01*
X170622Y28565D01*
X170358Y28958D01*
X169965Y29221D01*
X169500Y29314D01*
X165500D01*
X165035Y29221D01*
X164642Y28958D01*
X164378Y28565D01*
X164286Y28100D01*
Y26900D01*
X164378Y26436D01*
X164642Y26042D01*
X165035Y25778D01*
X165500Y25686D01*
X169500D01*
X169965Y25778D01*
X170358Y26042D01*
X170622Y26436D01*
X170654Y26597D01*
X174250D01*
X174596Y26666D01*
X174889Y26861D01*
X178389Y30361D01*
X178389Y30361D01*
X178463Y30467D01*
X178854Y30206D01*
X179153Y30147D01*
X179251Y29656D01*
X179007Y29493D01*
X178702Y29038D01*
X178595Y28500D01*
X178702Y27962D01*
X179007Y27507D01*
X179097Y27446D01*
Y10955D01*
X179075Y10952D01*
X178213Y10595D01*
X177473Y10027D01*
X176905Y9287D01*
X176548Y8425D01*
X176426Y7500D01*
X176548Y6575D01*
X176905Y5713D01*
X177473Y4973D01*
X177598Y4877D01*
X177438Y4403D01*
X172562D01*
X172402Y4877D01*
X172527Y4973D01*
X173095Y5713D01*
X173452Y6575D01*
X173574Y7500D01*
X173452Y8425D01*
X173095Y9287D01*
X172527Y10027D01*
X171787Y10595D01*
X170925Y10952D01*
X170000Y11074D01*
X169075Y10952D01*
X168213Y10595D01*
X168196Y10582D01*
X162153Y16624D01*
Y25696D01*
X162243Y25756D01*
X162548Y26212D01*
X162655Y26750D01*
X162548Y27288D01*
X162243Y27744D01*
X161788Y28048D01*
X161250Y28155D01*
X160712Y28048D01*
X160257Y27744D01*
X160132Y27556D01*
X159653Y27702D01*
Y34916D01*
X160115Y35108D01*
X163361Y31861D01*
D02*
G37*
G36*
X143440Y23656D02*
X143378Y23564D01*
X143286Y23100D01*
Y21900D01*
X143378Y21436D01*
X143642Y21042D01*
X144035Y20778D01*
X144500Y20686D01*
X148500D01*
X148710Y20728D01*
X149097Y20411D01*
Y15329D01*
X148599Y15280D01*
X148548Y15538D01*
X148243Y15993D01*
X147788Y16298D01*
X147250Y16405D01*
X146712Y16298D01*
X146256Y15993D01*
X146196Y15903D01*
X132084D01*
X131892Y16365D01*
X137153Y21625D01*
X137615Y21434D01*
Y22087D01*
X139508D01*
Y23390D01*
X139570D01*
X139378Y23851D01*
X139624Y24097D01*
X143204D01*
X143440Y23656D01*
D02*
G37*
G36*
X23347Y35839D02*
Y33000D01*
X23347Y33000D01*
X23347D01*
X23416Y32654D01*
X23611Y32361D01*
X26861Y29111D01*
X26861Y29111D01*
X27154Y28916D01*
X27154Y28916D01*
X27154Y28916D01*
D01*
X27154Y28916D01*
X27154Y28916D01*
X27500Y28847D01*
X63678D01*
X63914Y28406D01*
X63702Y28089D01*
X63595Y27551D01*
X63702Y27013D01*
X64007Y26558D01*
X64462Y26253D01*
X64597Y26226D01*
Y25726D01*
X64462Y25700D01*
X64007Y25395D01*
X63702Y24939D01*
X63595Y24402D01*
X63702Y23864D01*
X63715Y23844D01*
X63480Y23403D01*
X43109D01*
X43049Y23494D01*
X42593Y23798D01*
X42055Y23905D01*
X41517Y23798D01*
X41062Y23494D01*
X40757Y23038D01*
X40650Y22500D01*
X40742Y22040D01*
X40424Y21653D01*
X33124D01*
X29897Y24881D01*
X29994Y25202D01*
X30450Y25506D01*
X30755Y25962D01*
X30764Y26008D01*
X29456D01*
Y26499D01*
X28965D01*
Y27807D01*
X28919Y27798D01*
X28463Y27494D01*
X28210Y27114D01*
X27712Y27065D01*
X26588Y28190D01*
X26294Y28386D01*
X25949Y28454D01*
X25804D01*
X25743Y28545D01*
X25288Y28849D01*
X24750Y28956D01*
X24212Y28849D01*
X23756Y28545D01*
X23452Y28089D01*
X23345Y27551D01*
X23452Y27013D01*
X23756Y26558D01*
X24212Y26253D01*
X24347Y26226D01*
Y25726D01*
X24212Y25700D01*
X23756Y25395D01*
X23452Y24939D01*
X23345Y24402D01*
X23452Y23864D01*
X23756Y23408D01*
X24212Y23104D01*
X24347Y23077D01*
Y22577D01*
X24212Y22550D01*
X23756Y22245D01*
X23452Y21790D01*
X23345Y21252D01*
X23452Y20714D01*
D01*
D01*
X23452Y20714D01*
X23452D01*
X23452D01*
X23222Y20392D01*
X23157Y20405D01*
X22620Y20298D01*
X22594Y20281D01*
X22153Y20516D01*
Y24126D01*
X22389Y24361D01*
X22389Y24361D01*
X22389Y24361D01*
X22584Y24654D01*
X22596Y24712D01*
X22653Y25000D01*
X22653Y25000D01*
Y36048D01*
X22945Y36137D01*
X23347Y35839D01*
D02*
G37*
G36*
X136918Y69304D02*
X136905Y69287D01*
X136548Y68425D01*
X136426Y67500D01*
X136548Y66575D01*
X136905Y65713D01*
X137473Y64973D01*
X137598Y64877D01*
X137438Y64403D01*
X135554D01*
X135494Y64493D01*
X135038Y64798D01*
X134500Y64905D01*
X133962Y64798D01*
X133507Y64493D01*
X133202Y64038D01*
X133095Y63500D01*
X133202Y62962D01*
X133507Y62507D01*
X133962Y62202D01*
X134500Y62095D01*
X135038Y62202D01*
X135494Y62507D01*
X135554Y62597D01*
X156876D01*
X163111Y56361D01*
X163404Y56166D01*
X163750Y56097D01*
X170126D01*
X175597Y50626D01*
Y49960D01*
X175156Y49724D01*
X175051Y49794D01*
X174591Y49885D01*
X173409D01*
X172949Y49794D01*
X172558Y49533D01*
X172297Y49142D01*
X172205Y48681D01*
Y48403D01*
X170654D01*
X170622Y48564D01*
X170358Y48958D01*
X169965Y49222D01*
X169500Y49314D01*
X165500D01*
X165035Y49222D01*
X164642Y48958D01*
X164584Y48872D01*
X164212Y48798D01*
X164060Y48696D01*
X164008D01*
X163676Y49029D01*
X163798Y49212D01*
X163905Y49750D01*
X163798Y50288D01*
X163494Y50744D01*
X163038Y51048D01*
X162500Y51155D01*
Y51243D01*
X162854Y51597D01*
X164409D01*
Y50709D01*
X170591D01*
Y54290D01*
X164409D01*
Y53403D01*
X157903D01*
Y55446D01*
X157993Y55507D01*
X158298Y55962D01*
X158405Y56500D01*
X158298Y57038D01*
X157993Y57493D01*
X157538Y57798D01*
X157000Y57905D01*
X156462Y57798D01*
X156007Y57493D01*
X155702Y57038D01*
X155595Y56500D01*
X155702Y55962D01*
X156007Y55507D01*
X156097Y55446D01*
Y52500D01*
Y48403D01*
X149654D01*
X149621Y48564D01*
X149358Y48958D01*
X148965Y49222D01*
X148500Y49314D01*
X144500D01*
X144035Y49222D01*
X143642Y48958D01*
X143378Y48564D01*
X143286Y48100D01*
Y46900D01*
X143378Y46435D01*
X143642Y46042D01*
X144035Y45779D01*
X144500Y45686D01*
X148500D01*
X148965Y45779D01*
X149358Y46042D01*
X149618Y46431D01*
X150097Y46286D01*
Y43714D01*
X149618Y43569D01*
X149358Y43958D01*
X148965Y44221D01*
X148500Y44314D01*
X144500D01*
X144035Y44221D01*
X143642Y43958D01*
X143378Y43565D01*
X143346Y43403D01*
X142323D01*
X142294Y43551D01*
X142033Y43942D01*
X141642Y44203D01*
X141181Y44295D01*
X138819D01*
X138358Y44203D01*
X137967Y43942D01*
X137706Y43551D01*
X137615Y43091D01*
Y41909D01*
X137706Y41449D01*
X137967Y41058D01*
X138358Y40797D01*
X138819Y40705D01*
X139097D01*
Y37829D01*
X138599Y37780D01*
X138655Y37500D01*
X138599Y37220D01*
X139097Y37171D01*
Y31874D01*
X138126Y30903D01*
X135952D01*
X135807Y31382D01*
X135994Y31506D01*
X136298Y31962D01*
X136405Y32500D01*
X136298Y33038D01*
X135994Y33494D01*
X135538Y33798D01*
X135277Y33850D01*
X133537Y36943D01*
X133457Y37036D01*
X133389Y37139D01*
Y37194D01*
X133639Y37361D01*
X134894Y38616D01*
X135000Y38595D01*
X135538Y38702D01*
X135994Y39007D01*
X136298Y39462D01*
X136405Y40000D01*
X136298Y40538D01*
X135994Y40993D01*
X135538Y41298D01*
X135000Y41405D01*
X134462Y41298D01*
X134007Y40993D01*
X133702Y40538D01*
X133595Y40000D01*
X133616Y39893D01*
X132626Y38903D01*
X130357D01*
X130260Y39394D01*
X130287Y39405D01*
X131027Y39973D01*
X131595Y40713D01*
X131952Y41575D01*
X132074Y42500D01*
X131952Y43425D01*
X131595Y44287D01*
X131027Y45027D01*
X130287Y45595D01*
X130260Y45606D01*
X130357Y46097D01*
X132946D01*
X133007Y46007D01*
X133462Y45702D01*
X134000Y45595D01*
X134538Y45702D01*
X134994Y46007D01*
X135298Y46462D01*
X135405Y47000D01*
X135298Y47538D01*
X134994Y47993D01*
X134538Y48298D01*
X134000Y48405D01*
Y48493D01*
X134354Y48847D01*
X134696D01*
X134757Y48757D01*
X135212Y48452D01*
X135750Y48345D01*
X136288Y48452D01*
X136743Y48757D01*
X137048Y49212D01*
X137155Y49750D01*
X137048Y50288D01*
X136743Y50744D01*
X136288Y51048D01*
X135750Y51155D01*
X135212Y51048D01*
X134757Y50744D01*
X134696Y50653D01*
X132500D01*
X132459Y50645D01*
X132072Y50962D01*
Y51516D01*
X128499D01*
Y53484D01*
X132072D01*
Y54567D01*
X131958Y55143D01*
X131949Y55156D01*
X132185Y55597D01*
X134126D01*
X137116Y52606D01*
X137095Y52500D01*
X137202Y51962D01*
X137506Y51507D01*
X137962Y51202D01*
X138500Y51095D01*
X139038Y51202D01*
X139494Y51507D01*
X139798Y51962D01*
X139905Y52500D01*
X139798Y53038D01*
X139494Y53493D01*
X139038Y53798D01*
X138500Y53905D01*
X138393Y53884D01*
X135139Y57139D01*
X134846Y57334D01*
X134500Y57403D01*
X126084D01*
X125892Y57865D01*
X130639Y62611D01*
X130834Y62904D01*
X130903Y63250D01*
Y64045D01*
X130925Y64048D01*
X131787Y64405D01*
X132527Y64973D01*
X133095Y65713D01*
X133452Y66575D01*
X133574Y67500D01*
X133452Y68425D01*
X133095Y69287D01*
X132527Y70027D01*
X131787Y70595D01*
D01*
X131787D01*
X131787Y70597D01*
X135626D01*
X136918Y69304D01*
D02*
G37*
%LPC*%
G36*
X139972Y57758D02*
X138900D01*
X138975Y57379D01*
X139302Y56890D01*
X139790Y56564D01*
X139972Y56528D01*
Y57758D01*
D02*
G37*
G36*
X142029D02*
X140957D01*
Y56528D01*
X141139Y56564D01*
X141627Y56890D01*
X141954Y57379D01*
X142029Y57758D01*
D02*
G37*
G36*
X136758Y38807D02*
X136712Y38798D01*
X136257Y38493D01*
X135952Y38038D01*
X135943Y37992D01*
X136758D01*
Y38807D01*
D02*
G37*
G36*
X137742D02*
Y37992D01*
X138557D01*
X138548Y38038D01*
X138243Y38493D01*
X137788Y38798D01*
X137742Y38807D01*
D02*
G37*
G36*
X136758Y37008D02*
X135943D01*
X135952Y36962D01*
X136257Y36507D01*
X136712Y36202D01*
X136758Y36193D01*
Y37008D01*
D02*
G37*
G36*
X138557D02*
X137742D01*
Y36193D01*
X137788Y36202D01*
X138243Y36507D01*
X138548Y36962D01*
X138557Y37008D01*
D02*
G37*
G36*
X139972Y59972D02*
X139790Y59936D01*
X139302Y59610D01*
X138975Y59121D01*
X138900Y58742D01*
X139972D01*
Y59972D01*
D02*
G37*
G36*
X152043D02*
X151861Y59936D01*
X151373Y59610D01*
X151046Y59121D01*
X150971Y58742D01*
X152043D01*
Y59972D01*
D02*
G37*
G36*
X140957D02*
Y58742D01*
X142029D01*
X141954Y59121D01*
X141627Y59610D01*
X141139Y59936D01*
X140957Y59972D01*
D02*
G37*
G36*
X153027D02*
Y58742D01*
X154100D01*
X154025Y59121D01*
X153698Y59610D01*
X153210Y59936D01*
X153027Y59972D01*
D02*
G37*
G36*
X148598Y60051D02*
X148402D01*
X147826Y59936D01*
X147337Y59610D01*
X147216Y59429D01*
X147038Y59548D01*
X146500Y59655D01*
X145962Y59548D01*
X145784Y59429D01*
X145663Y59610D01*
X145175Y59936D01*
X144598Y60051D01*
X144402D01*
X143825Y59936D01*
X143337Y59610D01*
X143011Y59121D01*
X142896Y58545D01*
Y57955D01*
X143011Y57379D01*
X143337Y56890D01*
X143825Y56564D01*
X144402Y56449D01*
X144598D01*
X145175Y56564D01*
X145597Y56338D01*
Y54314D01*
X144500D01*
X144035Y54221D01*
X143642Y53958D01*
X143378Y53565D01*
X143286Y53100D01*
Y51900D01*
X143378Y51436D01*
X143642Y51042D01*
X144035Y50779D01*
X144500Y50686D01*
X148500D01*
X148965Y50779D01*
X149358Y51042D01*
X149621Y51436D01*
X149714Y51900D01*
Y53100D01*
X149621Y53565D01*
X149358Y53958D01*
X148965Y54221D01*
X148500Y54314D01*
X147403D01*
Y56338D01*
X147826Y56564D01*
X148402Y56449D01*
X148598D01*
X149174Y56564D01*
X149663Y56890D01*
X149989Y57379D01*
X150104Y57955D01*
Y58545D01*
X149989Y59121D01*
X149663Y59610D01*
X149174Y59936D01*
X148598Y60051D01*
D02*
G37*
G36*
X152043Y57758D02*
X150971D01*
X151046Y57379D01*
X151373Y56890D01*
X151861Y56564D01*
X152043Y56528D01*
Y57758D01*
D02*
G37*
G36*
X154100D02*
X153027D01*
Y56528D01*
X153210Y56564D01*
X153698Y56890D01*
X154025Y57379D01*
X154100Y57758D01*
D02*
G37*
G36*
X52811Y26008D02*
X51996D01*
Y25193D01*
X52042Y25202D01*
X52497Y25506D01*
X52802Y25962D01*
X52811Y26008D01*
D02*
G37*
G36*
X139508Y50200D02*
X138819D01*
X138358Y50109D01*
X137967Y49848D01*
X137706Y49457D01*
X137615Y48996D01*
Y48898D01*
X139508D01*
Y50200D01*
D02*
G37*
G36*
X51012Y26008D02*
X50197D01*
X50206Y25962D01*
X50511Y25506D01*
X50966Y25202D01*
X51012Y25193D01*
Y26008D01*
D02*
G37*
G36*
X169500Y24314D02*
X167992D01*
Y22992D01*
X170714D01*
Y23100D01*
X170622Y23564D01*
X170358Y23958D01*
X169965Y24221D01*
X169500Y24314D01*
D02*
G37*
G36*
X94008Y32258D02*
X93193D01*
X93202Y32212D01*
X93507Y31756D01*
X93962Y31452D01*
X94008Y31443D01*
Y32258D01*
D02*
G37*
G36*
X51996Y27807D02*
Y26992D01*
X52811D01*
X52802Y27038D01*
X52497Y27494D01*
X52042Y27798D01*
X51996Y27807D01*
D02*
G37*
G36*
X94024Y29057D02*
X93978Y29048D01*
X93522Y28743D01*
X93218Y28288D01*
X93209Y28242D01*
X94024D01*
Y29057D01*
D02*
G37*
G36*
X51012Y27807D02*
X50966Y27798D01*
X50511Y27494D01*
X50206Y27038D01*
X50197Y26992D01*
X51012D01*
Y27807D01*
D02*
G37*
G36*
X141181Y50200D02*
X140492D01*
Y48898D01*
X142385D01*
Y48996D01*
X142294Y49457D01*
X142033Y49848D01*
X141642Y50109D01*
X141181Y50200D01*
D02*
G37*
G36*
X29949Y27807D02*
Y26992D01*
X30764D01*
X30755Y27038D01*
X30450Y27494D01*
X29994Y27798D01*
X29949Y27807D01*
D02*
G37*
G36*
X164258Y23807D02*
X164212Y23798D01*
X163757Y23494D01*
X163452Y23038D01*
X163443Y22992D01*
X164258D01*
Y23807D01*
D02*
G37*
G36*
X139508Y19758D02*
X138693D01*
X138702Y19712D01*
X139006Y19256D01*
X139462Y18952D01*
X139508Y18943D01*
Y19758D01*
D02*
G37*
G36*
X141307D02*
X140492D01*
Y18943D01*
X140538Y18952D01*
X140993Y19256D01*
X141298Y19712D01*
X141307Y19758D01*
D02*
G37*
G36*
X94008Y34057D02*
X93962Y34048D01*
X93507Y33744D01*
X93202Y33288D01*
X93193Y33242D01*
X94008D01*
Y34057D01*
D02*
G37*
G36*
X139508Y47913D02*
X137615D01*
Y47815D01*
X137706Y47354D01*
X137967Y46963D01*
X138358Y46702D01*
X138819Y46611D01*
X139508D01*
Y47913D01*
D02*
G37*
G36*
X142385D02*
X140492D01*
Y46611D01*
X141181D01*
X141642Y46702D01*
X142033Y46963D01*
X142294Y47354D01*
X142385Y47815D01*
Y47913D01*
D02*
G37*
G36*
X164258Y22008D02*
X163443D01*
X163452Y21962D01*
X163757Y21507D01*
X164212Y21202D01*
X164258Y21193D01*
Y22008D01*
D02*
G37*
G36*
X141181Y23389D02*
X140492D01*
Y22087D01*
X142385D01*
Y22185D01*
X142294Y22646D01*
X142033Y23037D01*
X141642Y23298D01*
X141181Y23389D01*
D02*
G37*
G36*
X167008Y24314D02*
X165500D01*
X165035Y24221D01*
X164642Y23958D01*
X164584Y23872D01*
X164750Y23905D01*
X165242Y23807D01*
Y22499D01*
Y21193D01*
X164750Y21095D01*
X164584Y21128D01*
X164642Y21042D01*
X165035Y20778D01*
X165500Y20686D01*
X167008D01*
Y22499D01*
Y24314D01*
D02*
G37*
G36*
X142385Y21102D02*
X137615D01*
Y21004D01*
X137706Y20543D01*
X137967Y20152D01*
X138358Y19891D01*
X138679Y19827D01*
X138595Y20250D01*
X138693Y20742D01*
X141307D01*
X141405Y20250D01*
X141321Y19827D01*
X141642Y19891D01*
X142033Y20152D01*
X142294Y20543D01*
X142385Y21004D01*
Y21102D01*
D02*
G37*
G36*
X170714Y22008D02*
X167992D01*
Y20686D01*
X169500D01*
X169965Y20778D01*
X170358Y21042D01*
X170622Y21436D01*
X170714Y21900D01*
Y22008D01*
D02*
G37*
%LPD*%
D11*
X189500Y16000D02*
D03*
Y20035D02*
D03*
D13*
X148500Y58250D02*
D03*
X152535D02*
D03*
X144500D02*
D03*
X140465D02*
D03*
X32437Y39500D02*
D03*
X28402D02*
D03*
X32437Y44000D02*
D03*
X28402D02*
D03*
X32437Y49000D02*
D03*
X28402D02*
D03*
X7000Y32500D02*
D03*
X2965D02*
D03*
D14*
X140000Y27500D02*
D03*
Y21595D02*
D03*
Y42500D02*
D03*
Y48406D02*
D03*
D18*
X167500Y32500D02*
D03*
X167500Y27500D02*
D03*
Y22500D02*
D03*
Y47500D02*
D03*
X167500Y42500D02*
D03*
X146500Y27500D02*
D03*
X146500Y32500D02*
D03*
X146500Y22500D02*
D03*
Y47500D02*
D03*
Y52500D02*
D03*
X146500Y42500D02*
D03*
X167500Y37500D02*
D03*
X146500D02*
D03*
D19*
X167500Y52500D02*
D03*
D22*
X17250Y46449D02*
Y60000D01*
X9750Y67500D02*
X17250Y60000D01*
X15000Y14756D02*
Y55500D01*
X13000Y57500D02*
X15000Y55500D01*
X5000Y57500D02*
X5000Y57500D01*
X13000D01*
X20000Y7500D02*
Y43299D01*
X17000Y3500D02*
X36000D01*
X40000Y7500D01*
X15500Y5000D02*
X17000Y3500D01*
X15500Y5000D02*
Y10500D01*
X17750Y12750D01*
Y33850D01*
X23157Y16093D02*
Y19000D01*
Y16093D02*
X27750Y11500D01*
X26307Y14693D02*
Y19000D01*
Y14693D02*
X28250Y12750D01*
X28000Y16500D02*
X30500Y14000D01*
X29500Y17750D02*
X32000Y15250D01*
X83000Y3500D02*
X85000Y5500D01*
X136000Y71500D02*
X140000Y67500D01*
X20500Y51500D02*
Y59500D01*
X14500Y65500D02*
X20500Y59500D01*
X15750Y71500D02*
X136000D01*
X14500Y70250D02*
X15750Y71500D01*
X14500Y65500D02*
Y70250D01*
X40860Y55500D02*
X42055Y54305D01*
X36000Y55500D02*
X40860D01*
X35250Y54750D02*
X36000Y55500D01*
X35250Y50000D02*
Y54750D01*
X46000Y55000D02*
X48354D01*
X39500Y48500D02*
X46000Y55000D01*
X39500Y33850D02*
Y48500D01*
X98453Y43500D02*
Y54445D01*
X74079Y33579D02*
X79555D01*
X68051Y27551D02*
X74079Y33579D01*
X65000Y27551D02*
X68051D01*
X94500Y32750D02*
X94516Y32734D01*
X98453Y22555D02*
Y35000D01*
X100250Y36000D02*
X101766Y37516D01*
X111445D01*
X26500Y7500D02*
X30000D01*
X70000Y64000D02*
Y67500D01*
X79555Y47358D02*
X83608D01*
X84000Y47750D01*
Y50000D01*
X70000Y64000D02*
X84000Y50000D01*
X86642Y54445D02*
Y60858D01*
X80000Y67500D02*
X86642Y60858D01*
X60000Y67500D02*
X73250Y54250D01*
X104500Y43421D02*
X111445D01*
X88610Y49000D02*
Y54445D01*
X100250Y31000D02*
Y36000D01*
X74250Y20750D02*
X78750Y16250D01*
X102390Y17610D02*
Y22555D01*
Y17610D02*
X103250Y16750D01*
X104358Y18392D02*
Y22555D01*
Y18392D02*
X104750Y18000D01*
X106327Y19250D02*
Y22555D01*
X95000Y15000D02*
X96750Y13250D01*
X78750Y16250D02*
X95750D01*
X97000Y15000D01*
X105000D01*
X106500Y45390D02*
X111445D01*
X116000Y63500D02*
X120000Y67500D01*
X111445Y31610D02*
X115890D01*
X146500Y22500D02*
X149500D01*
X150000Y22000D01*
Y7500D02*
Y22000D01*
X159750Y7500D02*
X160000D01*
X140000Y42500D02*
X146500D01*
X79173Y27673D02*
X79555D01*
X74390Y29642D02*
X79555D01*
X65000Y24402D02*
X66652D01*
X73860Y31610D01*
X79555D01*
X72679Y27931D02*
X74390Y29642D01*
X160000Y7500D02*
Y13750D01*
X158750Y15000D02*
X160000Y13750D01*
X167500Y47500D02*
X174000D01*
X167500Y32500D02*
X174000D01*
X167500Y27500D02*
X174250D01*
X96750Y13250D02*
X115750D01*
X111445Y27673D02*
X118584D01*
X111445Y29642D02*
X120108D01*
X161250Y16250D02*
Y26750D01*
Y16250D02*
X170000Y7500D01*
X111445Y33579D02*
X119671D01*
X133000Y38000D02*
X135000Y40000D01*
X124250Y38000D02*
X133000D01*
X122500Y39750D02*
X124250Y38000D01*
X102390Y50110D02*
Y54445D01*
Y50110D02*
X103000Y49500D01*
X106500D01*
X108250Y51250D01*
X122500Y39750D02*
Y45000D01*
X111445Y47358D02*
X120142D01*
X122500Y45000D01*
X111445Y49327D02*
X119923D01*
X122250Y47000D01*
X100421Y54445D02*
Y58671D01*
X100750Y59000D01*
X96484Y54445D02*
Y57984D01*
X179905Y37500D02*
Y47500D01*
X167500Y37500D02*
X174000D01*
X92547Y54445D02*
Y62297D01*
X93750Y63500D01*
X116000D01*
X94516Y54445D02*
Y59500D01*
X96484Y57984D02*
X100250Y61750D01*
X119671Y33579D02*
X123250Y30000D01*
X180000Y7500D02*
Y28500D01*
X180000Y28500D01*
X111445Y35547D02*
X125047D01*
X126000Y36500D01*
X186000Y3500D02*
X190000Y7500D01*
X126000Y36500D02*
X132750D01*
X94516Y22555D02*
Y27750D01*
Y32734D01*
X75923Y27673D02*
X79555D01*
X100750Y59000D02*
X107250D01*
X200000Y7500D02*
Y17500D01*
X156500Y3500D02*
X186000D01*
X155000Y5000D02*
X156500Y3500D01*
X182750Y42250D02*
X187500Y37500D01*
X193500Y17500D02*
X200000D01*
X119500Y16500D02*
X130750D01*
X193500Y21750D02*
Y53500D01*
X179905Y30906D02*
Y32500D01*
X171500Y22500D02*
X179905Y30906D01*
X164750Y22500D02*
X167500D01*
X132750Y36500D02*
X135000Y32500D01*
X179905D02*
Y35000D01*
Y37500D01*
X90579Y49921D02*
Y54445D01*
X124319Y48181D02*
X130931D01*
X132500Y49750D01*
X137906Y48406D02*
X140000D01*
X137250Y47750D02*
X137906Y48406D01*
X137250Y37500D02*
Y47750D01*
X29457Y26500D02*
X51504D01*
X24250Y49598D02*
Y61750D01*
X30000Y67500D01*
X1000D02*
X5000D01*
X9750D01*
X68734Y37516D02*
X79555D01*
X74297Y35547D02*
X79555D01*
X107250Y59000D02*
X108000Y58250D01*
X121000Y54250D02*
X130000Y63250D01*
Y67500D01*
X100250Y61750D02*
X126000D01*
X140000Y48406D02*
X140465Y48870D01*
X167500Y22500D02*
X171500D01*
X189760Y21750D02*
X193500D01*
Y17500D02*
Y21750D01*
X140000Y31500D02*
Y42500D01*
X120108Y29642D02*
X121750Y28000D01*
X131750D01*
X118584Y27673D02*
X119507Y26750D01*
X133250D01*
X134173Y27673D01*
X130500Y18250D02*
X135000Y22750D01*
Y25000D01*
X130750Y16500D02*
X139250Y25000D01*
X149500D01*
X182750Y42250D02*
Y58500D01*
X179905Y47500D02*
Y58595D01*
X177500Y61000D02*
X179905Y58595D01*
X1000Y32500D02*
Y67500D01*
Y32500D02*
X2965D01*
X1000Y1250D02*
Y32500D01*
Y1250D02*
X45000D01*
Y3000D01*
Y1250D02*
X144000D01*
Y3500D01*
X86642Y18892D02*
Y22555D01*
X83874Y18126D02*
X85876D01*
X82000Y20000D02*
X83874Y18126D01*
X85876D02*
X86642Y18892D01*
X82000Y20000D02*
Y21000D01*
X72750Y24500D02*
X75923Y27673D01*
X189500Y20035D02*
Y21490D01*
X189760Y21750D01*
X24750Y27551D02*
X25949D01*
X28000Y16500D02*
Y19750D01*
X26498Y21252D02*
X28000Y19750D01*
X24750Y21252D02*
X26498D01*
X29500Y17750D02*
Y21500D01*
X26598Y24402D02*
X29500Y21500D01*
X24750Y24402D02*
X26598D01*
X25949Y27551D02*
X32750Y20750D01*
X28000Y40500D02*
Y41500D01*
X184595Y23155D02*
Y28000D01*
Y23155D02*
X186000Y21750D01*
X189760D01*
X140465Y61000D02*
X152535D01*
X146500Y52500D02*
Y58000D01*
X24250Y33000D02*
Y37000D01*
X21250Y12750D02*
X26500Y7500D01*
X21250Y12750D02*
Y24500D01*
X21750Y25000D01*
Y40150D01*
X42055Y22500D02*
X68500D01*
X32750Y20750D02*
X74250D01*
X35756Y19000D02*
X73000D01*
X75000Y17000D01*
X73500Y15000D02*
X95000D01*
X72000Y16500D02*
X73500Y15000D01*
X72750Y13250D02*
X94250D01*
X32000Y15250D02*
X70750D01*
X72750Y13250D01*
X30500Y14000D02*
X69250D01*
X71750Y11500D01*
X113500D01*
X28250Y12750D02*
X56250D01*
X57569Y11431D01*
X65500D01*
X56000Y3500D02*
X83000D01*
X55000Y4500D02*
X56000Y3500D01*
X27750Y11500D02*
X54000D01*
X55000Y10500D01*
Y4500D02*
Y10500D01*
X32500Y17500D02*
Y19000D01*
Y17500D02*
X33500Y16500D01*
X72000D01*
X45250Y35000D02*
X71250D01*
X24250Y33000D02*
X27500Y29750D01*
X65000D01*
Y32000D02*
X70750D01*
X74297Y35547D01*
X62951Y43299D02*
X68734Y37516D01*
X63051Y46449D02*
X70016Y39484D01*
X79555D01*
X71146Y41453D02*
X79555D01*
X72329Y43421D02*
X79555D01*
X63000Y52750D02*
X72329Y43421D01*
X75173Y49327D02*
X79555D01*
X50000Y67500D02*
X55250Y62250D01*
X62250D01*
X75173Y49327D01*
X40000Y67500D02*
X47500Y60000D01*
X55000D01*
X84673Y54445D02*
Y60000D01*
X63000Y56500D02*
X74110Y45390D01*
X79555D01*
X144500Y58250D02*
X146500D01*
X140465Y48870D02*
Y58250D01*
Y61000D01*
X146500Y58250D02*
X148500D01*
X152535D02*
Y61000D01*
X116750Y19250D02*
X119500Y16500D01*
X104750Y18000D02*
X116000D01*
X103250Y16750D02*
X115250D01*
X100421Y22555D02*
Y26421D01*
X101250Y27250D01*
X106750D01*
X113250Y20750D01*
X117500D01*
X120000Y18250D01*
X130500D01*
X63000Y49598D02*
X71146Y41453D01*
X174250Y27500D02*
X177750Y31000D01*
X167500Y42500D02*
X174750D01*
X176500Y44250D01*
X177750Y63500D02*
X182750Y58500D01*
X168000Y63500D02*
X177750D01*
X163750Y67750D02*
X168000Y63500D01*
X163750Y67750D02*
Y69750D01*
X177750Y31000D02*
Y57250D01*
X159750Y69750D02*
X167250Y62250D01*
X172750D01*
X177750Y57250D01*
X134500Y63500D02*
X157250D01*
X158500Y66750D02*
X166000Y59250D01*
X171000D01*
X175500Y54750D01*
X176500Y44250D02*
Y51000D01*
X157250Y63500D02*
X163750Y57000D01*
X170500D01*
X176500Y51000D01*
X157000Y47500D02*
Y52500D01*
Y56500D01*
Y52500D02*
X167500D01*
X162500Y40250D02*
Y49750D01*
X158750Y15000D02*
Y35250D01*
X149500Y25000D02*
X151000Y26500D01*
Y30250D01*
X146500Y32500D02*
X150250D01*
X151000Y33250D01*
X146500Y47500D02*
X151000D01*
X157000D01*
X151000Y33250D02*
Y47500D01*
X155000Y5000D02*
Y10500D01*
X157000Y12500D01*
Y32500D01*
X131750Y28000D02*
X133750Y30000D01*
X138500D01*
X140000Y31500D01*
X156500Y37500D02*
X158750Y35250D01*
X157000Y47500D02*
X158875Y45625D01*
X155250Y45000D02*
X156750Y43500D01*
X152750Y45000D02*
X155250D01*
X122250Y47000D02*
X134000D01*
X132500Y49750D02*
X135750D01*
X158875Y39625D02*
Y45625D01*
Y39625D02*
X161000Y37500D01*
X167500D01*
X156750Y39750D02*
Y43500D01*
Y39750D02*
X164000Y32500D01*
X167500D01*
X108250Y51250D02*
X121250D01*
X124319Y48181D01*
X108000Y53500D02*
Y58250D01*
Y53500D02*
X109000Y52500D01*
X121750D01*
X125750Y56500D01*
X134500D01*
X138500Y52500D01*
X85750Y42500D02*
Y49000D01*
Y42500D02*
X94500Y33750D01*
Y32750D02*
Y33750D01*
X93250Y47250D02*
X95750D01*
X90579Y49921D02*
X93250Y47250D01*
X90500D02*
X96484Y41266D01*
Y22555D02*
Y41266D01*
X116000Y18000D02*
X119000Y15000D01*
X147250D01*
X115250Y16750D02*
X118750Y13250D01*
X145250D01*
X117500Y11500D02*
X125000D01*
X115750Y13250D02*
X117500Y11500D01*
X37750Y33234D02*
Y53500D01*
Y33234D02*
X38984Y32000D01*
X42250D01*
X45250Y35000D01*
X106327Y19250D02*
X116750D01*
X134173Y27673D02*
X140000D01*
X146500D01*
X28000Y33850D02*
Y39500D01*
Y40500D01*
Y44000D01*
Y46449D01*
Y49000D01*
Y54500D01*
D23*
X5000Y17500D02*
X9250Y21750D01*
Y30701D01*
X86642Y22555D02*
X88610D01*
Y37000D01*
X7000Y32500D02*
X7451D01*
X9250Y30701D01*
X187500Y47500D02*
X191750Y43250D01*
Y30500D02*
Y43250D01*
X189500Y14000D02*
Y16000D01*
X191750Y29250D02*
Y30500D01*
X190500Y28000D02*
X191750Y29250D01*
X154500Y18250D02*
Y42500D01*
X32606Y37000D02*
Y39500D01*
Y44000D01*
Y49000D01*
Y54500D01*
D24*
X191000Y67500D02*
X200000D01*
X187500Y64000D02*
X191000Y67500D01*
X187500Y47500D02*
Y64000D01*
D25*
X200000Y57500D02*
D03*
X128500Y52500D02*
D03*
X5000Y17500D02*
D03*
D26*
X200000Y47500D02*
D03*
Y37500D02*
D03*
Y27500D02*
D03*
Y17500D02*
D03*
X128500Y42500D02*
D03*
Y32500D02*
D03*
Y22500D02*
D03*
X5000Y67500D02*
D03*
Y57500D02*
D03*
Y47500D02*
D03*
Y37500D02*
D03*
Y27500D02*
D03*
X187500Y37500D02*
D03*
D27*
X130000Y67500D02*
D03*
X180000D02*
D03*
X140000D02*
D03*
X120000D02*
D03*
X110000D02*
D03*
X100000D02*
D03*
X90000D02*
D03*
X80000D02*
D03*
X70000D02*
D03*
X60000D02*
D03*
X50000D02*
D03*
X40000D02*
D03*
X30000D02*
D03*
X40000Y7500D02*
D03*
X30000D02*
D03*
X200000Y67500D02*
D03*
Y7500D02*
D03*
X50000D02*
D03*
X60000D02*
D03*
X70000D02*
D03*
X20000D02*
D03*
X80000D02*
D03*
X20000Y67500D02*
D03*
X90000Y7500D02*
D03*
X100000D02*
D03*
X110000D02*
D03*
X120000D02*
D03*
X130000D02*
D03*
X140000D02*
D03*
X150000D02*
D03*
X160000D02*
D03*
X170000D02*
D03*
X180000D02*
D03*
X190000D02*
D03*
X170000Y67500D02*
D03*
X150000D02*
D03*
D28*
X10000Y7500D02*
D03*
D29*
X187500Y47500D02*
D03*
D30*
X32606Y37000D02*
D03*
X21750Y40150D02*
D03*
X20000Y43299D02*
D03*
X24250Y49598D02*
D03*
X28000Y54500D02*
D03*
Y46449D02*
D03*
X32606Y54500D02*
D03*
X48354Y55000D02*
D03*
X17250Y46449D02*
D03*
X15000Y14756D02*
D03*
X28000Y33850D02*
D03*
X17750Y33850D02*
D03*
X9250Y30701D02*
D03*
X35756Y19000D02*
D03*
X32500D02*
D03*
X26307D02*
D03*
X23157D02*
D03*
X24750Y21252D02*
D03*
Y24402D02*
D03*
Y27551D02*
D03*
X85000Y5500D02*
D03*
X65500Y11431D02*
D03*
X113500Y11500D02*
D03*
X94250Y13250D02*
D03*
X125000Y11500D02*
D03*
X75000Y17000D02*
D03*
X105000Y15000D02*
D03*
X20500Y51500D02*
D03*
X37750Y53500D02*
D03*
X42055Y54305D02*
D03*
X35250Y50000D02*
D03*
X39500Y33850D02*
D03*
X24250Y37000D02*
D03*
X63000Y49598D02*
D03*
X62951Y43299D02*
D03*
X63051Y46449D02*
D03*
X63000Y52750D02*
D03*
X98453Y43500D02*
D03*
X65000Y24402D02*
D03*
Y27551D02*
D03*
Y32000D02*
D03*
X63000Y56500D02*
D03*
X88610Y37000D02*
D03*
X94500Y32750D02*
D03*
X71250Y35000D02*
D03*
X98453D02*
D03*
X65000Y29750D02*
D03*
X100250Y31000D02*
D03*
X106500Y45390D02*
D03*
X55000Y60000D02*
D03*
X84673D02*
D03*
X73250Y54250D02*
D03*
X90500Y47250D02*
D03*
X104500Y43421D02*
D03*
X88610Y49000D02*
D03*
X95750Y47250D02*
D03*
X72679Y27931D02*
D03*
X152750Y45000D02*
D03*
X149250Y37500D02*
D03*
X156500D02*
D03*
X164750Y47500D02*
D03*
X134500Y63500D02*
D03*
X159750Y69750D02*
D03*
X145250Y13250D02*
D03*
X147250Y15000D02*
D03*
X151000Y30250D02*
D03*
X135000Y25000D02*
D03*
X115890Y31610D02*
D03*
X161250Y26750D02*
D03*
X123250Y30000D02*
D03*
X135000Y40000D02*
D03*
X134000Y47000D02*
D03*
X162500Y40250D02*
D03*
X94516Y59500D02*
D03*
X121000Y54250D02*
D03*
X126000Y61750D02*
D03*
X157000Y56500D02*
D03*
X135750Y49750D02*
D03*
X138500Y52500D02*
D03*
X146500Y58250D02*
D03*
X180000Y28500D02*
D03*
X157000Y32500D02*
D03*
X135000D02*
D03*
X94516Y27750D02*
D03*
X72750Y24500D02*
D03*
X193500Y53500D02*
D03*
X163750Y69750D02*
D03*
X158500Y66750D02*
D03*
X175500Y54750D02*
D03*
X154500Y42500D02*
D03*
Y18250D02*
D03*
X164750Y22500D02*
D03*
X140000Y20250D02*
D03*
X179905Y35000D02*
D03*
X85750Y49000D02*
D03*
X137250Y37500D02*
D03*
X51504Y26500D02*
D03*
X29457D02*
D03*
X42055Y22500D02*
D03*
X68500D02*
D03*
X162500Y49750D02*
D03*
X189760Y21750D02*
D03*
X177500Y61000D02*
D03*
X191750Y30500D02*
D03*
X45000Y3000D02*
D03*
X144000Y3500D02*
D03*
X82000Y21000D02*
D03*
X189500Y14000D02*
D03*
D31*
X190500Y28000D02*
D03*
X184595D02*
D03*
D32*
X174000Y32500D02*
D03*
X179905D02*
D03*
X174000Y37500D02*
D03*
X179905D02*
D03*
X174000Y47500D02*
D03*
X179905D02*
D03*
D33*
X106327Y22555D02*
D03*
X104358D02*
D03*
X102390D02*
D03*
X100421D02*
D03*
X98453D02*
D03*
X96484D02*
D03*
X94516D02*
D03*
X92547D02*
D03*
X90579D02*
D03*
X88610D02*
D03*
X86642D02*
D03*
X84673D02*
D03*
X84673Y54445D02*
D03*
X86642D02*
D03*
X88610D02*
D03*
X90579Y54445D02*
D03*
X92547D02*
D03*
X94516D02*
D03*
X96484D02*
D03*
X98453D02*
D03*
X100421Y54445D02*
D03*
X102390D02*
D03*
X104358D02*
D03*
X106327D02*
D03*
D34*
X79555Y27673D02*
D03*
Y29642D02*
D03*
Y31610D02*
D03*
Y33579D02*
D03*
X79555Y35547D02*
D03*
Y37516D02*
D03*
Y39484D02*
D03*
Y41453D02*
D03*
Y43421D02*
D03*
X79555Y45390D02*
D03*
Y47358D02*
D03*
Y49327D02*
D03*
X111445Y49327D02*
D03*
X111445Y47358D02*
D03*
Y45390D02*
D03*
Y43421D02*
D03*
Y41453D02*
D03*
Y39484D02*
D03*
Y37516D02*
D03*
Y35547D02*
D03*
Y33579D02*
D03*
Y31610D02*
D03*
Y29642D02*
D03*
Y27673D02*
D03*
M02*
