%FSLAX25Y25*%
%MOIN*%
G70*
G01*
G75*
G04 Layer_Physical_Order=1*
G04 Layer_Color=255*
G04:AMPARAMS|DCode=10|XSize=110.24mil|YSize=43.31mil|CornerRadius=2.17mil|HoleSize=0mil|Usage=FLASHONLY|Rotation=0.000|XOffset=0mil|YOffset=0mil|HoleType=Round|Shape=RoundedRectangle|*
%AMROUNDEDRECTD10*
21,1,0.11024,0.03898,0,0,0.0*
21,1,0.10591,0.04331,0,0,0.0*
1,1,0.00433,0.05295,-0.01949*
1,1,0.00433,-0.05295,-0.01949*
1,1,0.00433,-0.05295,0.01949*
1,1,0.00433,0.05295,0.01949*
%
%ADD10ROUNDEDRECTD10*%
G04:AMPARAMS|DCode=11|XSize=19.69mil|YSize=23.62mil|CornerRadius=8.86mil|HoleSize=0mil|Usage=FLASHONLY|Rotation=270.000|XOffset=0mil|YOffset=0mil|HoleType=Round|Shape=RoundedRectangle|*
%AMROUNDEDRECTD11*
21,1,0.01969,0.00591,0,0,270.0*
21,1,0.00197,0.02362,0,0,270.0*
1,1,0.01772,-0.00295,-0.00098*
1,1,0.01772,-0.00295,0.00098*
1,1,0.01772,0.00295,0.00098*
1,1,0.01772,0.00295,-0.00098*
%
%ADD11ROUNDEDRECTD11*%
G04:AMPARAMS|DCode=12|XSize=110.24mil|YSize=43.31mil|CornerRadius=2.17mil|HoleSize=0mil|Usage=FLASHONLY|Rotation=270.000|XOffset=0mil|YOffset=0mil|HoleType=Round|Shape=RoundedRectangle|*
%AMROUNDEDRECTD12*
21,1,0.11024,0.03898,0,0,270.0*
21,1,0.10591,0.04331,0,0,270.0*
1,1,0.00433,-0.01949,-0.05295*
1,1,0.00433,-0.01949,0.05295*
1,1,0.00433,0.01949,0.05295*
1,1,0.00433,0.01949,-0.05295*
%
%ADD12ROUNDEDRECTD12*%
G04:AMPARAMS|DCode=13|XSize=19.69mil|YSize=23.62mil|CornerRadius=8.86mil|HoleSize=0mil|Usage=FLASHONLY|Rotation=180.000|XOffset=0mil|YOffset=0mil|HoleType=Round|Shape=RoundedRectangle|*
%AMROUNDEDRECTD13*
21,1,0.01969,0.00591,0,0,180.0*
21,1,0.00197,0.02362,0,0,180.0*
1,1,0.01772,-0.00098,0.00295*
1,1,0.01772,0.00098,0.00295*
1,1,0.01772,0.00098,-0.00295*
1,1,0.01772,-0.00098,-0.00295*
%
%ADD13ROUNDEDRECTD13*%
G04:AMPARAMS|DCode=14|XSize=23.62mil|YSize=35.43mil|CornerRadius=5.91mil|HoleSize=0mil|Usage=FLASHONLY|Rotation=90.000|XOffset=0mil|YOffset=0mil|HoleType=Round|Shape=RoundedRectangle|*
%AMROUNDEDRECTD14*
21,1,0.02362,0.02362,0,0,90.0*
21,1,0.01181,0.03543,0,0,90.0*
1,1,0.01181,0.01181,0.00591*
1,1,0.01181,0.01181,-0.00591*
1,1,0.01181,-0.01181,-0.00591*
1,1,0.01181,-0.01181,0.00591*
%
%ADD14ROUNDEDRECTD14*%
%ADD15O,0.02165X0.06890*%
%ADD16O,0.06890X0.02165*%
G04:AMPARAMS|DCode=17|XSize=41.73mil|YSize=25.59mil|CornerRadius=6.4mil|HoleSize=0mil|Usage=FLASHONLY|Rotation=0.000|XOffset=0mil|YOffset=0mil|HoleType=Round|Shape=RoundedRectangle|*
%AMROUNDEDRECTD17*
21,1,0.04173,0.01280,0,0,0.0*
21,1,0.02894,0.02559,0,0,0.0*
1,1,0.01280,0.01447,-0.00640*
1,1,0.01280,-0.01447,-0.00640*
1,1,0.01280,-0.01447,0.00640*
1,1,0.01280,0.01447,0.00640*
%
%ADD17ROUNDEDRECTD17*%
G04:AMPARAMS|DCode=18|XSize=52mil|YSize=24mil|CornerRadius=6mil|HoleSize=0mil|Usage=FLASHONLY|Rotation=0.000|XOffset=0mil|YOffset=0mil|HoleType=Round|Shape=RoundedRectangle|*
%AMROUNDEDRECTD18*
21,1,0.05200,0.01200,0,0,0.0*
21,1,0.04000,0.02400,0,0,0.0*
1,1,0.01200,0.02000,-0.00600*
1,1,0.01200,-0.02000,-0.00600*
1,1,0.01200,-0.02000,0.00600*
1,1,0.01200,0.02000,0.00600*
%
%ADD18ROUNDEDRECTD18*%
%ADD19R,0.05000X0.02400*%
G04:AMPARAMS|DCode=20|XSize=25.59mil|YSize=39.37mil|CornerRadius=6.4mil|HoleSize=0mil|Usage=FLASHONLY|Rotation=180.000|XOffset=0mil|YOffset=0mil|HoleType=Round|Shape=RoundedRectangle|*
%AMROUNDEDRECTD20*
21,1,0.02559,0.02658,0,0,180.0*
21,1,0.01280,0.03937,0,0,180.0*
1,1,0.01280,-0.00640,0.01329*
1,1,0.01280,0.00640,0.01329*
1,1,0.01280,0.00640,-0.01329*
1,1,0.01280,-0.00640,-0.01329*
%
%ADD20ROUNDEDRECTD20*%
G04:AMPARAMS|DCode=21|XSize=21.65mil|YSize=39.37mil|CornerRadius=5.41mil|HoleSize=0mil|Usage=FLASHONLY|Rotation=180.000|XOffset=0mil|YOffset=0mil|HoleType=Round|Shape=RoundedRectangle|*
%AMROUNDEDRECTD21*
21,1,0.02165,0.02854,0,0,180.0*
21,1,0.01083,0.03937,0,0,180.0*
1,1,0.01083,-0.00541,0.01427*
1,1,0.01083,0.00541,0.01427*
1,1,0.01083,0.00541,-0.01427*
1,1,0.01083,-0.00541,-0.01427*
%
%ADD21ROUNDEDRECTD21*%
%ADD22C,0.00591*%
%ADD23C,0.01181*%
%ADD24C,0.03937*%
G04:AMPARAMS|DCode=25|XSize=59.06mil|YSize=59.06mil|CornerRadius=8.86mil|HoleSize=0mil|Usage=FLASHONLY|Rotation=270.000|XOffset=0mil|YOffset=0mil|HoleType=Round|Shape=RoundedRectangle|*
%AMROUNDEDRECTD25*
21,1,0.05906,0.04134,0,0,270.0*
21,1,0.04134,0.05906,0,0,270.0*
1,1,0.01772,-0.02067,-0.02067*
1,1,0.01772,-0.02067,0.02067*
1,1,0.01772,0.02067,0.02067*
1,1,0.01772,0.02067,-0.02067*
%
%ADD25ROUNDEDRECTD25*%
%ADD26C,0.05906*%
%ADD27C,0.05906*%
%ADD28R,0.05906X0.05906*%
G04:AMPARAMS|DCode=29|XSize=59.06mil|YSize=59.06mil|CornerRadius=14.76mil|HoleSize=0mil|Usage=FLASHONLY|Rotation=270.000|XOffset=0mil|YOffset=0mil|HoleType=Round|Shape=RoundedRectangle|*
%AMROUNDEDRECTD29*
21,1,0.05906,0.02953,0,0,270.0*
21,1,0.02953,0.05906,0,0,270.0*
1,1,0.02953,-0.01476,-0.01476*
1,1,0.02953,-0.01476,0.01476*
1,1,0.02953,0.01476,0.01476*
1,1,0.02953,0.01476,-0.01476*
%
%ADD29ROUNDEDRECTD29*%
%ADD30C,0.01575*%
G36*
X208661Y0D02*
X0D01*
Y74803D01*
X208661D01*
Y0D01*
D02*
G37*
%LPC*%
G36*
X95823Y27258D02*
X95008D01*
Y26443D01*
X95053Y26452D01*
X95509Y26757D01*
X95814Y27212D01*
X95823Y27258D01*
D02*
G37*
G36*
X94024D02*
X93209D01*
X93218Y27212D01*
X93522Y26757D01*
X93978Y26452D01*
X94024Y26443D01*
Y27258D01*
D02*
G37*
G36*
X51996Y27807D02*
Y26992D01*
X52811D01*
X52802Y27038D01*
X52497Y27494D01*
X52042Y27798D01*
X51996Y27807D01*
D02*
G37*
G36*
X51012D02*
X50966Y27798D01*
X50511Y27494D01*
X50206Y27038D01*
X50197Y26992D01*
X51012D01*
Y27807D01*
D02*
G37*
G36*
X52811Y26008D02*
X51996D01*
Y25193D01*
X52042Y25202D01*
X52497Y25506D01*
X52802Y25962D01*
X52811Y26008D01*
D02*
G37*
G36*
X164258Y22008D02*
X163443D01*
X163452Y21962D01*
X163757Y21507D01*
X164212Y21202D01*
X164258Y21193D01*
Y22008D01*
D02*
G37*
G36*
X159028Y22222D02*
Y20992D01*
X160100D01*
X160025Y21371D01*
X159698Y21860D01*
X159210Y22186D01*
X159028Y22222D01*
D02*
G37*
G36*
X51012Y26008D02*
X50197D01*
X50206Y25962D01*
X50511Y25506D01*
X50966Y25202D01*
X51012Y25193D01*
Y26008D01*
D02*
G37*
G36*
X164258Y23807D02*
X164212Y23798D01*
X163757Y23494D01*
X163452Y23038D01*
X163443Y22992D01*
X164258D01*
Y23807D01*
D02*
G37*
G36*
X103508Y32472D02*
X102278D01*
X102314Y32290D01*
X102640Y31802D01*
X103129Y31475D01*
X103508Y31400D01*
Y32472D01*
D02*
G37*
G36*
X179413Y36307D02*
X179368Y36298D01*
X178912Y35993D01*
X178607Y35538D01*
X178598Y35492D01*
X179413D01*
Y36307D01*
D02*
G37*
G36*
Y34508D02*
X178598D01*
X178607Y34462D01*
X178912Y34007D01*
X179368Y33702D01*
X179413Y33693D01*
Y34508D01*
D02*
G37*
G36*
X146214Y37008D02*
X143492D01*
Y35686D01*
X145000D01*
X145465Y35778D01*
X145858Y36042D01*
X146122Y36435D01*
X146214Y36900D01*
Y37008D01*
D02*
G37*
G36*
X142508D02*
X139786D01*
Y36900D01*
X139878Y36435D01*
X140142Y36042D01*
X140535Y35778D01*
X141000Y35686D01*
X142508D01*
Y37008D01*
D02*
G37*
G36*
X104492Y34529D02*
Y33457D01*
X105722D01*
X105686Y33639D01*
X105360Y34127D01*
X104871Y34454D01*
X104492Y34529D01*
D02*
G37*
G36*
X67508D02*
X67129Y34454D01*
X66640Y34127D01*
X66314Y33639D01*
X66278Y33457D01*
X67508D01*
Y34529D01*
D02*
G37*
G36*
X105722Y32472D02*
X104492D01*
Y31400D01*
X104871Y31475D01*
X105360Y31802D01*
X105686Y32290D01*
X105722Y32472D01*
D02*
G37*
G36*
X103508Y34529D02*
X103129Y34454D01*
X102640Y34127D01*
X102314Y33639D01*
X102278Y33457D01*
X103508D01*
Y34529D01*
D02*
G37*
G36*
X68492D02*
Y33457D01*
X69722D01*
X69686Y33639D01*
X69360Y34127D01*
X68871Y34454D01*
X68492Y34529D01*
D02*
G37*
G36*
X158043Y22222D02*
X157861Y22186D01*
X157373Y21860D01*
X157046Y21371D01*
X156971Y20992D01*
X158043D01*
Y22222D01*
D02*
G37*
G36*
X13543Y11043D02*
X6457D01*
Y3957D01*
X13543D01*
Y11043D01*
D02*
G37*
G36*
X71181Y12889D02*
X68819D01*
X68358Y12798D01*
X67967Y12537D01*
X67706Y12146D01*
X67615Y11685D01*
Y10504D01*
X67678Y10185D01*
X67473Y10027D01*
X66905Y9287D01*
X66548Y8425D01*
X66426Y7500D01*
X66548Y6575D01*
X66905Y5713D01*
X67473Y4973D01*
X68213Y4405D01*
X69075Y4048D01*
X70000Y3926D01*
X70925Y4048D01*
X71787Y4405D01*
X72527Y4973D01*
X73095Y5713D01*
X73452Y6575D01*
X73574Y7500D01*
X73452Y8425D01*
X73095Y9287D01*
X72527Y10027D01*
X72322Y10185D01*
X72385Y10504D01*
Y11685D01*
X72294Y12146D01*
X72033Y12537D01*
X71642Y12798D01*
X71181Y12889D01*
D02*
G37*
G36*
X53210Y14264D02*
X51996D01*
Y10786D01*
X52157Y10818D01*
X52710Y11187D01*
X53080Y11741D01*
X53210Y12394D01*
Y14264D01*
D02*
G37*
G36*
X143508Y4807D02*
X143462Y4798D01*
X143007Y4493D01*
X142702Y4038D01*
X142693Y3992D01*
X143508D01*
Y4807D01*
D02*
G37*
G36*
X46722Y4472D02*
X43278D01*
X43314Y4290D01*
X43640Y3802D01*
X43805Y3692D01*
X43702Y3538D01*
X43693Y3492D01*
X46307D01*
X46298Y3538D01*
X46195Y3692D01*
X46360Y3802D01*
X46686Y4290D01*
X46722Y4472D01*
D02*
G37*
G36*
X46307Y2508D02*
X45492D01*
Y1693D01*
X45538Y1702D01*
X45994Y2007D01*
X46298Y2462D01*
X46307Y2508D01*
D02*
G37*
G36*
X44508D02*
X43693D01*
X43702Y2462D01*
X44006Y2007D01*
X44462Y1702D01*
X44508Y1693D01*
Y2508D01*
D02*
G37*
G36*
X145307Y3008D02*
X144492D01*
Y2193D01*
X144538Y2202D01*
X144993Y2507D01*
X145298Y2962D01*
X145307Y3008D01*
D02*
G37*
G36*
X143508D02*
X142693D01*
X142702Y2962D01*
X143007Y2507D01*
X143462Y2202D01*
X143508Y2193D01*
Y3008D01*
D02*
G37*
G36*
X101181Y18795D02*
X98819D01*
X98358Y18703D01*
X97967Y18442D01*
X97706Y18051D01*
X97677Y17903D01*
X95250D01*
X94904Y17834D01*
X94611Y17639D01*
X93611Y16639D01*
X93416Y16346D01*
X93347Y16000D01*
Y14304D01*
X93257Y14243D01*
X92952Y13788D01*
X92845Y13250D01*
X92952Y12712D01*
X93257Y12257D01*
X93712Y11952D01*
X94250Y11845D01*
X94788Y11952D01*
X95243Y12257D01*
X95548Y12712D01*
X95655Y13250D01*
X95548Y13788D01*
X95243Y14243D01*
X95153Y14304D01*
Y15626D01*
X95624Y16097D01*
X97677D01*
X97706Y15949D01*
X97967Y15558D01*
X98358Y15297D01*
X98819Y15205D01*
X101181D01*
X101642Y15297D01*
X102033Y15558D01*
X102294Y15949D01*
X102385Y16409D01*
Y17591D01*
X102294Y18051D01*
X102033Y18442D01*
X101642Y18703D01*
X101181Y18795D01*
D02*
G37*
G36*
X77529Y20508D02*
X76457D01*
Y19278D01*
X76639Y19314D01*
X77127Y19640D01*
X77454Y20129D01*
X77529Y20508D01*
D02*
G37*
G36*
X75472D02*
X74400D01*
X74475Y20129D01*
X74802Y19640D01*
X75290Y19314D01*
X75472Y19278D01*
Y20508D01*
D02*
G37*
G36*
X140492Y21557D02*
Y20742D01*
X141307D01*
X141298Y20788D01*
X140993Y21244D01*
X140538Y21548D01*
X140492Y21557D01*
D02*
G37*
G36*
X139508D02*
X139462Y21548D01*
X139006Y21244D01*
X138702Y20788D01*
X138693Y20742D01*
X139508D01*
Y21557D01*
D02*
G37*
G36*
X160100Y20008D02*
X159028D01*
Y18778D01*
X159210Y18814D01*
X159698Y19140D01*
X160025Y19629D01*
X160100Y20008D01*
D02*
G37*
G36*
X158043Y17222D02*
X157861Y17186D01*
X157373Y16860D01*
X157046Y16371D01*
X156971Y15992D01*
X158043D01*
Y17222D01*
D02*
G37*
G36*
X51996Y18726D02*
Y15248D01*
X53210D01*
Y17118D01*
X53080Y17771D01*
X52710Y18324D01*
X52157Y18694D01*
X51996Y18726D01*
D02*
G37*
G36*
X158043Y20008D02*
X156971D01*
X157046Y19629D01*
X157373Y19140D01*
X157861Y18814D01*
X158043Y18778D01*
Y20008D01*
D02*
G37*
G36*
X159028Y17222D02*
Y15992D01*
X160100D01*
X160025Y16371D01*
X159698Y16860D01*
X159210Y17186D01*
X159028Y17222D01*
D02*
G37*
G36*
X136758Y37008D02*
X135943D01*
X135952Y36962D01*
X136257Y36507D01*
X136712Y36202D01*
X136758Y36193D01*
Y37008D01*
D02*
G37*
G36*
X194807Y53008D02*
X193992D01*
Y52193D01*
X194038Y52202D01*
X194493Y52507D01*
X194798Y52962D01*
X194807Y53008D01*
D02*
G37*
G36*
X193008D02*
X192193D01*
X192202Y52962D01*
X192507Y52507D01*
X192962Y52202D01*
X193008Y52193D01*
Y53008D01*
D02*
G37*
G36*
X175600Y59508D02*
X174528D01*
Y58278D01*
X174710Y58314D01*
X175198Y58640D01*
X175525Y59129D01*
X175600Y59508D01*
D02*
G37*
G36*
X202067Y61072D02*
X197933D01*
X197357Y60958D01*
X196869Y60631D01*
X196542Y60143D01*
X196428Y59567D01*
Y58662D01*
X195949Y58517D01*
X195877Y58625D01*
X195610Y58804D01*
X195295Y58866D01*
X190492D01*
Y56094D01*
Y53323D01*
X192130D01*
X192095Y53500D01*
X192193Y53992D01*
X194807D01*
X194905Y53500D01*
X194870Y53323D01*
X195295D01*
X195610Y53385D01*
X195877Y53564D01*
X196055Y53831D01*
X196118Y54146D01*
Y54631D01*
X196597Y54776D01*
X196869Y54369D01*
X197357Y54042D01*
X197933Y53928D01*
X202067D01*
X202257Y53966D01*
X203097Y53126D01*
Y50062D01*
X202623Y49902D01*
X202527Y50027D01*
X201787Y50595D01*
X200925Y50952D01*
X200000Y51074D01*
X199075Y50952D01*
X198213Y50595D01*
X197473Y50027D01*
X196905Y49287D01*
X196548Y48425D01*
X196426Y47500D01*
X196548Y46575D01*
X196905Y45713D01*
X196918Y45696D01*
X194626Y43403D01*
X184000D01*
X184000Y43403D01*
X183712Y43346D01*
X183654Y43334D01*
X183361Y43139D01*
X181361Y41139D01*
X181166Y40846D01*
X181097Y40500D01*
Y36392D01*
X180656Y36156D01*
X180443Y36298D01*
X180398Y36307D01*
Y34999D01*
Y33693D01*
X180443Y33702D01*
X180656Y33844D01*
X180879Y33725D01*
X180953Y33230D01*
X178876Y31153D01*
X158288D01*
X158052Y31594D01*
X158298Y31962D01*
X158405Y32500D01*
X158298Y33038D01*
X157993Y33494D01*
X157538Y33798D01*
X157000Y33905D01*
X156462Y33798D01*
X156007Y33494D01*
X155946Y33403D01*
X136054D01*
X135994Y33494D01*
X135538Y33798D01*
X135000Y33905D01*
X134462Y33798D01*
X134007Y33494D01*
X133702Y33038D01*
X133595Y32500D01*
X133702Y31962D01*
X134007Y31506D01*
X134462Y31202D01*
X135000Y31095D01*
X135538Y31202D01*
X135994Y31506D01*
X136054Y31597D01*
X149712D01*
X149948Y31156D01*
X149702Y30788D01*
X149595Y30250D01*
X149687Y29790D01*
X149369Y29403D01*
X132250D01*
X132250Y29403D01*
X131962Y29346D01*
X131904Y29334D01*
X131611Y29139D01*
X131376Y28903D01*
X130357D01*
X130260Y29394D01*
X130287Y29405D01*
X131027Y29973D01*
X131595Y30713D01*
X131952Y31575D01*
X132074Y32500D01*
X131952Y33425D01*
X131595Y34287D01*
X131027Y35027D01*
X130287Y35595D01*
X129425Y35952D01*
X128500Y36074D01*
X127575Y35952D01*
X126713Y35595D01*
X125973Y35027D01*
X125405Y34287D01*
X125048Y33425D01*
X125045Y33403D01*
X122124D01*
X121389Y34139D01*
X121096Y34334D01*
X120750Y34403D01*
X111000D01*
X110654Y34334D01*
X110361Y34139D01*
X106126Y29903D01*
X101705D01*
X101469Y30344D01*
X101548Y30462D01*
X101655Y31000D01*
X101548Y31538D01*
X101243Y31993D01*
X100788Y32298D01*
X100250Y32405D01*
X99712Y32298D01*
X99257Y31993D01*
X99196Y31903D01*
X96131D01*
X95814Y32289D01*
X95807Y32258D01*
X93193D01*
X93186Y32289D01*
X92869Y31903D01*
X70003D01*
X69686Y32290D01*
X69686Y32290D01*
X69722Y32472D01*
X66311D01*
X66298Y32538D01*
X66250Y32609D01*
X66199Y32866D01*
Y33063D01*
X66251Y33321D01*
X65789Y33130D01*
X65538Y33298D01*
X65000Y33405D01*
X64462Y33298D01*
X64007Y32994D01*
X63946Y32903D01*
X63750D01*
X63750Y32903D01*
X63462Y32846D01*
X63404Y32834D01*
X63111Y32639D01*
X63111Y32639D01*
X62172Y31699D01*
X61675Y31748D01*
X61568Y31907D01*
X61391Y32026D01*
Y32526D01*
X61568Y32644D01*
X61938Y33198D01*
X61970Y33358D01*
X54030D01*
X54062Y33198D01*
X54431Y32644D01*
X54609Y32526D01*
Y32026D01*
X54431Y31907D01*
X54062Y31354D01*
X53932Y30701D01*
X54062Y30048D01*
X54431Y29495D01*
X54609Y29376D01*
Y28876D01*
X54431Y28758D01*
X54062Y28204D01*
X53932Y27551D01*
X54062Y26898D01*
X54431Y26345D01*
X54609Y26226D01*
Y25726D01*
X54431Y25608D01*
X54062Y25054D01*
X53932Y24402D01*
X54062Y23749D01*
X54431Y23195D01*
X54609Y23077D01*
Y22577D01*
X54431Y22458D01*
X54062Y21905D01*
X53932Y21252D01*
X54062Y20599D01*
X54431Y20046D01*
X54985Y19676D01*
X55638Y19546D01*
X60362D01*
X61015Y19676D01*
X61156Y19770D01*
X61597Y19534D01*
Y18374D01*
X59361Y16139D01*
X59166Y15846D01*
X59097Y15500D01*
Y10955D01*
X59075Y10952D01*
X58213Y10595D01*
X57473Y10027D01*
X56905Y9287D01*
X56548Y8425D01*
X56426Y7500D01*
X56548Y6575D01*
X56905Y5713D01*
X57473Y4973D01*
X58213Y4405D01*
X59075Y4048D01*
X60000Y3926D01*
X60925Y4048D01*
X61787Y4405D01*
X62527Y4973D01*
X63095Y5713D01*
X63452Y6575D01*
X63574Y7500D01*
X63452Y8425D01*
X63095Y9287D01*
X62527Y10027D01*
X61787Y10595D01*
X60925Y10952D01*
X60903Y10955D01*
Y15126D01*
X63139Y17361D01*
X63139Y17361D01*
X63334Y17654D01*
X63403Y18000D01*
Y20750D01*
X63403Y20750D01*
X63346Y21038D01*
X63334Y21096D01*
X63139Y21389D01*
X62637Y21891D01*
X62344Y22086D01*
X61998Y22155D01*
X61771D01*
X61568Y22458D01*
X61391Y22577D01*
Y23077D01*
X61568Y23195D01*
X61771Y23498D01*
X63946D01*
X64007Y23408D01*
X64462Y23104D01*
X65000Y22997D01*
X65538Y23104D01*
X65993Y23408D01*
X66298Y23864D01*
X66405Y24402D01*
X66298Y24939D01*
X65993Y25395D01*
X65538Y25700D01*
X65000Y25806D01*
X64462Y25700D01*
X64007Y25395D01*
X63946Y25305D01*
X61771D01*
X61568Y25608D01*
X61391Y25726D01*
Y26226D01*
X61568Y26345D01*
X61771Y26648D01*
X63946D01*
X64007Y26558D01*
X64462Y26253D01*
X65000Y26146D01*
X65538Y26253D01*
X65993Y26558D01*
X66298Y27013D01*
X66405Y27551D01*
X66298Y28089D01*
X65993Y28545D01*
Y28757D01*
X66054Y28847D01*
X67000D01*
X67346Y28916D01*
X67639Y29111D01*
X67639Y29111D01*
X67639Y29111D01*
X68624Y30097D01*
X72914D01*
X73076Y29707D01*
X72759Y29320D01*
X72679Y29336D01*
X72141Y29229D01*
X71686Y28925D01*
X71381Y28469D01*
X71274Y27931D01*
X71381Y27393D01*
X71686Y26938D01*
X72141Y26633D01*
X72679Y26526D01*
X73217Y26633D01*
X73673Y26938D01*
X73903Y27283D01*
X74382Y27138D01*
Y27181D01*
X86618D01*
Y28638D01*
X86782Y28837D01*
X93054D01*
X93290Y28396D01*
X93218Y28288D01*
X93209Y28242D01*
X95789D01*
X95828Y28216D01*
X95846Y28126D01*
X96250Y28097D01*
X96250Y28097D01*
Y28097D01*
D01*
D01*
D01*
X106500D01*
X106846Y28166D01*
X107139Y28361D01*
X107139Y28361D01*
X107139Y28361D01*
X111374Y32597D01*
X114361D01*
X114597Y32156D01*
X114592Y32148D01*
X114485Y31610D01*
X114592Y31073D01*
X114896Y30617D01*
X115352Y30312D01*
X115890Y30205D01*
X115996Y30226D01*
X120111Y26111D01*
X120111D01*
X120111Y26111D01*
X120111D01*
X120111Y26111D01*
Y26111D01*
X120111Y26111D01*
Y26111D01*
X120404Y25916D01*
X120462Y25904D01*
X120750Y25847D01*
X120750Y25847D01*
X126263D01*
X126424Y25373D01*
X125973Y25027D01*
X125494Y24403D01*
X88312D01*
X86618Y24740D01*
Y26197D01*
X74382D01*
Y25399D01*
X73903Y25254D01*
X73743Y25493D01*
X73288Y25798D01*
X72750Y25905D01*
X72212Y25798D01*
X71757Y25493D01*
X71452Y25038D01*
X71345Y24500D01*
X71452Y23962D01*
X71757Y23506D01*
X72212Y23202D01*
X72750Y23095D01*
X72856Y23116D01*
X73111Y22861D01*
X73404Y22666D01*
X73750Y22597D01*
X74430D01*
X74665Y22156D01*
X74475Y21871D01*
X74400Y21492D01*
X77529D01*
X77454Y21871D01*
X77127Y22360D01*
X77199Y22597D01*
X78465D01*
X78701Y22156D01*
X78511Y21871D01*
X78396Y21295D01*
Y20705D01*
X78511Y20129D01*
X78837Y19640D01*
X79325Y19314D01*
X79434Y19292D01*
X79385Y18795D01*
X78819D01*
X78358Y18703D01*
X77967Y18442D01*
X77706Y18051D01*
X77677Y17903D01*
X76054D01*
X75993Y17993D01*
X75538Y18298D01*
X75000Y18405D01*
X74462Y18298D01*
X74402Y18257D01*
X73911Y18355D01*
X73889Y18389D01*
X73889Y18389D01*
X69884Y22393D01*
X69905Y22500D01*
X69798Y23038D01*
X69493Y23494D01*
X69038Y23798D01*
X68500Y23905D01*
X67962Y23798D01*
X67507Y23494D01*
X67202Y23038D01*
X67095Y22500D01*
X67202Y21962D01*
X67507Y21507D01*
X67962Y21202D01*
X68500Y21095D01*
X68607Y21116D01*
X70466Y19257D01*
X70275Y18795D01*
X68819D01*
X68358Y18703D01*
X67967Y18442D01*
X67706Y18051D01*
X67677Y17903D01*
X67000D01*
X66654Y17834D01*
X66361Y17639D01*
X64861Y16139D01*
X64666Y15846D01*
X64597Y15500D01*
Y12485D01*
X64507Y12425D01*
X64202Y11969D01*
X64095Y11431D01*
X64202Y10893D01*
X64507Y10438D01*
X64962Y10133D01*
X65500Y10026D01*
X66038Y10133D01*
X66493Y10438D01*
X66798Y10893D01*
X66905Y11431D01*
X66798Y11969D01*
X66493Y12425D01*
X66403Y12485D01*
Y15126D01*
X67107Y15829D01*
X67582Y15924D01*
X67733Y15909D01*
X67967Y15558D01*
X68358Y15297D01*
X68819Y15205D01*
X71181D01*
X71642Y15297D01*
X72033Y15558D01*
X72033Y15558D01*
Y15558D01*
X72046Y15566D01*
X72416Y15404D01*
X72611Y15111D01*
X74597Y13126D01*
Y5250D01*
X74597Y5250D01*
X74597D01*
X74666Y4904D01*
X74861Y4611D01*
X76611Y2861D01*
X76611Y2861D01*
X76904Y2666D01*
X76904Y2666D01*
X76904Y2666D01*
D01*
X76904Y2666D01*
X76904Y2666D01*
X77250Y2597D01*
X133250D01*
X133596Y2666D01*
X133889Y2861D01*
X133889Y2861D01*
X133889Y2861D01*
X135889Y4861D01*
X135889Y4861D01*
X135889Y4861D01*
X136084Y5154D01*
X136096Y5212D01*
X136153Y5500D01*
X136153Y5500D01*
Y6247D01*
X136644Y6344D01*
X136905Y5713D01*
X137473Y4973D01*
X138213Y4405D01*
X139075Y4048D01*
X140000Y3926D01*
X140925Y4048D01*
X141787Y4405D01*
X142527Y4973D01*
X143095Y5713D01*
X143452Y6575D01*
X143574Y7500D01*
X143452Y8425D01*
X143095Y9287D01*
X142527Y10027D01*
X142322Y10185D01*
X142385Y10504D01*
Y11685D01*
X142294Y12146D01*
X142033Y12537D01*
X141642Y12798D01*
X141181Y12889D01*
X138819D01*
X138358Y12798D01*
X137967Y12537D01*
X137706Y12146D01*
X137615Y11685D01*
Y10504D01*
X137678Y10185D01*
X137473Y10027D01*
X136905Y9287D01*
X136644Y8656D01*
X136153Y8754D01*
Y14876D01*
X137107Y15829D01*
X137582Y15924D01*
X137733Y15909D01*
X137967Y15558D01*
X138358Y15297D01*
X138819Y15205D01*
X141181D01*
X141642Y15297D01*
X142033Y15558D01*
X142294Y15949D01*
X142385Y16409D01*
Y17591D01*
X142294Y18051D01*
X142033Y18442D01*
X141642Y18703D01*
X141184Y18794D01*
X140993Y19256D01*
X140993D01*
X140993Y19257D01*
X141298Y19712D01*
X141307Y19758D01*
X138693D01*
X138702Y19712D01*
X139006Y19257D01*
X139006Y19256D01*
X139006D01*
X138815Y18794D01*
X138358Y18703D01*
X137967Y18442D01*
X137706Y18051D01*
X137677Y17903D01*
X137000D01*
X136654Y17834D01*
X136361Y17639D01*
X136361Y17639D01*
X134611Y15889D01*
X134416Y15596D01*
X134347Y15250D01*
Y5874D01*
X132977Y4504D01*
X132490Y4617D01*
X132402Y4877D01*
X132527Y4973D01*
X133095Y5713D01*
X133452Y6575D01*
X133574Y7500D01*
X133452Y8425D01*
X133095Y9287D01*
X132527Y10027D01*
X132322Y10185D01*
X132385Y10504D01*
Y11685D01*
X132294Y12146D01*
X132033Y12537D01*
X131642Y12798D01*
X131181Y12889D01*
X128819D01*
X128358Y12798D01*
X127967Y12537D01*
X127706Y12146D01*
X127615Y11685D01*
Y10504D01*
X127678Y10185D01*
X127473Y10027D01*
X126905Y9287D01*
X126548Y8425D01*
X126426Y7500D01*
X126548Y6575D01*
X126905Y5713D01*
X127473Y4973D01*
X127598Y4877D01*
X127438Y4403D01*
X122562D01*
X122402Y4877D01*
X122527Y4973D01*
X123095Y5713D01*
X123452Y6575D01*
X123574Y7500D01*
X123452Y8425D01*
X123095Y9287D01*
X122527Y10027D01*
X122322Y10185D01*
X122385Y10504D01*
Y11685D01*
X122294Y12146D01*
X122033Y12537D01*
X121642Y12798D01*
X121181Y12889D01*
X118819D01*
X118358Y12798D01*
X117967Y12537D01*
X117706Y12146D01*
X117615Y11685D01*
Y10504D01*
X117678Y10185D01*
X117473Y10027D01*
X116905Y9287D01*
X116548Y8425D01*
X116426Y7500D01*
X116548Y6575D01*
X116905Y5713D01*
X117473Y4973D01*
X117598Y4877D01*
X117438Y4403D01*
X112562D01*
X112402Y4877D01*
X112527Y4973D01*
X113095Y5713D01*
X113452Y6575D01*
X113574Y7500D01*
X113452Y8425D01*
X113095Y9287D01*
X112722Y9773D01*
X112986Y10197D01*
X113500Y10095D01*
X114038Y10202D01*
X114494Y10507D01*
X114798Y10962D01*
X114905Y11500D01*
X114798Y12038D01*
X114494Y12493D01*
X114403Y12554D01*
Y15876D01*
X114624Y16097D01*
X117677D01*
X117706Y15949D01*
X117967Y15558D01*
X118358Y15297D01*
X118819Y15205D01*
X121181D01*
X121642Y15297D01*
X122033Y15558D01*
X122294Y15949D01*
X122385Y16409D01*
Y17591D01*
X122294Y18051D01*
X122033Y18442D01*
X121642Y18703D01*
X121181Y18795D01*
X118819D01*
X118358Y18703D01*
X117967Y18442D01*
X117706Y18051D01*
X117677Y17903D01*
X114250D01*
X113904Y17834D01*
X113611Y17639D01*
X112861Y16889D01*
X112385Y17207D01*
Y17591D01*
X112294Y18051D01*
X112033Y18442D01*
X111642Y18703D01*
X111181Y18795D01*
X108819D01*
X108358Y18703D01*
X107967Y18442D01*
X107706Y18051D01*
X107677Y17903D01*
X107000D01*
X107000Y17903D01*
X106712Y17846D01*
X106654Y17834D01*
X106361Y17639D01*
X105106Y16384D01*
X105000Y16405D01*
X104462Y16298D01*
X104007Y15993D01*
X103702Y15538D01*
X103595Y15000D01*
X103702Y14462D01*
X104007Y14006D01*
X104462Y13702D01*
X105000Y13595D01*
X105538Y13702D01*
X105993Y14006D01*
X106298Y14462D01*
X106405Y15000D01*
X106384Y15107D01*
X107107Y15829D01*
X107582Y15924D01*
X107733Y15909D01*
X107967Y15558D01*
X108358Y15297D01*
X108819Y15205D01*
X111181D01*
X111642Y15297D01*
X112033Y15558D01*
X112118Y15686D01*
X112597Y15541D01*
Y12554D01*
X112399Y12494D01*
X112061D01*
X112033Y12537D01*
X111642Y12798D01*
X111181Y12889D01*
X108819D01*
X108358Y12798D01*
X107967Y12537D01*
X107706Y12146D01*
X107615Y11685D01*
Y10504D01*
X107678Y10185D01*
X107473Y10027D01*
X106905Y9287D01*
X106548Y8425D01*
X106426Y7500D01*
X106548Y6575D01*
X106905Y5713D01*
X107473Y4973D01*
X107598Y4877D01*
X107438Y4403D01*
X102562D01*
X102402Y4877D01*
X102527Y4973D01*
X103095Y5713D01*
X103452Y6575D01*
X103574Y7500D01*
X103452Y8425D01*
X103095Y9287D01*
X102527Y10027D01*
X102322Y10185D01*
X102385Y10504D01*
Y11685D01*
X102294Y12146D01*
X102033Y12537D01*
X101642Y12798D01*
X101181Y12889D01*
X98819D01*
X98358Y12798D01*
X97967Y12537D01*
X97706Y12146D01*
X97615Y11685D01*
Y10504D01*
X97678Y10185D01*
X97473Y10027D01*
X96905Y9287D01*
X96548Y8425D01*
X96426Y7500D01*
X96548Y6575D01*
X96905Y5713D01*
X97473Y4973D01*
X97598Y4877D01*
X97438Y4403D01*
X92562D01*
X92402Y4877D01*
X92527Y4973D01*
X93095Y5713D01*
X93452Y6575D01*
X93574Y7500D01*
X93452Y8425D01*
X93095Y9287D01*
X92527Y10027D01*
X92322Y10185D01*
X92385Y10504D01*
Y11685D01*
X92294Y12146D01*
X92033Y12537D01*
X91642Y12798D01*
X91181Y12889D01*
X88819D01*
X88358Y12798D01*
X87967Y12537D01*
X87706Y12146D01*
X87615Y11685D01*
Y10504D01*
X87678Y10185D01*
X87473Y10027D01*
X86905Y9287D01*
X86548Y8425D01*
X86426Y7500D01*
X86548Y6575D01*
X86565Y6534D01*
X86332Y6409D01*
X85903Y6666D01*
Y15126D01*
X86874Y16097D01*
X87677D01*
X87706Y15949D01*
X87967Y15558D01*
X88358Y15297D01*
X88819Y15205D01*
X91181D01*
X91642Y15297D01*
X92033Y15558D01*
X92294Y15949D01*
X92385Y16409D01*
Y17591D01*
X92294Y18051D01*
X92033Y18442D01*
X91642Y18703D01*
X91181Y18795D01*
X88819D01*
X88358Y18703D01*
X87967Y18442D01*
X87706Y18051D01*
X87677Y17903D01*
X86500D01*
X86154Y17834D01*
X85861Y17639D01*
X84361Y16139D01*
X84166Y15846D01*
X84097Y15500D01*
Y6666D01*
X83668Y6409D01*
X83435Y6534D01*
X83452Y6575D01*
X83574Y7500D01*
X83452Y8425D01*
X83095Y9287D01*
X82527Y10027D01*
X82322Y10185D01*
X82385Y10504D01*
Y11685D01*
X82294Y12146D01*
X82033Y12537D01*
X81642Y12798D01*
X81181Y12889D01*
X78819D01*
X78358Y12798D01*
X77967Y12537D01*
X77706Y12146D01*
X77615Y11685D01*
Y10504D01*
X77678Y10185D01*
X77473Y10027D01*
X76905Y9287D01*
X76894Y9260D01*
X76403Y9357D01*
Y13500D01*
X76334Y13846D01*
X76139Y14139D01*
X74889Y15388D01*
X75000Y15595D01*
X75538Y15702D01*
X75993Y16006D01*
X76054Y16097D01*
X77677D01*
X77706Y15949D01*
X77967Y15558D01*
X78358Y15297D01*
X78819Y15205D01*
X81181D01*
X81642Y15297D01*
X82033Y15558D01*
X82294Y15949D01*
X82385Y16409D01*
Y17591D01*
X82294Y18051D01*
X82033Y18442D01*
X81642Y18703D01*
X81181Y18795D01*
X80615D01*
X80566Y19292D01*
X80674Y19314D01*
X81163Y19640D01*
X81284Y19821D01*
X81462Y19702D01*
X82000Y19595D01*
X82538Y19702D01*
X82993Y20007D01*
X83298Y20462D01*
X83405Y21000D01*
X83298Y21538D01*
X82993Y21993D01*
X82538Y22298D01*
X82000Y22405D01*
X82192Y22597D01*
X124841D01*
X124926Y22500D01*
X125048Y21575D01*
X125405Y20713D01*
X125973Y19973D01*
X126713Y19405D01*
X127575Y19048D01*
X127957Y18998D01*
X128070Y18511D01*
X127967Y18442D01*
X127706Y18051D01*
X127677Y17903D01*
X126250D01*
X126250Y17903D01*
X125962Y17846D01*
X125904Y17834D01*
X125611Y17639D01*
X124361Y16389D01*
X124166Y16096D01*
X124097Y15750D01*
Y12554D01*
X124006Y12493D01*
X123702Y12038D01*
X123595Y11500D01*
X123702Y10962D01*
X124006Y10507D01*
X124462Y10202D01*
X125000Y10095D01*
X125538Y10202D01*
X125994Y10507D01*
X126298Y10962D01*
X126405Y11500D01*
X126298Y12038D01*
X125994Y12493D01*
X125903Y12554D01*
Y15376D01*
X126624Y16097D01*
X127677D01*
X127706Y15949D01*
X127967Y15558D01*
X128358Y15297D01*
X128819Y15205D01*
X131181D01*
X131642Y15297D01*
X132033Y15558D01*
X132294Y15949D01*
X132385Y16409D01*
Y17591D01*
X132294Y18051D01*
X132033Y18442D01*
X131642Y18703D01*
X131181Y18795D01*
X130095D01*
X129998Y19285D01*
X130287Y19405D01*
X131027Y19973D01*
X131595Y20713D01*
X131952Y21575D01*
X132074Y22500D01*
X131952Y23425D01*
X131595Y24287D01*
X131027Y25027D01*
X130287Y25595D01*
X130337Y25847D01*
X133369D01*
X133687Y25460D01*
X133595Y25000D01*
X133702Y24462D01*
X134007Y24006D01*
X134462Y23702D01*
X135000Y23595D01*
X135538Y23702D01*
X135994Y24006D01*
X136054Y24097D01*
X163250D01*
X163596Y24166D01*
X163889Y24361D01*
X165253Y25726D01*
X165752Y25701D01*
X165950Y25460D01*
X165917Y25295D01*
Y23908D01*
X165476Y23672D01*
X165288Y23798D01*
X165242Y23807D01*
Y22499D01*
Y21193D01*
X165288Y21202D01*
X165476Y21328D01*
X165917Y21092D01*
Y20492D01*
X171461D01*
Y25295D01*
X171398Y25610D01*
X171525Y25847D01*
X177444D01*
X177761Y25460D01*
X177728Y25295D01*
Y14705D01*
X177756Y14567D01*
X177438Y14181D01*
X171750D01*
X171433Y14567D01*
X171461Y14705D01*
Y19508D01*
X165917D01*
Y14705D01*
X165945Y14567D01*
X165627Y14181D01*
X160256D01*
X160020Y14622D01*
X160025Y14629D01*
X160100Y15008D01*
X156971D01*
X157046Y14629D01*
X157051Y14622D01*
X156815Y14181D01*
X156220D01*
X155984Y14622D01*
X155989Y14629D01*
X156104Y15205D01*
Y15795D01*
X155989Y16371D01*
X155704Y16798D01*
Y17572D01*
X155798Y17712D01*
X155905Y18250D01*
X155798Y18788D01*
X155704Y18928D01*
Y19202D01*
X155989Y19629D01*
X156104Y20205D01*
Y20795D01*
X155989Y21371D01*
X155663Y21860D01*
X155175Y22186D01*
X154598Y22301D01*
X154402D01*
X153825Y22186D01*
X153337Y21860D01*
X153011Y21371D01*
X152896Y20795D01*
Y20205D01*
X153011Y19629D01*
X153296Y19202D01*
Y18928D01*
X153202Y18788D01*
X153095Y18250D01*
X153202Y17712D01*
X153296Y17572D01*
Y16798D01*
X153011Y16371D01*
X152896Y15795D01*
Y15205D01*
X153011Y14629D01*
X153296Y14202D01*
Y13500D01*
X153296Y13500D01*
X153387Y13039D01*
X153518Y12844D01*
X153282Y12403D01*
X151124D01*
X148634Y14894D01*
X148655Y15000D01*
X148548Y15538D01*
X148243Y15993D01*
X147788Y16298D01*
X147250Y16405D01*
X146712Y16298D01*
X146256Y15993D01*
X145952Y15538D01*
X145845Y15000D01*
X145853Y14959D01*
X145500Y14605D01*
X145250Y14655D01*
X144712Y14548D01*
X144256Y14243D01*
X143952Y13788D01*
X143845Y13250D01*
X143952Y12712D01*
X144256Y12257D01*
X144347Y12196D01*
Y5750D01*
X144416Y5404D01*
X144501Y5276D01*
X144223Y4861D01*
X144492Y4807D01*
Y3992D01*
X145307D01*
X145370Y3676D01*
X145811Y3912D01*
X146861Y2861D01*
X147154Y2666D01*
X147500Y2597D01*
X202000D01*
X202346Y2666D01*
X202639Y2861D01*
X202639Y2861D01*
X202639Y2861D01*
X204639Y4861D01*
X204639Y4861D01*
X204639Y4861D01*
X204834Y5154D01*
X204846Y5212D01*
X204903Y5500D01*
X204903Y5500D01*
Y26750D01*
X204903Y26750D01*
X204846Y27038D01*
X204834Y27096D01*
X204639Y27389D01*
X204139Y27889D01*
X203846Y28084D01*
X203500Y28153D01*
X203488D01*
X203452Y28425D01*
X203095Y29287D01*
X202527Y30027D01*
X201787Y30595D01*
X200925Y30952D01*
X200000Y31074D01*
X199075Y30952D01*
X198213Y30595D01*
X197473Y30027D01*
X197127Y29576D01*
X196653Y29737D01*
Y32876D01*
X198196Y34418D01*
X198213Y34405D01*
X199075Y34048D01*
X200000Y33926D01*
X200925Y34048D01*
X201787Y34405D01*
X202527Y34973D01*
X203095Y35713D01*
X203452Y36575D01*
X203574Y37500D01*
X203452Y38425D01*
X203095Y39287D01*
X202527Y40027D01*
X201787Y40595D01*
X200925Y40952D01*
X200000Y41074D01*
X200273Y41347D01*
X201250D01*
X201596Y41416D01*
X201889Y41611D01*
X204639Y44361D01*
X204834Y44654D01*
X204846Y44712D01*
X204903Y45000D01*
X204903Y45000D01*
Y53500D01*
X204834Y53846D01*
X204639Y54139D01*
X204639Y54139D01*
X203534Y55243D01*
X203572Y55433D01*
Y59567D01*
X203458Y60143D01*
X203131Y60631D01*
X202643Y60958D01*
X202067Y61072D01*
D02*
G37*
G36*
X92885Y53102D02*
X90992D01*
Y51800D01*
X91681D01*
X92142Y51891D01*
X92533Y52152D01*
X92794Y52543D01*
X92885Y53004D01*
Y53102D01*
D02*
G37*
G36*
X178807Y60508D02*
X177992D01*
Y59693D01*
X178038Y59702D01*
X178493Y60007D01*
X178798Y60462D01*
X178807Y60508D01*
D02*
G37*
G36*
X101201Y52768D02*
X98992D01*
Y51366D01*
X99947D01*
X100427Y51461D01*
X100834Y51733D01*
X101106Y52140D01*
X101201Y52620D01*
Y52768D01*
D02*
G37*
G36*
X90008Y53102D02*
X88115D01*
Y53004D01*
X88206Y52543D01*
X88467Y52152D01*
X88858Y51891D01*
X89319Y51800D01*
X90008D01*
Y53102D01*
D02*
G37*
G36*
X177008Y60508D02*
X176193D01*
X176202Y60462D01*
X176506Y60007D01*
X176962Y59702D01*
X177008Y59693D01*
Y60508D01*
D02*
G37*
G36*
X173543Y59508D02*
X172471D01*
X172546Y59129D01*
X172873Y58640D01*
X173361Y58314D01*
X173543Y58278D01*
Y59508D01*
D02*
G37*
G36*
X91681Y55389D02*
X90992D01*
Y54087D01*
X92885D01*
Y54185D01*
X92794Y54646D01*
X92533Y55037D01*
X92142Y55298D01*
X91681Y55389D01*
D02*
G37*
G36*
X90008D02*
X89319D01*
X88858Y55298D01*
X88467Y55037D01*
X88206Y54646D01*
X88115Y54185D01*
Y54087D01*
X90008D01*
Y55389D01*
D02*
G37*
G36*
X189508Y58866D02*
X184705D01*
X184390Y58804D01*
X184123Y58625D01*
X183944Y58358D01*
X183882Y58043D01*
Y56587D01*
X189508D01*
Y58866D01*
D02*
G37*
G36*
X179722Y56043D02*
X178492D01*
Y54971D01*
X178871Y55046D01*
X179360Y55373D01*
X179686Y55861D01*
X179722Y56043D01*
D02*
G37*
G36*
X130567Y56072D02*
X129484D01*
Y53484D01*
X132072D01*
Y54567D01*
X131958Y55143D01*
X131631Y55631D01*
X131143Y55958D01*
X130567Y56072D01*
D02*
G37*
G36*
X178492Y58100D02*
Y57028D01*
X179722D01*
X179686Y57210D01*
X179360Y57698D01*
X178871Y58025D01*
X178492Y58100D01*
D02*
G37*
G36*
X189508Y55602D02*
X183882D01*
Y54146D01*
X183944Y53831D01*
X184123Y53564D01*
X184390Y53385D01*
X184705Y53323D01*
X189508D01*
Y55602D01*
D02*
G37*
G36*
X127516Y56072D02*
X126433D01*
X125857Y55958D01*
X125369Y55631D01*
X125042Y55143D01*
X124928Y54567D01*
Y53484D01*
X127516D01*
Y56072D01*
D02*
G37*
G36*
X177508Y58100D02*
X177129Y58025D01*
X176640Y57698D01*
X176314Y57210D01*
X176278Y57028D01*
X177508D01*
Y58100D01*
D02*
G37*
G36*
X26250Y72403D02*
X25962Y72346D01*
X25904Y72334D01*
X25611Y72139D01*
X24361Y70889D01*
X24166Y70596D01*
X24097Y70250D01*
Y65500D01*
X24097Y65500D01*
X24097D01*
X24166Y65154D01*
X24361Y64861D01*
X25404Y63819D01*
Y63015D01*
X25101Y62813D01*
X24982Y62635D01*
X24482D01*
X24364Y62813D01*
X23810Y63182D01*
X23157Y63312D01*
X22505Y63182D01*
X21951Y62813D01*
X21833Y62635D01*
X21333D01*
X21214Y62813D01*
X20911Y63015D01*
Y64046D01*
X20925Y64048D01*
X21787Y64405D01*
X22527Y64973D01*
X23095Y65713D01*
X23452Y66575D01*
X23574Y67500D01*
X23452Y68425D01*
X23095Y69287D01*
X22527Y70027D01*
X21787Y70595D01*
X20925Y70952D01*
X20000Y71074D01*
X19075Y70952D01*
X18213Y70595D01*
X17473Y70027D01*
X16905Y69287D01*
X16548Y68425D01*
X16426Y67500D01*
X16548Y66575D01*
X16905Y65713D01*
X17473Y64973D01*
X18213Y64405D01*
X19075Y64048D01*
X19105Y64044D01*
Y63015D01*
X18802Y62813D01*
X18432Y62259D01*
X18302Y61606D01*
Y56893D01*
X17861Y56657D01*
X17596Y56834D01*
X17250Y56903D01*
X9947D01*
X9947Y56903D01*
X9659Y56846D01*
X9602Y56834D01*
X9309Y56639D01*
X9309Y56639D01*
X8798Y56127D01*
X8382Y56405D01*
X8452Y56575D01*
X8574Y57500D01*
X8452Y58425D01*
X8095Y59287D01*
X7527Y60027D01*
X6787Y60595D01*
X5925Y60952D01*
X5000Y61074D01*
X4075Y60952D01*
X3213Y60595D01*
X2473Y60027D01*
X1905Y59287D01*
X1548Y58425D01*
X1426Y57500D01*
X1548Y56575D01*
X1905Y55713D01*
X2473Y54973D01*
X3213Y54405D01*
X4075Y54048D01*
X5000Y53926D01*
X5925Y54048D01*
X6095Y54118D01*
X6373Y53702D01*
X4361Y51691D01*
X4166Y51398D01*
X4097Y51053D01*
Y50955D01*
X4075Y50952D01*
X3213Y50595D01*
X2473Y50027D01*
X1905Y49287D01*
X1548Y48425D01*
X1426Y47500D01*
X1548Y46575D01*
X1905Y45713D01*
X2473Y44973D01*
X3213Y44405D01*
X4075Y44048D01*
X5000Y43926D01*
X5925Y44048D01*
X6787Y44405D01*
X7527Y44973D01*
X7623Y45098D01*
X8097Y44938D01*
Y41874D01*
X6804Y40582D01*
X6787Y40595D01*
X5925Y40952D01*
X5000Y41074D01*
X4075Y40952D01*
X3213Y40595D01*
X2473Y40027D01*
X1905Y39287D01*
X1548Y38425D01*
X1426Y37500D01*
X1548Y36575D01*
X1905Y35713D01*
X2473Y34973D01*
X3213Y34405D01*
X4075Y34048D01*
X5000Y33926D01*
X5925Y34048D01*
X6787Y34405D01*
X7527Y34973D01*
X8095Y35713D01*
X8452Y36575D01*
X8574Y37500D01*
X8452Y38425D01*
X8095Y39287D01*
X8082Y39304D01*
X8983Y40206D01*
X9461Y40060D01*
X9573Y39497D01*
X9943Y38943D01*
X10121Y38825D01*
Y38325D01*
X9943Y38206D01*
X9573Y37653D01*
X9444Y37000D01*
X9573Y36347D01*
X9943Y35794D01*
X10121Y35675D01*
Y35175D01*
X9943Y35057D01*
X9573Y34503D01*
X9444Y33850D01*
X9573Y33198D01*
X9943Y32644D01*
X10121Y32526D01*
Y32497D01*
X9868Y32120D01*
X9734Y32009D01*
X9250Y32106D01*
X8712Y31999D01*
X8257Y31694D01*
X7952Y31238D01*
X7845Y30701D01*
X7919Y30328D01*
X7811Y30245D01*
X7497Y30050D01*
X6787Y30595D01*
X5925Y30952D01*
X5000Y31074D01*
X4075Y30952D01*
X3213Y30595D01*
X2473Y30027D01*
X1905Y29287D01*
X1548Y28425D01*
X1426Y27500D01*
X1548Y26575D01*
X1905Y25713D01*
X2473Y24973D01*
X3213Y24405D01*
X4075Y24048D01*
X5000Y23926D01*
X5925Y24048D01*
X6787Y24405D01*
X6804Y24418D01*
X8097Y23126D01*
Y21185D01*
X7656Y20949D01*
X7643Y20958D01*
X7067Y21072D01*
X2933D01*
X2357Y20958D01*
X1869Y20631D01*
X1542Y20143D01*
X1428Y19567D01*
Y15433D01*
X1542Y14857D01*
X1869Y14369D01*
X2357Y14042D01*
X2933Y13928D01*
X7067D01*
X7643Y14042D01*
X8131Y14369D01*
X8458Y14857D01*
X8572Y15433D01*
Y16747D01*
X9034Y16939D01*
X14597Y11376D01*
Y5000D01*
X14597Y5000D01*
X14597D01*
X14666Y4654D01*
X14861Y4361D01*
X16361Y2861D01*
X16654Y2666D01*
X17000Y2597D01*
X33000D01*
X33346Y2666D01*
X33639Y2861D01*
X33639Y2861D01*
X33639Y2861D01*
X35139Y4361D01*
X35334Y4654D01*
X35403Y5000D01*
X35403Y5000D01*
X35403Y5000D01*
Y5000D01*
Y7126D01*
X35992Y7714D01*
X36426Y7500D01*
X36548Y6575D01*
X36905Y5713D01*
X37473Y4973D01*
X38213Y4405D01*
X39075Y4048D01*
X40000Y3926D01*
X40925Y4048D01*
X41787Y4405D01*
X42527Y4973D01*
X42676Y5167D01*
X43199Y5063D01*
X43277Y5457D01*
X46722D01*
X46801Y5063D01*
X47324Y5167D01*
X47473Y4973D01*
X48213Y4405D01*
X49075Y4048D01*
X50000Y3926D01*
X50925Y4048D01*
X51787Y4405D01*
X52527Y4973D01*
X53095Y5713D01*
X53452Y6575D01*
X53574Y7500D01*
X53452Y8425D01*
X53095Y9287D01*
X52527Y10027D01*
X51787Y10595D01*
X51802Y10747D01*
X51545Y10696D01*
X51012Y10916D01*
Y14755D01*
Y18726D01*
X50851Y18694D01*
X50298Y18324D01*
X50179Y18147D01*
X49679D01*
X49561Y18324D01*
X49007Y18694D01*
X48354Y18824D01*
X47701Y18694D01*
X47148Y18324D01*
X47030Y18147D01*
X46529D01*
X46411Y18324D01*
X46409Y18326D01*
Y35796D01*
X54430D01*
X54431Y35794D01*
X54609Y35675D01*
Y35175D01*
X54431Y35057D01*
X54062Y34503D01*
X54030Y34343D01*
X61970D01*
X61938Y34503D01*
X61568Y35057D01*
X61391Y35175D01*
Y35675D01*
X61568Y35794D01*
X61570Y35796D01*
X66702D01*
X67129Y35511D01*
X67705Y35396D01*
X68295D01*
X68871Y35511D01*
X69298Y35796D01*
X69609D01*
X69927Y35409D01*
X69845Y35000D01*
X69952Y34462D01*
X70257Y34007D01*
X70712Y33702D01*
X71250Y33595D01*
X71788Y33702D01*
X72243Y34007D01*
X72304Y34097D01*
X93212D01*
X93448Y33656D01*
X93202Y33288D01*
X93193Y33242D01*
X95807D01*
X95798Y33288D01*
X95493Y33744D01*
X95038Y34048D01*
X95038Y34048D01*
X95038D01*
Y34048D01*
X95043Y34097D01*
X97399D01*
X97459Y34007D01*
X97915Y33702D01*
X98453Y33595D01*
X98990Y33702D01*
X99446Y34007D01*
X99751Y34462D01*
X99858Y35000D01*
X99751Y35538D01*
X99889Y35796D01*
X102702D01*
X103129Y35511D01*
X103705Y35396D01*
X104295D01*
X104871Y35511D01*
X105298Y35796D01*
X123000D01*
X123000Y35796D01*
X123461Y35887D01*
X123852Y36149D01*
X126992Y39289D01*
X127575Y39048D01*
X128500Y38926D01*
X129425Y39048D01*
X130287Y39405D01*
X131027Y39973D01*
X131595Y40713D01*
X131836Y41296D01*
X133678D01*
X133914Y40855D01*
X133702Y40538D01*
X133595Y40000D01*
X133702Y39462D01*
X134007Y39007D01*
X134462Y38702D01*
X135000Y38595D01*
X135538Y38702D01*
X135921Y38958D01*
X136234Y38846D01*
X136410Y38728D01*
X136443Y38618D01*
X136257Y38493D01*
X135952Y38038D01*
X135943Y37992D01*
X138557D01*
X138548Y38038D01*
X138243Y38493D01*
X138057Y38618D01*
X138202Y39097D01*
X139704D01*
X139940Y38656D01*
X139878Y38565D01*
X139786Y38100D01*
Y37992D01*
X146214D01*
Y38100D01*
X146122Y38565D01*
X145858Y38958D01*
X145900Y39097D01*
X148298D01*
X148443Y38618D01*
X148257Y38493D01*
X147952Y38038D01*
X147845Y37500D01*
X147952Y36962D01*
X148257Y36507D01*
X148712Y36202D01*
X149250Y36095D01*
X149788Y36202D01*
X150243Y36507D01*
X150304Y36597D01*
X155446D01*
X155507Y36507D01*
X155962Y36202D01*
X156500Y36095D01*
X157038Y36202D01*
X157493Y36507D01*
X157798Y36962D01*
X157905Y37500D01*
X157798Y38038D01*
X157493Y38493D01*
X157038Y38798D01*
X156500Y38905D01*
X155962Y38798D01*
X155507Y38493D01*
X155446Y38403D01*
X150411D01*
X150113Y38805D01*
X150202Y39097D01*
X155250D01*
X155596Y39166D01*
X155889Y39361D01*
X158124Y41597D01*
X161212D01*
X161448Y41156D01*
X161202Y40788D01*
X161095Y40250D01*
X161202Y39712D01*
X161506Y39257D01*
X161962Y38952D01*
X162500Y38845D01*
X162607Y38866D01*
X164611Y36861D01*
X164904Y36666D01*
X164962Y36654D01*
X165250Y36597D01*
X165250Y36597D01*
X168246D01*
X168279Y36435D01*
X168542Y36042D01*
X168936Y35778D01*
X169400Y35686D01*
X173400D01*
X173864Y35778D01*
X174258Y36042D01*
X174522Y36435D01*
X174614Y36900D01*
Y38100D01*
X174522Y38565D01*
X174258Y38958D01*
X173864Y39222D01*
X173400Y39314D01*
X169400D01*
X168936Y39222D01*
X168542Y38958D01*
X168279Y38565D01*
X168246Y38403D01*
X165624D01*
X163884Y40143D01*
X163905Y40250D01*
X163798Y40788D01*
X163494Y41243D01*
X163038Y41548D01*
X163038Y41548D01*
X163038D01*
Y41548D01*
X163042Y41597D01*
X168246D01*
X168279Y41436D01*
X168542Y41042D01*
X168936Y40778D01*
X169400Y40686D01*
X173400D01*
X173864Y40778D01*
X174258Y41042D01*
X174522Y41436D01*
X174614Y41900D01*
Y43100D01*
X174522Y43565D01*
X174258Y43958D01*
X173864Y44221D01*
X173400Y44314D01*
X169400D01*
X168936Y44221D01*
X168542Y43958D01*
X168279Y43565D01*
X168246Y43403D01*
X166057D01*
X165961Y43887D01*
X166351Y44148D01*
X168271Y46068D01*
X168542Y46042D01*
X168936Y45779D01*
X169400Y45686D01*
X173400D01*
X173864Y45779D01*
X174258Y46042D01*
X174428Y46296D01*
X176500D01*
X176961Y46387D01*
X177351Y46648D01*
X177613Y47039D01*
X177704Y47500D01*
Y50896D01*
X177705Y50896D01*
X178295D01*
X178871Y51011D01*
X179360Y51337D01*
X179686Y51825D01*
X179801Y52402D01*
Y52598D01*
X179686Y53175D01*
X179360Y53663D01*
X178871Y53989D01*
X178295Y54104D01*
X177705D01*
X177180Y53999D01*
X176826Y54353D01*
X176905Y54750D01*
X177129Y55046D01*
Y55046D01*
D01*
X177508Y54971D01*
Y56043D01*
X176277D01*
X176199Y56437D01*
X176038Y56048D01*
X175500Y56155D01*
X174962Y56048D01*
X174506Y55743D01*
X174202Y55288D01*
X174095Y54750D01*
X174123Y54609D01*
X174086Y54553D01*
X173773Y54240D01*
X173400Y54314D01*
X169400D01*
X168936Y54221D01*
X168542Y53958D01*
X168279Y53565D01*
X168186Y53100D01*
Y51900D01*
X168279Y51436D01*
X168542Y51042D01*
X168936Y50779D01*
X169400Y50686D01*
X173400D01*
X173864Y50779D01*
X174258Y51042D01*
X174428Y51296D01*
X175296D01*
Y48704D01*
X174428D01*
X174258Y48958D01*
X173864Y49222D01*
X173400Y49314D01*
X169400D01*
X168936Y49222D01*
X168542Y48958D01*
X168372Y48704D01*
X168000D01*
X167539Y48613D01*
X167383Y48508D01*
X167148Y48351D01*
X167148Y48351D01*
X166553Y47757D01*
X166075Y47902D01*
X166048Y48038D01*
X165744Y48493D01*
X165653Y48554D01*
Y51500D01*
X165584Y51846D01*
X165389Y52139D01*
X165389Y52139D01*
X162139Y55389D01*
X161846Y55584D01*
X161500Y55653D01*
X158631D01*
X158313Y56040D01*
X158375Y56350D01*
X158837Y56541D01*
X158880Y56512D01*
X159360Y56417D01*
X160640D01*
X161120Y56512D01*
X161527Y56784D01*
X161799Y57191D01*
X161830Y57347D01*
X165750D01*
X166096Y57416D01*
X166389Y57611D01*
X167874Y59097D01*
X168532D01*
X168837Y58640D01*
X169325Y58314D01*
X169902Y58199D01*
X170098D01*
X170675Y58314D01*
X171163Y58640D01*
X171489Y59129D01*
X171604Y59705D01*
Y60295D01*
X171489Y60871D01*
X171163Y61360D01*
X170675Y61686D01*
X170098Y61801D01*
X169902D01*
X169325Y61686D01*
X168837Y61360D01*
X168532Y60903D01*
X167500D01*
X167154Y60834D01*
X166861Y60639D01*
X166861Y60639D01*
X165376Y59153D01*
X161894D01*
Y60329D01*
X161799Y60809D01*
X161527Y61216D01*
X161120Y61488D01*
X160640Y61583D01*
X159360D01*
X158880Y61488D01*
X158473Y61216D01*
X158201Y60809D01*
X158106Y60329D01*
Y59153D01*
X152237D01*
X152002Y59594D01*
X152025Y59629D01*
X152100Y60008D01*
X150534D01*
Y60499D01*
X150043D01*
Y62222D01*
X150437Y62301D01*
X150634D01*
X150634Y62301D01*
X150930Y62597D01*
X176000D01*
X176346Y62666D01*
X176639Y62861D01*
X176639Y62861D01*
X176639Y62861D01*
X178196Y64418D01*
X178213Y64405D01*
X179075Y64048D01*
X180000Y63926D01*
X180925Y64048D01*
X181787Y64405D01*
X182527Y64973D01*
X183095Y65713D01*
X183391Y66429D01*
X183882Y66331D01*
Y65957D01*
X183944Y65642D01*
X184123Y65375D01*
X184390Y65196D01*
X184705Y65134D01*
X195295D01*
X195610Y65196D01*
X195802Y65324D01*
X197203D01*
X197473Y64973D01*
X198213Y64405D01*
X199075Y64048D01*
X200000Y63926D01*
X200925Y64048D01*
X201787Y64405D01*
X202527Y64973D01*
X203095Y65713D01*
X203452Y66575D01*
X203574Y67500D01*
X203452Y68425D01*
X203095Y69287D01*
X202527Y70027D01*
X201787Y70595D01*
X200925Y70952D01*
X200000Y71074D01*
X199075Y70952D01*
X198213Y70595D01*
X198072Y70487D01*
X195802D01*
X195610Y70615D01*
X195295Y70677D01*
X184705D01*
X184390Y70615D01*
X184123Y70436D01*
X183944Y70169D01*
X183882Y69854D01*
Y68669D01*
X183391Y68571D01*
X183095Y69287D01*
X182527Y70027D01*
X181787Y70595D01*
X180925Y70952D01*
X180000Y71074D01*
X179075Y70952D01*
X178213Y70595D01*
X177473Y70027D01*
X176905Y69287D01*
X176548Y68425D01*
X176426Y67500D01*
X176548Y66575D01*
X176905Y65713D01*
X176918Y65696D01*
X175626Y64403D01*
X172562D01*
X172402Y64877D01*
X172527Y64973D01*
X173095Y65713D01*
X173452Y66575D01*
X173574Y67500D01*
X173452Y68425D01*
X173095Y69287D01*
X172527Y70027D01*
X171787Y70595D01*
X170925Y70952D01*
X170000Y71074D01*
X169075Y70952D01*
X168213Y70595D01*
X167473Y70027D01*
X166905Y69287D01*
X166548Y68425D01*
X166426Y67500D01*
X166548Y66575D01*
X166905Y65713D01*
X167473Y64973D01*
X167598Y64877D01*
X167438Y64403D01*
X165627D01*
X165391Y64844D01*
X165539Y65065D01*
X165634Y65545D01*
Y68203D01*
X165539Y68683D01*
X165267Y69090D01*
X165052Y69233D01*
X165155Y69750D01*
X165048Y70288D01*
X164743Y70743D01*
X164288Y71048D01*
X163750Y71155D01*
X163212Y71048D01*
X162757Y70743D01*
X162452Y70288D01*
X162345Y69750D01*
X162445Y69245D01*
X162213Y69090D01*
X161942Y68683D01*
X161846Y68203D01*
Y65545D01*
X161942Y65065D01*
X162089Y64844D01*
X161854Y64403D01*
X158147D01*
X157911Y64844D01*
X158059Y65065D01*
X158060Y65072D01*
X158476Y65350D01*
X158500Y65345D01*
X159038Y65452D01*
X159494Y65757D01*
X159798Y66212D01*
X159905Y66750D01*
X159798Y67288D01*
X159494Y67743D01*
X159168Y67961D01*
X159169Y67962D01*
D01*
X159353Y68408D01*
X159376Y68419D01*
X159750Y68345D01*
X160288Y68452D01*
X160743Y68757D01*
X161048Y69212D01*
X161155Y69750D01*
X161048Y70288D01*
X160743Y70743D01*
X160288Y71048D01*
X159750Y71155D01*
X159643Y71134D01*
X158639Y72139D01*
X158346Y72334D01*
X158000Y72403D01*
X114000D01*
X113654Y72334D01*
X113361Y72139D01*
X113361Y72139D01*
X111804Y70582D01*
X111787Y70595D01*
X110925Y70952D01*
X110000Y71074D01*
X109075Y70952D01*
X108213Y70595D01*
X107473Y70027D01*
X106905Y69287D01*
X106548Y68425D01*
X106426Y67500D01*
X106548Y66575D01*
X106905Y65713D01*
X107473Y64973D01*
X107598Y64877D01*
X107438Y64403D01*
X104374D01*
X103082Y65696D01*
X103095Y65713D01*
X103452Y66575D01*
X103574Y67500D01*
X103452Y68425D01*
X103095Y69287D01*
X102527Y70027D01*
X101787Y70595D01*
X100925Y70952D01*
X100000Y71074D01*
X99075Y70952D01*
X98213Y70595D01*
X97473Y70027D01*
X96905Y69287D01*
X96548Y68425D01*
X96426Y67500D01*
X96548Y66575D01*
X96905Y65713D01*
X97473Y64973D01*
X98213Y64405D01*
X99075Y64048D01*
X100000Y63926D01*
X100925Y64048D01*
X101787Y64405D01*
X101804Y64418D01*
X103361Y62861D01*
X103361Y62861D01*
X103654Y62666D01*
X104000Y62597D01*
X104518D01*
X104753Y62156D01*
X104556Y61860D01*
X104460Y61380D01*
Y60100D01*
X104549Y59655D01*
X104108Y59420D01*
X102148Y61379D01*
X101856Y61575D01*
X101510Y61643D01*
X101149D01*
X101106Y61860D01*
X100834Y62267D01*
X100427Y62539D01*
X99947Y62634D01*
X97053D01*
X96573Y62539D01*
X96166Y62267D01*
X95894Y61860D01*
X95799Y61380D01*
Y60830D01*
X95358Y60595D01*
X95053Y60798D01*
X94516Y60905D01*
X93978Y60798D01*
X93522Y60493D01*
X93462Y60403D01*
X92823D01*
X92794Y60551D01*
X92533Y60942D01*
X92142Y61203D01*
X91681Y61295D01*
X89319D01*
X88858Y61203D01*
X88467Y60942D01*
X88206Y60551D01*
X88115Y60091D01*
Y58909D01*
X88206Y58449D01*
X88467Y58058D01*
X88858Y57797D01*
X89319Y57705D01*
X91681D01*
X92142Y57797D01*
X92533Y58058D01*
X92794Y58449D01*
X92823Y58597D01*
X93462D01*
X93522Y58507D01*
X93597Y58457D01*
Y57750D01*
X93597Y57750D01*
X93597D01*
X93666Y57404D01*
X93861Y57111D01*
X94611Y56361D01*
X94904Y56166D01*
X95250Y56097D01*
X95851D01*
X95894Y55880D01*
X96166Y55473D01*
X96306Y55380D01*
Y54880D01*
X96166Y54787D01*
X95894Y54380D01*
X95799Y53900D01*
Y53752D01*
X101201D01*
Y53900D01*
X101106Y54380D01*
X100834Y54787D01*
X100427Y55058D01*
X100834Y55473D01*
X100834D01*
Y55473D01*
D01*
D01*
X100834D01*
X101106Y55880D01*
X101201Y56360D01*
Y57640D01*
X101106Y58120D01*
X100834Y58527D01*
X100427Y58799D01*
D01*
X100427D01*
D01*
Y58799D01*
X100834Y59213D01*
X100834D01*
Y59213D01*
D01*
D01*
X100834D01*
X100986Y59440D01*
X101483Y59490D01*
X104111Y56861D01*
X104404Y56666D01*
X104750Y56597D01*
X110590D01*
X110825Y56156D01*
X110814Y56139D01*
X110778Y55957D01*
X112501D01*
Y54972D01*
X110778D01*
X110814Y54790D01*
X110938Y54604D01*
X110703Y54163D01*
X109810D01*
X109767Y54380D01*
X109495Y54787D01*
X109088Y55058D01*
X108608Y55154D01*
X105715D01*
X105235Y55058D01*
X104828Y54787D01*
X104556Y54380D01*
X104460Y53900D01*
Y52620D01*
X104556Y52140D01*
X104828Y51733D01*
X105235Y51461D01*
X105715Y51366D01*
X108608D01*
X109088Y51461D01*
X109495Y51733D01*
X109767Y52140D01*
X109810Y52357D01*
X120010D01*
X120355Y52425D01*
X120649Y52621D01*
X120649Y52621D01*
X120649Y52621D01*
X120894Y52866D01*
X121000Y52845D01*
X121538Y52952D01*
X121994Y53257D01*
X122298Y53712D01*
X122405Y54250D01*
X122298Y54788D01*
X121994Y55243D01*
X121538Y55548D01*
X121000Y55655D01*
X120462Y55548D01*
X120007Y55243D01*
X119702Y54788D01*
X119647Y54509D01*
X119152Y54435D01*
X119062Y54604D01*
X119186Y54790D01*
X119222Y54972D01*
X117499D01*
Y55957D01*
X119222D01*
X119186Y56139D01*
X119175Y56156D01*
X119410Y56597D01*
X136376D01*
X137016Y55957D01*
X136967Y55459D01*
X136861Y55389D01*
X136861Y55389D01*
X132534Y51061D01*
X132072Y51253D01*
Y51516D01*
X124928D01*
Y50433D01*
X125042Y49857D01*
X125051Y49844D01*
X124859Y49486D01*
X124365Y49412D01*
X124139Y49639D01*
X123846Y49834D01*
X123500Y49903D01*
X89664D01*
X89604Y49994D01*
X89148Y50298D01*
X88610Y50405D01*
X88073Y50298D01*
X87617Y49994D01*
X87430Y49714D01*
X86930D01*
X86743Y49994D01*
X86288Y50298D01*
X86242Y50307D01*
Y48999D01*
X85751D01*
Y48508D01*
X84443D01*
X84437Y48540D01*
X84119Y48153D01*
X80624D01*
X74634Y54144D01*
X74655Y54250D01*
X74548Y54788D01*
X74243Y55243D01*
X73788Y55548D01*
X73250Y55655D01*
X72712Y55548D01*
X72257Y55243D01*
X71952Y54788D01*
X71845Y54250D01*
X71952Y53712D01*
X72257Y53257D01*
X72712Y52952D01*
X73250Y52845D01*
X73356Y52866D01*
X79333Y46890D01*
X79283Y46393D01*
X79134Y46293D01*
X77734D01*
X65139Y58889D01*
X64846Y59084D01*
D01*
X64846D01*
X64847Y59097D01*
X83619D01*
X83680Y59007D01*
X84136Y58702D01*
X84673Y58595D01*
X85211Y58702D01*
X85667Y59007D01*
X85971Y59462D01*
X86078Y60000D01*
X85971Y60538D01*
X85667Y60993D01*
X85211Y61298D01*
X84673Y61405D01*
X84136Y61298D01*
X83680Y60993D01*
X83619Y60903D01*
X56054D01*
X55993Y60993D01*
X55538Y61298D01*
X55000Y61405D01*
X54462Y61298D01*
X54007Y60993D01*
X53702Y60538D01*
X53210Y60636D01*
Y61606D01*
X53080Y62259D01*
X52710Y62813D01*
X52157Y63182D01*
X51504Y63312D01*
X50851Y63182D01*
X50298Y62813D01*
X50179Y62635D01*
X49679D01*
X49561Y62813D01*
X49007Y63182D01*
X48846Y63214D01*
Y59243D01*
X47862D01*
Y63214D01*
X47701Y63182D01*
X47148Y62813D01*
X47030Y62635D01*
X46529D01*
X46411Y62813D01*
X45858Y63182D01*
X45205Y63312D01*
X44552Y63182D01*
X43998Y62813D01*
X43880Y62635D01*
X43380D01*
X43261Y62813D01*
X42708Y63182D01*
X42055Y63312D01*
X41402Y63182D01*
X40849Y62813D01*
X40730Y62635D01*
X40230D01*
X40112Y62813D01*
X39558Y63182D01*
X38906Y63312D01*
X38253Y63182D01*
X37699Y62813D01*
X37581Y62635D01*
X37081D01*
X36962Y62813D01*
X36409Y63182D01*
X35756Y63312D01*
X35103Y63182D01*
X34550Y62813D01*
X34431Y62635D01*
X33931D01*
X33813Y62813D01*
X33259Y63182D01*
X32606Y63312D01*
X31953Y63182D01*
X31400Y62813D01*
X31282Y62635D01*
X30781D01*
X30663Y62813D01*
X30110Y63182D01*
X29949Y63214D01*
Y59243D01*
X28965D01*
Y63214D01*
X28804Y63182D01*
X28250Y62813D01*
X28132Y62635D01*
X27632D01*
X27513Y62813D01*
X27210Y63015D01*
Y64193D01*
X27141Y64539D01*
X26946Y64832D01*
X26946Y64832D01*
X25903Y65874D01*
Y69876D01*
X26624Y70597D01*
X27438D01*
X27598Y70123D01*
X27473Y70027D01*
X26905Y69287D01*
X26548Y68425D01*
X26426Y67500D01*
X26548Y66575D01*
X26905Y65713D01*
X27473Y64973D01*
X28213Y64405D01*
X29075Y64048D01*
X30000Y63926D01*
X30925Y64048D01*
X31787Y64405D01*
X32527Y64973D01*
X33095Y65713D01*
X33452Y66575D01*
X33574Y67500D01*
X33452Y68425D01*
X33095Y69287D01*
X32527Y70027D01*
X31787Y70595D01*
D01*
X31787D01*
X31787Y70597D01*
X37438D01*
X37598Y70123D01*
X37473Y70027D01*
X36905Y69287D01*
X36548Y68425D01*
X36426Y67500D01*
X36548Y66575D01*
X36905Y65713D01*
X37473Y64973D01*
X38213Y64405D01*
X39075Y64048D01*
X40000Y63926D01*
X40925Y64048D01*
X41787Y64405D01*
X42527Y64973D01*
X43095Y65713D01*
X43452Y66575D01*
X43574Y67500D01*
X43452Y68425D01*
X43095Y69287D01*
X42527Y70027D01*
X41787Y70595D01*
D01*
X41787D01*
X41787Y70597D01*
X47438D01*
X47598Y70123D01*
X47473Y70027D01*
X46905Y69287D01*
X46548Y68425D01*
X46426Y67500D01*
X46548Y66575D01*
X46905Y65713D01*
X47473Y64973D01*
X48213Y64405D01*
X49075Y64048D01*
X50000Y63926D01*
X50925Y64048D01*
X51787Y64405D01*
X52527Y64973D01*
X53095Y65713D01*
X53452Y66575D01*
X53515Y67050D01*
X53584Y67154D01*
X53653Y67500D01*
X53584Y67846D01*
X53515Y67950D01*
X53452Y68425D01*
X53095Y69287D01*
X52527Y70027D01*
X51787Y70595D01*
D01*
X51787D01*
X51787Y70597D01*
X57438D01*
X57598Y70123D01*
X57473Y70027D01*
X56905Y69287D01*
X56548Y68425D01*
X56426Y67500D01*
X56548Y66575D01*
X56905Y65713D01*
X57473Y64973D01*
X58213Y64405D01*
X59075Y64048D01*
X60000Y63926D01*
X60925Y64048D01*
X61787Y64405D01*
X62527Y64973D01*
X63095Y65713D01*
X63452Y66575D01*
X63515Y67050D01*
X63584Y67154D01*
X63653Y67500D01*
X63584Y67846D01*
X63515Y67950D01*
X63452Y68425D01*
X63095Y69287D01*
X62527Y70027D01*
X61787Y70595D01*
D01*
X61787D01*
X61787Y70597D01*
X67438D01*
X67598Y70123D01*
X67473Y70027D01*
X66905Y69287D01*
X66548Y68425D01*
X66426Y67500D01*
X66548Y66575D01*
X66905Y65713D01*
X67473Y64973D01*
X68213Y64405D01*
X69075Y64048D01*
X70000Y63926D01*
X70925Y64048D01*
X71787Y64405D01*
X72527Y64973D01*
X73095Y65713D01*
X73452Y66575D01*
X73574Y67500D01*
X73452Y68425D01*
X73095Y69287D01*
X72527Y70027D01*
X71787Y70595D01*
D01*
X71787D01*
X71787Y70597D01*
X77438D01*
X77598Y70123D01*
X77473Y70027D01*
X76905Y69287D01*
X76548Y68425D01*
X76426Y67500D01*
X76548Y66575D01*
X76905Y65713D01*
X77473Y64973D01*
X78213Y64405D01*
X79075Y64048D01*
X80000Y63926D01*
X80925Y64048D01*
X81787Y64405D01*
X82527Y64973D01*
X83095Y65713D01*
X83452Y66575D01*
X83574Y67500D01*
X83452Y68425D01*
X83095Y69287D01*
X82527Y70027D01*
X81787Y70595D01*
D01*
X81787D01*
X81787Y70597D01*
X85626D01*
X86918Y69304D01*
X86905Y69287D01*
X86548Y68425D01*
X86426Y67500D01*
X86548Y66575D01*
X86905Y65713D01*
X87473Y64973D01*
X88213Y64405D01*
X89075Y64048D01*
X90000Y63926D01*
X90925Y64048D01*
X91787Y64405D01*
X92527Y64973D01*
X93095Y65713D01*
X93452Y66575D01*
X93574Y67500D01*
X93452Y68425D01*
X93095Y69287D01*
X92527Y70027D01*
X91787Y70595D01*
X90925Y70952D01*
X90000Y71074D01*
X89075Y70952D01*
X88213Y70595D01*
X88196Y70582D01*
X86639Y72139D01*
X86346Y72334D01*
X86000Y72403D01*
X26250D01*
X26250Y72403D01*
D02*
G37*
G36*
X4016Y66516D02*
X1572D01*
X1905Y65713D01*
X2473Y64973D01*
X3213Y64405D01*
X4016Y64073D01*
Y66516D01*
D02*
G37*
G36*
X177008Y62307D02*
X176962Y62298D01*
X176506Y61993D01*
X176202Y61538D01*
X176193Y61492D01*
X177008D01*
Y62307D01*
D02*
G37*
G36*
X177992D02*
Y61492D01*
X178807D01*
X178798Y61538D01*
X178493Y61993D01*
X178038Y62298D01*
X177992Y62307D01*
D02*
G37*
G36*
X8427Y66516D02*
X5984D01*
Y64073D01*
X6787Y64405D01*
X7527Y64973D01*
X8095Y65713D01*
X8427Y66516D01*
D02*
G37*
G36*
X188976Y51084D02*
X186024D01*
X185217Y50923D01*
X184534Y50467D01*
X184077Y49783D01*
X183916Y48976D01*
Y46024D01*
X184077Y45217D01*
X184534Y44534D01*
X185217Y44077D01*
X186024Y43916D01*
X188976D01*
X189783Y44077D01*
X190466Y44534D01*
X190923Y45217D01*
X191084Y46024D01*
Y48976D01*
X190923Y49783D01*
X190466Y50467D01*
X189783Y50923D01*
X188976Y51084D01*
D02*
G37*
G36*
X138557Y37008D02*
X137742D01*
Y36193D01*
X137788Y36202D01*
X138243Y36507D01*
X138548Y36962D01*
X138557Y37008D01*
D02*
G37*
G36*
X4016Y70928D02*
X3213Y70595D01*
X2473Y70027D01*
X1905Y69287D01*
X1572Y68484D01*
X4016D01*
Y70928D01*
D02*
G37*
G36*
X5984D02*
Y68484D01*
X8427D01*
X8095Y69287D01*
X7527Y70027D01*
X6787Y70595D01*
X5984Y70928D01*
D02*
G37*
G36*
X173543Y61722D02*
X173361Y61686D01*
X172873Y61360D01*
X172546Y60871D01*
X172471Y60492D01*
X173543D01*
Y61722D01*
D02*
G37*
G36*
X98008Y52768D02*
X95799D01*
Y52620D01*
X95894Y52140D01*
X96166Y51733D01*
X96573Y51461D01*
X97053Y51366D01*
X98008D01*
Y52768D01*
D02*
G37*
G36*
X85258Y50307D02*
X85212Y50298D01*
X84757Y49994D01*
X84452Y49538D01*
X84443Y49492D01*
X85258D01*
Y50307D01*
D02*
G37*
G36*
X151028Y62222D02*
Y60992D01*
X152100D01*
X152025Y61371D01*
X151698Y61860D01*
X151210Y62186D01*
X151028Y62222D01*
D02*
G37*
G36*
X174528Y61722D02*
Y60492D01*
X175600D01*
X175525Y60871D01*
X175198Y61360D01*
X174710Y61686D01*
X174528Y61722D01*
D02*
G37*
%LPD*%
G36*
X44001Y18326D02*
X43998Y18324D01*
X43880Y18147D01*
X43380D01*
X43261Y18324D01*
X42958Y18527D01*
Y21446D01*
X43049Y21507D01*
X43353Y21962D01*
X43460Y22500D01*
X43353Y23038D01*
X43049Y23494D01*
X42593Y23798D01*
X42055Y23905D01*
X41517Y23798D01*
X41062Y23494D01*
X40757Y23038D01*
X40650Y22500D01*
X40757Y21962D01*
X41062Y21507D01*
X41152Y21446D01*
Y18527D01*
X40849Y18324D01*
X40730Y18147D01*
X40230D01*
X40112Y18324D01*
X39558Y18694D01*
X38906Y18824D01*
X38253Y18694D01*
X37699Y18324D01*
X37581Y18147D01*
X37526D01*
X37215Y18355D01*
X37068Y18534D01*
X37161Y19000D01*
X37054Y19538D01*
X36749Y19994D01*
X36294Y20298D01*
X35756Y20405D01*
X35218Y20298D01*
X34762Y19994D01*
X34458Y19538D01*
X34378Y19136D01*
X33878D01*
X33798Y19538D01*
X33494Y19994D01*
X33038Y20298D01*
X32500Y20405D01*
X31962Y20298D01*
X31506Y19994D01*
X31202Y19538D01*
X31095Y19000D01*
X31188Y18534D01*
X30871Y18147D01*
X30781D01*
X30663Y18324D01*
X30110Y18694D01*
X29949Y18726D01*
Y14755D01*
X28965D01*
Y18726D01*
X28804Y18694D01*
X28250Y18324D01*
X28132Y18147D01*
X28077D01*
X27766Y18355D01*
X27619Y18534D01*
X27712Y19000D01*
X27605Y19538D01*
X27301Y19994D01*
X26845Y20298D01*
X26307Y20405D01*
X26261Y20396D01*
X26048Y20714D01*
X26155Y21252D01*
X26048Y21790D01*
X25743Y22245D01*
X25288Y22550D01*
X24750Y22657D01*
X24212Y22550D01*
X23756Y22245D01*
X23696Y22155D01*
X17283D01*
X17080Y22458D01*
X16903Y22577D01*
Y23077D01*
X17080Y23195D01*
X17283Y23498D01*
X23696D01*
X23756Y23408D01*
X24212Y23104D01*
X24750Y22997D01*
X25288Y23104D01*
X25743Y23408D01*
X26048Y23864D01*
X26155Y24402D01*
X26048Y24939D01*
X25743Y25395D01*
X25288Y25700D01*
X24750Y25806D01*
X24212Y25700D01*
X23756Y25395D01*
X23696Y25305D01*
X17283D01*
X17080Y25608D01*
X16903Y25726D01*
Y26226D01*
X17080Y26345D01*
X17283Y26648D01*
X23696D01*
X23756Y26558D01*
X24212Y26253D01*
X24750Y26146D01*
X25288Y26253D01*
X25743Y26558D01*
X26048Y27013D01*
X26155Y27551D01*
X26048Y28089D01*
X25743Y28545D01*
X25288Y28849D01*
X24750Y28956D01*
X24212Y28849D01*
X23756Y28545D01*
X23696Y28454D01*
X17283D01*
X17080Y28758D01*
X16903Y28876D01*
Y29376D01*
X17080Y29495D01*
X17082Y29496D01*
X21701D01*
X21701Y29496D01*
X22162Y29588D01*
X22552Y29849D01*
X26213Y33510D01*
X26691Y33365D01*
X26595Y33850D01*
X26605Y33902D01*
X27046Y34343D01*
X27508D01*
Y34804D01*
X27949Y35245D01*
X28000Y35256D01*
X27986Y35282D01*
X28499Y35796D01*
X31928D01*
X32069Y35702D01*
X32606Y35595D01*
X33144Y35702D01*
X33284Y35796D01*
X44001D01*
Y18326D01*
D02*
G37*
G36*
X28861Y49361D02*
X28861D01*
X28861Y49361D01*
X28861D01*
X28861Y49361D01*
Y49361D01*
X28861Y49361D01*
Y49361D01*
X29154Y49166D01*
X29212Y49154D01*
X29500Y49097D01*
X29500Y49097D01*
X34196D01*
X34257Y49007D01*
X34712Y48702D01*
X35250Y48595D01*
X35788Y48702D01*
X36244Y49007D01*
X36548Y49462D01*
X36655Y50000D01*
X36605Y50252D01*
X36959Y50605D01*
X37000Y50597D01*
X51250D01*
X51596Y50666D01*
X51889Y50861D01*
X51889Y50861D01*
X51889Y50861D01*
X53531Y52504D01*
X54009Y52358D01*
X54062Y52095D01*
X54431Y51542D01*
X54609Y51423D01*
Y50923D01*
X54431Y50805D01*
X54062Y50251D01*
X53932Y49598D01*
X54062Y48946D01*
X54431Y48392D01*
X54609Y48274D01*
Y47774D01*
X54431Y47655D01*
X54062Y47102D01*
X53932Y46449D01*
X54062Y45796D01*
X54431Y45243D01*
X54609Y45124D01*
Y44624D01*
X54431Y44506D01*
X54062Y43952D01*
X53932Y43299D01*
X54062Y42646D01*
X54431Y42093D01*
X54609Y41974D01*
Y41474D01*
X54431Y41356D01*
X54062Y40802D01*
X53932Y40150D01*
X54062Y39497D01*
X54431Y38943D01*
X54609Y38825D01*
Y38325D01*
X54431Y38206D01*
X54430Y38204D01*
X45250D01*
X45250Y38204D01*
X45250Y38204D01*
X33284D01*
X33144Y38298D01*
X32606Y38405D01*
X32069Y38298D01*
X31928Y38204D01*
X28000D01*
X27539Y38113D01*
X27149Y37852D01*
X27149Y37852D01*
X26190Y36893D01*
X25655Y37000D01*
X25548Y37538D01*
X25243Y37993D01*
X24788Y38298D01*
X24250Y38405D01*
X23712Y38298D01*
X23257Y37993D01*
X23196Y37903D01*
X17283D01*
X17080Y38206D01*
X16903Y38325D01*
Y38825D01*
X17080Y38943D01*
X17283Y39246D01*
X20696D01*
X20756Y39156D01*
X21212Y38852D01*
X21750Y38745D01*
X22288Y38852D01*
X22743Y39156D01*
X23048Y39612D01*
X23155Y40150D01*
X23048Y40687D01*
X22743Y41143D01*
X22288Y41448D01*
X21750Y41555D01*
X21212Y41448D01*
X20756Y41143D01*
X20696Y41053D01*
X17283D01*
X17080Y41356D01*
X16903Y41474D01*
Y41974D01*
X17080Y42093D01*
X17283Y42396D01*
X18946D01*
X19006Y42306D01*
X19462Y42001D01*
X20000Y41894D01*
X20538Y42001D01*
X20993Y42306D01*
X21298Y42762D01*
X21405Y43299D01*
X21298Y43837D01*
X20993Y44293D01*
X20538Y44597D01*
X20000Y44704D01*
X19462Y44597D01*
X19006Y44293D01*
X18946Y44202D01*
X17283D01*
X17080Y44506D01*
X16927Y44608D01*
X17118Y45070D01*
X16758Y45142D01*
Y46448D01*
Y47756D01*
X17118Y47828D01*
X16927Y48289D01*
X17080Y48392D01*
X17283Y48695D01*
X23196D01*
X23257Y48605D01*
X23712Y48300D01*
X24250Y48193D01*
X24788Y48300D01*
X25243Y48605D01*
X25548Y49061D01*
X25655Y49598D01*
X25548Y50136D01*
X25243Y50592D01*
X24788Y50896D01*
X24250Y51003D01*
X23712Y50896D01*
X23257Y50592D01*
X23196Y50502D01*
X22020D01*
X21785Y50942D01*
X21798Y50962D01*
X21905Y51500D01*
X21798Y52038D01*
X21494Y52493D01*
X21525Y52597D01*
X25626D01*
X28861Y49361D01*
D02*
G37*
G36*
X184816Y28625D02*
Y28507D01*
X184662Y28405D01*
X184412Y28030D01*
X184324Y27589D01*
Y24734D01*
X184412Y24293D01*
X184662Y23918D01*
X185037Y23668D01*
X185478Y23580D01*
X186561D01*
X187003Y23668D01*
X187377Y23918D01*
X187627Y24293D01*
X187640Y24356D01*
X188140D01*
X188152Y24293D01*
X188402Y23918D01*
X188777Y23668D01*
X189218Y23580D01*
X189268D01*
Y26162D01*
X190252D01*
Y23580D01*
X190301D01*
X190743Y23668D01*
X191117Y23918D01*
X191367Y24293D01*
X191380Y24356D01*
X191880D01*
X191893Y24293D01*
X192143Y23918D01*
X192517Y23668D01*
X192959Y23580D01*
X194041D01*
X194460Y23663D01*
X194847Y23346D01*
Y20315D01*
X194460Y19998D01*
X194041Y20081D01*
X192959D01*
X192517Y19993D01*
X192143Y19743D01*
X191893Y19369D01*
X191805Y18927D01*
Y16073D01*
X191893Y15631D01*
X192107Y15310D01*
X191468Y14671D01*
X190817Y14541D01*
X190794Y14544D01*
X190494Y14994D01*
X190038Y15298D01*
X189500Y15405D01*
X188962Y15298D01*
X188506Y14994D01*
X188202Y14538D01*
X188131Y14181D01*
X183562D01*
X183244Y14567D01*
X183272Y14705D01*
Y25295D01*
X183209Y25610D01*
X183031Y25877D01*
X182764Y26055D01*
X182449Y26118D01*
X182047D01*
X181855Y26580D01*
X184165Y28890D01*
X184429Y28942D01*
X184816Y28625D01*
D02*
G37*
G36*
X200984Y14073D02*
X201787Y14405D01*
X202527Y14973D01*
X202623Y15098D01*
X203097Y14938D01*
Y10062D01*
X202623Y9902D01*
X202527Y10027D01*
X201787Y10595D01*
X200984Y10927D01*
Y7499D01*
X200001D01*
Y6516D01*
X196572D01*
X196905Y5713D01*
X197473Y4973D01*
X197598Y4877D01*
X197438Y4403D01*
X192562D01*
X192402Y4877D01*
X192527Y4973D01*
X193095Y5713D01*
X193452Y6575D01*
X193574Y7500D01*
X193452Y8425D01*
X193095Y9287D01*
X192527Y10027D01*
X191787Y10595D01*
D01*
X191787D01*
X191787Y10597D01*
X193500D01*
X193846Y10666D01*
X194139Y10861D01*
X194139Y10861D01*
X194139Y10861D01*
X196389Y13111D01*
X196584Y13404D01*
X196653Y13750D01*
X196653Y13750D01*
X196653Y13750D01*
Y13750D01*
Y15263D01*
X197127Y15424D01*
X197473Y14973D01*
X198213Y14405D01*
X199016Y14073D01*
Y17501D01*
X200984D01*
Y14073D01*
D02*
G37*
%LPC*%
G36*
X199016Y10927D02*
X198213Y10595D01*
X197473Y10027D01*
X196905Y9287D01*
X196572Y8484D01*
X199016D01*
Y10927D01*
D02*
G37*
G36*
X186561Y20081D02*
X185478D01*
X185037Y19993D01*
X184662Y19743D01*
X184412Y19369D01*
X184324Y18927D01*
Y16073D01*
X184412Y15631D01*
X184662Y15257D01*
X185037Y15007D01*
X185478Y14919D01*
X186561D01*
X187003Y15007D01*
X187377Y15257D01*
X187627Y15631D01*
X187715Y16073D01*
Y18927D01*
X187627Y19369D01*
X187377Y19743D01*
X187003Y19993D01*
X186561Y20081D01*
D02*
G37*
G36*
X27508Y47756D02*
X27462Y47747D01*
X27007Y47442D01*
X26702Y46986D01*
X26693Y46941D01*
X27508D01*
Y47756D01*
D02*
G37*
G36*
X17742D02*
Y46941D01*
X18557D01*
X18548Y46986D01*
X18244Y47442D01*
X17788Y47747D01*
X17742Y47756D01*
D02*
G37*
G36*
X28492D02*
Y46941D01*
X29307D01*
X29298Y46986D01*
X28993Y47442D01*
X28538Y47747D01*
X28492Y47756D01*
D02*
G37*
G36*
X39008Y33358D02*
X38193D01*
X38202Y33313D01*
X38506Y32857D01*
X38962Y32552D01*
X39008Y32543D01*
Y33358D01*
D02*
G37*
G36*
X40807D02*
X39992D01*
Y32543D01*
X40038Y32552D01*
X40494Y32857D01*
X40798Y33313D01*
X40807Y33358D01*
D02*
G37*
G36*
X29307Y45957D02*
X28492D01*
Y45142D01*
X28538Y45151D01*
X28993Y45455D01*
X29298Y45911D01*
X29307Y45957D01*
D02*
G37*
G36*
X39992Y35157D02*
Y34343D01*
X40807D01*
X40798Y34388D01*
X40494Y34844D01*
X40038Y35148D01*
X39992Y35157D01*
D02*
G37*
G36*
X18557Y45957D02*
X17742D01*
Y45142D01*
X17788Y45151D01*
X18244Y45455D01*
X18548Y45911D01*
X18557Y45957D01*
D02*
G37*
G36*
X39008Y35157D02*
X38962Y35148D01*
X38506Y34844D01*
X38202Y34388D01*
X38193Y34343D01*
X39008D01*
Y35157D01*
D02*
G37*
G36*
X27508Y45957D02*
X26693D01*
X26702Y45911D01*
X27007Y45455D01*
X27462Y45151D01*
X27508Y45142D01*
Y45957D01*
D02*
G37*
G36*
X28492Y35157D02*
Y34343D01*
X29307D01*
X29298Y34388D01*
X28993Y34844D01*
X28538Y35148D01*
X28492Y35157D01*
D02*
G37*
G36*
X190252Y23057D02*
Y22242D01*
X191067D01*
X191058Y22288D01*
X190753Y22743D01*
X190297Y23048D01*
X190252Y23057D01*
D02*
G37*
G36*
X190173Y23580D02*
X189347D01*
X189396Y23083D01*
X189760Y23155D01*
X190124Y23083D01*
X190173Y23580D01*
D02*
G37*
G36*
X189268Y23057D02*
X189222Y23048D01*
X188766Y22743D01*
X188462Y22288D01*
X188453Y22242D01*
X189268D01*
Y23057D01*
D02*
G37*
G36*
Y21258D02*
X188453D01*
X188462Y21212D01*
X188766Y20756D01*
X189222Y20452D01*
X189268Y20443D01*
Y21258D01*
D02*
G37*
G36*
X191067D02*
X190252D01*
Y20443D01*
X190297Y20452D01*
X190753Y20756D01*
X191058Y21212D01*
X191067Y21258D01*
D02*
G37*
G36*
X28965Y26008D02*
X28150D01*
X28159Y25962D01*
X28463Y25506D01*
X28919Y25202D01*
X28965Y25193D01*
Y26008D01*
D02*
G37*
G36*
X27508Y33358D02*
X26693D01*
X26702Y33313D01*
X27007Y32857D01*
X27462Y32552D01*
X27508Y32543D01*
Y33358D01*
D02*
G37*
G36*
X29307D02*
X28492D01*
Y32543D01*
X28538Y32552D01*
X28993Y32857D01*
X29298Y33313D01*
X29307Y33358D01*
D02*
G37*
G36*
X29949Y27807D02*
Y26992D01*
X30764D01*
X30755Y27038D01*
X30450Y27494D01*
X29994Y27798D01*
X29949Y27807D01*
D02*
G37*
G36*
X30764Y26008D02*
X29949D01*
Y25193D01*
X29994Y25202D01*
X30450Y25506D01*
X30755Y25962D01*
X30764Y26008D01*
D02*
G37*
G36*
X28965Y27807D02*
X28919Y27798D01*
X28463Y27494D01*
X28159Y27038D01*
X28150Y26992D01*
X28965D01*
Y27807D01*
D02*
G37*
%LPD*%
D10*
X190000Y67905D02*
D03*
Y56094D02*
D03*
X80500Y38500D02*
D03*
Y26689D02*
D03*
D11*
X178000Y52500D02*
D03*
Y56535D02*
D03*
X45000Y9000D02*
D03*
Y4965D02*
D03*
X68000Y37000D02*
D03*
Y32965D02*
D03*
X104000Y37000D02*
D03*
Y32965D02*
D03*
X112500Y59500D02*
D03*
Y55465D02*
D03*
X117500Y59500D02*
D03*
Y55465D02*
D03*
D12*
X180500Y20000D02*
D03*
X168689D02*
D03*
D13*
X154500Y15500D02*
D03*
X158535D02*
D03*
X154500Y20500D02*
D03*
X158535D02*
D03*
X80000Y21000D02*
D03*
X75965D02*
D03*
X146500Y60500D02*
D03*
X150535D02*
D03*
X170000Y60000D02*
D03*
X174035D02*
D03*
D14*
X140000Y17000D02*
D03*
Y11095D02*
D03*
X120000Y17000D02*
D03*
Y11095D02*
D03*
X130000Y17000D02*
D03*
Y11095D02*
D03*
X110000Y17000D02*
D03*
Y11095D02*
D03*
X100000Y17000D02*
D03*
Y11095D02*
D03*
X90000Y17000D02*
D03*
Y11095D02*
D03*
X80000Y17000D02*
D03*
Y11095D02*
D03*
X70000Y17000D02*
D03*
Y11095D02*
D03*
X90500Y59500D02*
D03*
Y53594D02*
D03*
D15*
X20008Y14756D02*
D03*
X23157D02*
D03*
X26307D02*
D03*
X29457Y14756D02*
D03*
X32606Y14756D02*
D03*
X35756D02*
D03*
X38906D02*
D03*
X42055D02*
D03*
X45205D02*
D03*
X48354Y14756D02*
D03*
X51504D02*
D03*
X51504Y59244D02*
D03*
X48354D02*
D03*
X45205D02*
D03*
X42055D02*
D03*
X38906D02*
D03*
X35756D02*
D03*
X32606D02*
D03*
X29457D02*
D03*
X26307D02*
D03*
X23157D02*
D03*
X20008D02*
D03*
D16*
X58000Y21252D02*
D03*
Y24402D02*
D03*
X58000Y27551D02*
D03*
Y30701D02*
D03*
Y33850D02*
D03*
Y37000D02*
D03*
Y40150D02*
D03*
X58000Y43299D02*
D03*
X58000Y46449D02*
D03*
Y49598D02*
D03*
Y52748D02*
D03*
X13512Y52748D02*
D03*
Y49598D02*
D03*
Y46449D02*
D03*
Y43299D02*
D03*
Y40150D02*
D03*
Y37000D02*
D03*
Y33850D02*
D03*
Y30701D02*
D03*
Y27551D02*
D03*
Y24402D02*
D03*
Y21252D02*
D03*
D17*
X107161Y60740D02*
D03*
X107161Y53260D02*
D03*
X98500D02*
D03*
Y60740D02*
D03*
X98500Y57000D02*
D03*
D18*
X171400Y52500D02*
D03*
X171400Y47500D02*
D03*
Y42500D02*
D03*
X171400Y37500D02*
D03*
X143000Y47500D02*
D03*
X143000Y37500D02*
D03*
X143000Y42500D02*
D03*
D19*
X143000Y52500D02*
D03*
D20*
X160000Y59000D02*
D03*
X156260Y66874D02*
D03*
X163740D02*
D03*
D21*
X193500Y26161D02*
D03*
X189760D02*
D03*
X186020D02*
D03*
X186020Y17500D02*
D03*
X193500Y17500D02*
D03*
D22*
X48354Y9146D02*
X50000Y7500D01*
X48354Y9146D02*
Y14756D01*
X58000Y21252D02*
X61998D01*
X13512Y43299D02*
X20000D01*
X20008Y59244D02*
Y67492D01*
X20000Y67500D02*
X20008Y67492D01*
X29457Y55957D02*
Y59244D01*
X28000Y54500D02*
X29457Y55957D01*
X50000Y67500D02*
X52750D01*
X86000Y71500D02*
X90000Y67500D01*
X26250Y71500D02*
X86000D01*
X25000Y70250D02*
X26250Y71500D01*
X25000Y65500D02*
Y70250D01*
Y65500D02*
X26307Y64193D01*
Y59244D02*
Y64193D01*
X45205Y53795D02*
Y59244D01*
Y53795D02*
X46250Y52750D01*
X48354Y55000D02*
Y59244D01*
X42055Y54305D02*
Y59244D01*
X17250Y46449D02*
X28000D01*
X15000Y14756D02*
X20008D01*
X5000Y37500D02*
X9000Y41500D01*
X5000Y27500D02*
X9000Y23500D01*
X133250Y3500D02*
X135250Y5500D01*
X137000Y17000D02*
X140000D01*
X135250Y5500D02*
Y15250D01*
X137000Y17000D01*
X35756Y14756D02*
Y19000D01*
X13512Y33850D02*
X17750D01*
X13512Y40150D02*
X21750D01*
X28000Y33850D02*
X29457D01*
X26307Y14756D02*
Y19000D01*
X23157Y14756D02*
Y19000D01*
X13512Y21252D02*
X24750D01*
X85000Y5500D02*
Y15500D01*
X86500Y17000D01*
X90000D01*
X65500Y11431D02*
Y15500D01*
X67000Y17000D01*
X70000D01*
X125000Y15750D02*
X126250Y17000D01*
X130000D01*
X75000D02*
X80000D01*
X107000D02*
X110000D01*
X23157Y55158D02*
Y59244D01*
X22750Y54750D02*
X23157Y55158D01*
X26000Y53500D02*
X29500Y50000D01*
X18250Y51500D02*
X20500D01*
X38906Y54655D02*
Y59244D01*
X35756Y52744D02*
Y59244D01*
Y52744D02*
X37000Y51500D01*
X37750Y53500D02*
X38906Y54655D01*
X60000Y67500D02*
X62750D01*
X29457Y33850D02*
X39500D01*
X95250Y17000D02*
X100000D01*
X58000Y27551D02*
X65000D01*
X58000Y24402D02*
X65000D01*
X51500Y33850D02*
X51504Y33847D01*
X51500Y33850D02*
X58000D01*
X46250Y52750D02*
X50750D01*
X37000Y51500D02*
X51250D01*
X73250Y54250D02*
X80250Y47250D01*
X102829Y41750D02*
X104500Y43421D01*
X67000Y29750D02*
X68250Y31000D01*
X100250D01*
X105000Y15000D02*
X107000Y17000D01*
X94250Y16000D02*
X95250Y17000D01*
X94250Y13250D02*
Y16000D01*
X110000Y67500D02*
X114000Y71500D01*
X100000Y67500D02*
X104000Y63500D01*
X113500Y11500D02*
Y16250D01*
X114250Y17000D01*
X120000D01*
X124750Y35250D02*
X127000Y37500D01*
X120750Y33500D02*
X121750Y32500D01*
X128500D01*
X120750Y26750D02*
X161250D01*
X115890Y31610D02*
X120750Y26750D01*
X200000Y27500D02*
X200250Y27250D01*
X203500D01*
X204000Y5500D02*
Y26750D01*
X203500Y27250D02*
X204000Y26750D01*
X98500Y60740D02*
X101510D01*
X95250Y57000D02*
X98500D01*
X94500Y57750D02*
X95250Y57000D01*
X94500Y57750D02*
Y59484D01*
X94516Y59500D01*
X90500D02*
X94516D01*
X107161Y60740D02*
X107902Y60000D01*
X138500Y52500D02*
X143000D01*
X98500Y53260D02*
X100990D01*
X123250Y30000D02*
X125250Y28000D01*
X131750D01*
X132250Y28500D01*
X180000D01*
X58000Y33850D02*
X66650D01*
X67750Y32750D01*
X72679Y27931D02*
X74498Y29750D01*
X79500D01*
X79510Y29740D01*
X95510D01*
X96250Y29000D01*
X163750Y66884D02*
Y69750D01*
X163740Y66874D02*
X163750Y66884D01*
X200000Y55250D02*
Y57500D01*
X202000Y3500D02*
X204000Y5500D01*
X85750Y51750D02*
X87260Y53260D01*
X85750Y49000D02*
Y51750D01*
X127000Y37500D02*
X137250D01*
X143000D01*
X51504Y14756D02*
Y26500D01*
Y33847D01*
X29457Y14756D02*
Y26500D01*
Y33850D01*
X60000Y7500D02*
Y15500D01*
X62500Y18000D01*
Y20750D01*
X61998Y21252D02*
X62500Y20750D01*
X13512Y49598D02*
X24250D01*
X58000Y43299D02*
X62951D01*
X71250Y35000D02*
X98453D01*
X101510Y60740D02*
X104750Y57500D01*
X103195Y55465D02*
X112500D01*
X100990Y53260D02*
X103195Y55465D01*
X176000Y63500D02*
X180000Y67500D01*
X189250Y61000D02*
X191500Y58750D01*
X107161Y53260D02*
X120010D01*
X112500Y55465D02*
X117500D01*
X163250Y25000D02*
X165000Y26750D01*
X180748D01*
X189760Y21750D02*
Y26161D01*
X193500Y11500D02*
X195750Y13750D01*
Y33250D01*
X200000Y37500D01*
X177500Y61000D02*
X189250D01*
X197000Y42250D02*
X201250D01*
X204000Y45000D01*
Y53500D01*
X200000Y57500D02*
X204000Y53500D01*
X45000Y3000D02*
Y4965D01*
X143250Y10000D02*
X144000Y9250D01*
Y3500D02*
Y9250D01*
X96250Y29000D02*
X106500D01*
X111000Y33500D01*
X120750D01*
X107000Y32750D02*
X109500Y35250D01*
X124750D01*
X178000Y56535D02*
Y60500D01*
X177500Y61000D02*
X178000Y60500D01*
X128500Y22500D02*
Y23500D01*
X80000Y21000D02*
X82000D01*
X73498Y26250D02*
X74998Y27750D01*
X72750Y24500D02*
X73750Y23500D01*
X71750Y26250D02*
X73498D01*
X70750Y25250D02*
X71750Y26250D01*
X13512Y24402D02*
X24750D01*
X13512Y27551D02*
X24750D01*
X104000Y63500D02*
X134500D01*
X174035Y60000D02*
Y61000D01*
X167500Y60000D02*
X170000D01*
X165750Y58250D02*
X167500Y60000D01*
X157250Y62250D02*
X173750D01*
X174035Y61965D01*
Y61000D02*
Y61965D01*
X146500Y58250D02*
Y60000D01*
X150535Y60500D02*
X155500D01*
X157250Y62250D01*
X135000Y25000D02*
X163250D01*
X158500Y22500D02*
X158535Y22465D01*
X158500Y22500D02*
X164750D01*
X158535Y15500D02*
Y20500D01*
Y22465D01*
X13512Y37000D02*
X24250D01*
X73250Y15750D02*
Y17750D01*
X70750Y23750D02*
Y25250D01*
Y23750D02*
X73500Y21000D01*
X75965D01*
X68500Y22500D02*
X73250Y17750D01*
X42055Y14756D02*
Y22500D01*
X58000Y30701D02*
X62451D01*
X63750Y32000D01*
X65000D01*
Y29750D02*
X67000D01*
X58000Y46449D02*
X63051D01*
X55000Y60000D02*
X84673D01*
X51504Y58250D02*
Y59244D01*
X50750Y52750D02*
X54500Y56500D01*
X63000D01*
X51250Y51500D02*
X54500Y54750D01*
X114000Y71500D02*
X158000D01*
X159750Y69750D01*
X126000Y61750D02*
X142750D01*
X144500Y63500D01*
X176000D01*
X9000Y18250D02*
Y23500D01*
Y18250D02*
X15500Y11750D01*
X29500Y50000D02*
X35250D01*
X5000Y51053D02*
X9947Y56000D01*
X9000Y41500D02*
Y53382D01*
X10368Y54750D01*
X5000Y47500D02*
Y51053D01*
X18000Y53500D02*
X26000D01*
X13512Y52748D02*
X17002D01*
X18250Y51500D01*
X10368Y54750D02*
X16750D01*
X18000Y53500D01*
X9947Y56000D02*
X17250D01*
X18500Y54750D01*
X22750D01*
X15500Y5000D02*
Y11750D01*
Y5000D02*
X17000Y3500D01*
X33000D01*
X34500Y5000D01*
Y7500D01*
X38906Y11906D01*
Y14756D01*
X73250Y15750D02*
X75500Y13500D01*
Y5250D02*
Y13500D01*
Y5250D02*
X77250Y3500D01*
X133250D01*
X58000Y40150D02*
X65400D01*
X67000Y41750D01*
X102829D01*
X58000Y49598D02*
X63000D01*
X151000Y30250D02*
X179250D01*
X135000Y32500D02*
X157000D01*
X143000Y35500D02*
Y37500D01*
Y35500D02*
X143500Y35000D01*
X179905D01*
X149250Y37500D02*
X156500D01*
X132500Y45000D02*
X152750D01*
X135750Y49750D02*
X162500D01*
X164750Y47500D02*
Y51500D01*
X161500Y54750D02*
X164750Y51500D01*
X137500Y54750D02*
X161500D01*
X135000Y40000D02*
X155250D01*
X157750Y42500D01*
X171400D01*
X104750Y57500D02*
X136750D01*
X137750Y56500D01*
X157000D01*
X120010Y53260D02*
X121000Y54250D01*
X117500Y55465D02*
X119465D01*
X120000Y56000D01*
X125000D01*
X128500Y52500D01*
X80250Y47250D02*
X90500D01*
X131250Y48500D02*
X137500Y54750D01*
X130250Y47250D02*
X132500Y45000D01*
X95750Y47250D02*
X130250D01*
X88610Y49000D02*
X123500D01*
X124000Y48500D01*
X131250D01*
X179250Y30250D02*
X182000Y33000D01*
X195000Y42500D02*
X200000Y47500D01*
X182000Y33000D02*
Y40500D01*
X184000Y42500D01*
X195000D01*
X180748Y26750D02*
X186748Y32750D01*
X190750D01*
X194000Y36000D01*
Y39250D01*
X197000Y42250D01*
X145750Y22750D02*
X158250D01*
X158500Y22500D01*
X140000Y20250D02*
X143250D01*
Y10000D02*
Y20250D01*
X145750Y22750D01*
X125000Y11500D02*
Y15750D01*
X147250Y15000D02*
X150750Y11500D01*
X193500D01*
X145250Y5750D02*
Y13250D01*
Y5750D02*
X147500Y3500D01*
X202000D01*
X162500Y40250D02*
X165250Y37500D01*
X171400D01*
X54500Y54750D02*
X64750D01*
X76000Y43500D01*
X98453D01*
X64500Y58250D02*
X77360Y45390D01*
X106500D01*
X107902Y60000D02*
X112500D01*
X117500D01*
X146500D01*
Y58250D02*
X160000D01*
X165750D01*
X134000Y47000D02*
X143000D01*
X73750Y23500D02*
X128500D01*
X32606Y14756D02*
Y19000D01*
X156250Y66750D02*
X156260D01*
X158500D01*
X51504Y58250D02*
X64500D01*
X74998Y27750D02*
X80500D01*
X94516D01*
X67750Y32750D02*
X68000D01*
X94500D01*
X104000D01*
X107000D01*
X87260Y53260D02*
X90500D01*
X98500D01*
X164750Y22500D02*
X168689D01*
X191500Y56094D02*
Y58750D01*
X174035Y61000D02*
X177500D01*
X58000Y52748D02*
X63000D01*
X63002D01*
D23*
X32606Y54500D02*
Y59244D01*
X9250Y30701D02*
X13512D01*
X21701D01*
X28000Y37000D01*
X32606D01*
X123000D02*
X128500Y42500D01*
X143000D01*
X168000Y47500D02*
X171400D01*
X143000Y42500D02*
X154500D01*
X45205Y14756D02*
Y36955D01*
X45250Y37000D01*
X32606D02*
X45250D01*
X58000D01*
X68000D01*
X171400Y47500D02*
X176500D01*
X193500Y15000D02*
Y17500D01*
X191476Y12976D02*
X193500Y15000D01*
X155024Y12976D02*
X180500D01*
Y20000D01*
X88610Y37000D02*
X104000D01*
X123000D01*
X176500Y52500D02*
X178000D01*
X191750Y30500D02*
X193500Y28750D01*
Y26161D02*
Y28750D01*
X186020Y26161D02*
Y29020D01*
X187500Y30500D01*
X191750D01*
X189500Y12976D02*
Y14000D01*
X45205Y9205D02*
Y14756D01*
X45000Y9000D02*
X45205Y9205D01*
X171400Y52500D02*
X175500D01*
X176500D01*
X175500D02*
Y54750D01*
X154500Y13500D02*
X155024Y12976D01*
X154500Y13500D02*
Y15500D01*
Y18250D01*
Y20500D01*
Y42500D02*
X157000Y45000D01*
X165500D01*
X168000Y47500D01*
X68000Y37000D02*
X80500D01*
X88610D01*
X180500Y12976D02*
X189500D01*
X191476D01*
X176500Y47500D02*
Y52500D01*
D24*
X190000Y67905D02*
X199594D01*
X200000Y67500D01*
D25*
Y57500D02*
D03*
X128500Y52500D02*
D03*
X5000Y17500D02*
D03*
D26*
X200000Y47500D02*
D03*
Y37500D02*
D03*
Y27500D02*
D03*
Y17500D02*
D03*
X128500Y42500D02*
D03*
Y32500D02*
D03*
Y22500D02*
D03*
X5000Y67500D02*
D03*
Y57500D02*
D03*
Y47500D02*
D03*
Y37500D02*
D03*
Y27500D02*
D03*
X187500Y37500D02*
D03*
D27*
X130000Y67500D02*
D03*
X180000D02*
D03*
X140000D02*
D03*
X120000D02*
D03*
X110000D02*
D03*
X100000D02*
D03*
X90000D02*
D03*
X80000D02*
D03*
X70000D02*
D03*
X60000D02*
D03*
X50000D02*
D03*
X40000D02*
D03*
X30000D02*
D03*
X40000Y7500D02*
D03*
X30000D02*
D03*
X200000Y67500D02*
D03*
Y7500D02*
D03*
X50000D02*
D03*
X60000D02*
D03*
X70000D02*
D03*
X20000D02*
D03*
X80000D02*
D03*
X20000Y67500D02*
D03*
X90000Y7500D02*
D03*
X100000D02*
D03*
X110000D02*
D03*
X120000D02*
D03*
X130000D02*
D03*
X140000D02*
D03*
X150000D02*
D03*
X160000D02*
D03*
X170000D02*
D03*
X180000D02*
D03*
X190000D02*
D03*
X170000Y67500D02*
D03*
X150000D02*
D03*
D28*
X10000Y7500D02*
D03*
D29*
X187500Y47500D02*
D03*
D30*
X32606Y37000D02*
D03*
X21750Y40150D02*
D03*
X20000Y43299D02*
D03*
X24250Y49598D02*
D03*
X28000Y54500D02*
D03*
Y46449D02*
D03*
X32606Y54500D02*
D03*
X48354Y55000D02*
D03*
X17250Y46449D02*
D03*
X15000Y14756D02*
D03*
X28000Y33850D02*
D03*
X17750Y33850D02*
D03*
X9250Y30701D02*
D03*
X35756Y19000D02*
D03*
X32500D02*
D03*
X26307D02*
D03*
X23157D02*
D03*
X24750Y21252D02*
D03*
Y24402D02*
D03*
Y27551D02*
D03*
X85000Y5500D02*
D03*
X65500Y11431D02*
D03*
X113500Y11500D02*
D03*
X94250Y13250D02*
D03*
X125000Y11500D02*
D03*
X75000Y17000D02*
D03*
X105000Y15000D02*
D03*
X20500Y51500D02*
D03*
X37750Y53500D02*
D03*
X42055Y54305D02*
D03*
X35250Y50000D02*
D03*
X39500Y33850D02*
D03*
X24250Y37000D02*
D03*
X63000Y49598D02*
D03*
X62951Y43299D02*
D03*
X63051Y46449D02*
D03*
X63000Y52750D02*
D03*
X98453Y43500D02*
D03*
X65000Y24402D02*
D03*
Y27551D02*
D03*
Y32000D02*
D03*
X63000Y56500D02*
D03*
X88610Y37000D02*
D03*
X94500Y32750D02*
D03*
X71250Y35000D02*
D03*
X98453D02*
D03*
X65000Y29750D02*
D03*
X100250Y31000D02*
D03*
X106500Y45390D02*
D03*
X55000Y60000D02*
D03*
X84673D02*
D03*
X73250Y54250D02*
D03*
X90500Y47250D02*
D03*
X104500Y43421D02*
D03*
X88610Y49000D02*
D03*
X95750Y47250D02*
D03*
X72679Y27931D02*
D03*
X152750Y45000D02*
D03*
X149250Y37500D02*
D03*
X156500D02*
D03*
X164750Y47500D02*
D03*
X134500Y63500D02*
D03*
X159750Y69750D02*
D03*
X145250Y13250D02*
D03*
X147250Y15000D02*
D03*
X151000Y30250D02*
D03*
X135000Y25000D02*
D03*
X115890Y31610D02*
D03*
X161250Y26750D02*
D03*
X123250Y30000D02*
D03*
X135000Y40000D02*
D03*
X134000Y47000D02*
D03*
X162500Y40250D02*
D03*
X94516Y59500D02*
D03*
X121000Y54250D02*
D03*
X126000Y61750D02*
D03*
X157000Y56500D02*
D03*
X135750Y49750D02*
D03*
X138500Y52500D02*
D03*
X146500Y58250D02*
D03*
X180000Y28500D02*
D03*
X157000Y32500D02*
D03*
X135000D02*
D03*
X94516Y27750D02*
D03*
X72750Y24500D02*
D03*
X193500Y53500D02*
D03*
X163750Y69750D02*
D03*
X158500Y66750D02*
D03*
X175500Y54750D02*
D03*
X154500Y42500D02*
D03*
Y18250D02*
D03*
X164750Y22500D02*
D03*
X140000Y20250D02*
D03*
X179905Y35000D02*
D03*
X85750Y49000D02*
D03*
X137250Y37500D02*
D03*
X51504Y26500D02*
D03*
X29457D02*
D03*
X42055Y22500D02*
D03*
X68500D02*
D03*
X162500Y49750D02*
D03*
X189760Y21750D02*
D03*
X177500Y61000D02*
D03*
X191750Y30500D02*
D03*
X45000Y3000D02*
D03*
X144000Y3500D02*
D03*
X82000Y21000D02*
D03*
X189500Y14000D02*
D03*
M02*
